<svg width="24" height="15" viewBox="0 0 24 15" fill="none" xmlns="http://www.w3.org/2000/svg">
    <path d="M14.0364 0.000564893C13.7927 -0.00668877 13.5527 0.0560679 13.3501 0.179982C13.1475 0.303896 12.9924 0.482765 12.9067 0.691425C12.821 0.900084 12.809 1.12807 12.8723 1.3433C12.9356 1.55854 13.0711 1.75021 13.2598 1.89139L19.0284 6.40805H1.19186C1.03659 6.40494 0.882195 6.43014 0.737747 6.48232C0.5933 6.53451 0.461707 6.6126 0.350688 6.71191C0.239669 6.81122 0.151461 6.92976 0.0912408 7.06066C0.0310204 7.19156 0 7.33209 0 7.4741C0 7.61611 0.0310204 7.75675 0.0912408 7.88765C0.151461 8.01855 0.239669 8.13709 0.350688 8.2364C0.461707 8.33571 0.5933 8.41381 0.737747 8.46599C0.882195 8.51818 1.03659 8.54338 1.19186 8.54027H22.1872C22.4242 8.53885 22.6552 8.47146 22.8493 8.34696C23.0434 8.22246 23.1913 8.04686 23.2735 7.84351C23.3556 7.64016 23.368 7.41868 23.309 7.20872C23.25 6.99877 23.1224 6.81023 22.9432 6.66826L14.7833 0.26926C14.577 0.101663 14.3123 0.00650261 14.0364 0.000564893Z" fill="white"/>
    <path d="M22.1882 6.4003C22.4252 6.40172 22.6562 6.46911 22.8503 6.59361C23.0444 6.71811 23.1923 6.89384 23.2745 7.09719C23.3566 7.30054 23.369 7.52189 23.31 7.73185C23.251 7.9418 23.1234 8.13034 22.9443 8.27231L14.7753 14.6713C14.6588 14.7622 14.5238 14.8312 14.3782 14.8745C14.2325 14.9177 14.0789 14.9343 13.9262 14.9233C13.7735 14.9123 13.6247 14.8739 13.4883 14.8103C13.3518 14.7467 13.2304 14.6592 13.131 14.5526C13.0315 14.4461 12.956 14.3227 12.9087 14.1895C12.8614 14.0563 12.8433 13.9159 12.8553 13.7763C12.8674 13.6367 12.9094 13.5006 12.979 13.3758C13.0485 13.251 13.1443 13.1401 13.2608 13.0492L19.0271 8.53252H1.19288C1.03752 8.53576 0.883026 8.51062 0.738466 8.45849C0.593906 8.40637 0.462194 8.32835 0.35107 8.22903C0.239946 8.12971 0.151651 8.01111 0.0913677 7.88015C0.0310841 7.74919 3.05176e-05 7.60856 3.05176e-05 7.46647C3.05176e-05 7.32439 0.0310841 7.18363 0.0913677 7.05267C0.151651 6.92171 0.239946 6.80312 0.35107 6.7038C0.462194 6.60448 0.593906 6.52646 0.738466 6.47433C0.883026 6.4222 1.03752 6.39707 1.19288 6.4003H22.1882Z" fill="white"/>
</svg>
