<svg width="18" height="18" viewBox="0 0 18 18" fill="none" xmlns="http://www.w3.org/2000/svg">
    <g opacity="0.5">
        <path d="M1.70711 0.292893C1.31658 -0.0976318 0.68342 -0.0976318 0.292894 0.292893C-0.0976295 0.683417 -0.0976296 1.31658 0.292894 1.70711L1.70711 0.292893ZM16.2929 17.7071C16.6834 18.0976 17.3166 18.0976 17.7071 17.7071C18.0976 17.3166 18.0976 16.6834 17.7071 16.2929L16.2929 17.7071ZM0.292894 1.70711L16.2929 17.7071L17.7071 16.2929L1.70711 0.292893L0.292894 1.70711Z" fill="white"/>
        <path d="M17.7071 1.70711C18.0976 1.31658 18.0976 0.683418 17.7071 0.292894C17.3166 -0.0976295 16.6834 -0.0976296 16.2929 0.292894L17.7071 1.70711ZM0.292896 16.2929C-0.0976295 16.6834 -0.0976296 17.3166 0.292896 17.7071C0.68342 18.0976 1.31658 18.0976 1.70711 17.7071L0.292896 16.2929ZM16.2929 0.292894L0.292896 16.2929L1.70711 17.7071L17.7071 1.70711L16.2929 0.292894Z" fill="white"/>
    </g>
</svg>
