<svg width="45" height="45" viewBox="0 0 45 45" fill="none" xmlns="http://www.w3.org/2000/svg">
    <path fill-rule="evenodd" clip-rule="evenodd" d="M22.5 43C33.8218 43 43 33.8218 43 22.5C43 11.1782 33.8218 2 22.5 2C11.1782 2 2 11.1782 2 22.5C2 33.8218 11.1782 43 22.5 43ZM22.5 45C34.9264 45 45 34.9264 45 22.5C45 10.0736 34.9264 0 22.5 0C10.0736 0 0 10.0736 0 22.5C0 34.9264 10.0736 45 22.5 45Z" fill="white"/>
    <path fill-rule="evenodd" clip-rule="evenodd" d="M22.5 7C13.9396 7 7 13.9396 7 22.5C7 31.0604 13.9396 38 22.5 38C31.0604 38 38 31.0604 38 22.5C38 21.9477 38.4477 21.5 39 21.5C39.5523 21.5 40 21.9477 40 22.5C40 32.165 32.165 40 22.5 40C12.835 40 5 32.165 5 22.5C5 12.835 12.835 5 22.5 5C23.0523 5 23.5 5.44772 23.5 6C23.5 6.55228 23.0523 7 22.5 7Z" fill="white"/>
</svg>
