<svg width="32" height="32" viewBox="0 0 32 32" fill="none" xmlns="http://www.w3.org/2000/svg">
    <path fill-rule="evenodd" clip-rule="evenodd" d="M16 32C24.8366 32 32 24.8366 32 16C32 7.16344 24.8366 0 16 0C7.16344 0 0 7.16344 0 16C0 24.8366 7.16344 32 16 32ZM19.8339 12.1169C19.8339 12.2851 19.8282 12.452 19.8169 12.6173C23.6348 12.8252 26.6667 15.9869 26.6667 19.8567C26.6667 23.861 23.4206 27.107 19.4164 27.107C15.4121 27.107 12.1661 23.861 12.1661 19.8567C12.1661 19.6885 12.1718 19.5216 12.1831 19.3563C8.36516 19.1484 5.33333 15.9867 5.33333 12.1169C5.33333 8.11274 8.57942 4.8667 12.5836 4.8667C16.5878 4.8667 19.8339 8.11274 19.8339 12.1169ZM19.4624 14.4141C18.6481 16.8535 16.5725 18.7158 14.0096 19.227C13.9858 19.4336 13.9735 19.6437 13.9735 19.8567C13.9735 22.8627 16.4104 25.2995 19.4164 25.2995C22.4223 25.2995 24.8592 22.8627 24.8592 19.8567C24.8592 16.8661 22.4472 14.4388 19.4624 14.4141ZM11.8584 8.49132H13.3084V11.3911H16.2074V12.8412H13.3084V15.7415H11.8584V12.8412H8.9571V11.3911H11.8584V8.49132ZM22.0063 19.0289V20.4789H16.8275V19.0289H22.0063Z" fill="white"/>
</svg>
