<svg width="45" height="45" viewBox="0 0 45 45" fill="none" xmlns="http://www.w3.org/2000/svg">
    <path fill-rule="evenodd" clip-rule="evenodd" d="M34.1735 15.7608C34.5817 16.1328 34.6112 16.7652 34.2392 17.1735L22.1391 30.4541L14.2873 22.4756C13.8999 22.082 13.9049 21.4488 14.2986 21.0615C14.6922 20.6741 15.3254 20.6791 15.7127 21.0728L22.0831 27.5459L32.7608 15.8265C33.1328 15.4183 33.7652 15.3889 34.1735 15.7608Z" fill="white"/>
    <path fill-rule="evenodd" clip-rule="evenodd" d="M22.5 43C33.8218 43 43 33.8218 43 22.5C43 11.1782 33.8218 2 22.5 2C11.1782 2 2 11.1782 2 22.5C2 33.8218 11.1782 43 22.5 43ZM22.5 45C34.9264 45 45 34.9264 45 22.5C45 10.0736 34.9264 0 22.5 0C10.0736 0 0 10.0736 0 22.5C0 34.9264 10.0736 45 22.5 45Z" fill="white"/>
    <path fill-rule="evenodd" clip-rule="evenodd" d="M22.5 7C13.9396 7 7 13.9396 7 22.5C7 31.0604 13.9396 38 22.5 38C31.0604 38 38 31.0604 38 22.5C38 21.9477 38.4477 21.5 39 21.5C39.5523 21.5 40 21.9477 40 22.5C40 32.165 32.165 40 22.5 40C12.835 40 5 32.165 5 22.5C5 12.835 12.835 5 22.5 5C23.0523 5 23.5 5.44772 23.5 6C23.5 6.55228 23.0523 7 22.5 7Z" fill="white"/>
</svg>
