<svg width="48" height="44" viewBox="0 0 48 44" fill="none" xmlns="http://www.w3.org/2000/svg">
<path d="M5.24625 43.0938C4.51031 43.0938 3.80063 42.9475 3.13688 42.6578C2.50688 42.3822 1.94719 41.9922 1.47281 41.4981C1.00781 41.0144 0.643127 40.4538 0.389065 39.8341C0.131252 39.2041 0.000939892 38.5431 2.39172e-06 37.8681C-0.000935108 36.9091 0.273752 35.9622 0.795002 35.1278L19.5338 3.38406L19.5469 3.3625C20.0334 2.58625 20.7131 1.95063 21.5128 1.52406C22.2713 1.12 23.1263 0.90625 23.9859 0.90625H24H24.0141C24.8738 0.90625 25.7288 1.12 26.4872 1.52406C27.2869 1.95063 27.9666 2.58625 28.4531 3.3625L28.4663 3.38406L40.4156 23.6266V23.6275C40.5431 23.8431 40.5788 24.0953 40.5159 24.3372C40.4531 24.58 40.3003 24.7834 40.0847 24.9109C39.9403 24.9962 39.7763 25.0413 39.6094 25.0413C39.2784 25.0413 38.9691 24.8641 38.8013 24.58L26.8613 4.35344C26.2331 3.35875 25.1897 2.78594 24 2.78125C22.8131 2.78594 21.7716 3.35687 21.1425 4.34687L2.40281 36.0925L2.38969 36.1141C2.04938 36.6587 1.87594 37.2484 1.875 37.8681C1.87406 38.7222 2.22 39.5716 2.82375 40.1978C3.46875 40.8634 4.30969 41.2169 5.25469 41.2188H42.7453C43.6903 41.2169 44.5303 40.8634 45.1753 40.1978C45.78 39.5716 46.1259 38.7222 46.125 37.8681C46.1241 37.2494 45.9506 36.6587 45.6094 36.1141L45.5972 36.0925L43.0903 31.8456C42.9628 31.63 42.9272 31.3778 42.99 31.135C43.0519 30.8931 43.2056 30.6887 43.4213 30.5622C43.5656 30.4769 43.7297 30.4319 43.8966 30.4319C44.2275 30.4319 44.5369 30.6081 44.7047 30.8922L47.2069 35.1316C47.7272 35.9641 48.0009 36.91 48 37.8681C47.9991 38.5431 47.8688 39.2041 47.6109 39.8341C47.3569 40.4538 46.9922 41.0144 46.5263 41.4981C46.0528 41.9922 45.4931 42.3822 44.8631 42.6578C44.1994 42.9466 43.4897 43.0938 42.7538 43.0938H5.24625Z" fill="white"/>
<path d="M42.2811 38.4062H5.71864C5.38199 38.4062 5.07121 38.2258 4.90433 37.9334C4.73755 37.641 4.74027 37.2816 4.91146 36.9918L23.1927 6.05434C23.3615 5.76888 23.6683 5.59375 23.9999 5.59375C24.3315 5.59375 24.6383 5.76888 24.807 6.05434L43.0882 36.9918C43.2595 37.2816 43.2621 37.6411 43.0954 37.9334C42.9286 38.2258 42.6178 38.4062 42.2811 38.4062ZM7.36152 36.5312H40.6382L23.9999 8.37409L7.36152 36.5312Z" fill="white"/>
<path d="M24 34.5625C22.4492 34.5625 21.1875 33.3008 21.1875 31.75C21.1875 30.1992 22.4492 28.9375 24 28.9375C25.5508 28.9375 26.8125 30.1992 26.8125 31.75C26.8125 33.3008 25.5508 34.5625 24 34.5625ZM24 30.8125C23.4831 30.8125 23.0625 31.2331 23.0625 31.75C23.0625 32.2669 23.4831 32.6875 24 32.6875C24.5169 32.6875 24.9375 32.2669 24.9375 31.75C24.9375 31.2331 24.5169 30.8125 24 30.8125Z" fill="white"/>
<path d="M24 27.0625C22.9726 27.0625 22.5603 25.8703 22.3841 25.3612C22.1648 24.7269 21.9523 23.8635 21.7526 22.7949C21.4025 20.9211 21.1875 18.9395 21.1875 18.3438C21.1875 16.7929 22.4492 15.5312 24 15.5312C25.5508 15.5312 26.8125 16.7929 26.8125 18.3438C26.8125 18.9395 26.5975 20.9211 26.2474 22.7949C26.0477 23.8635 25.8352 24.7269 25.6159 25.3612C25.4397 25.8703 25.0275 27.0625 24 27.0625ZM24 17.4062C23.4831 17.4062 23.0625 17.8268 23.0625 18.3438C23.0625 18.7016 23.2144 20.2528 23.5045 21.9416C23.6861 22.9983 23.8564 23.7356 24 24.2463C24.1435 23.7355 24.3139 22.9983 24.4955 21.9416C24.7856 20.2528 24.9375 18.7016 24.9375 18.3438C24.9375 17.8268 24.5169 17.4062 24 17.4062Z" fill="white"/>
<path d="M41.7521 28.6741C42.2699 28.6741 42.6896 28.2543 42.6896 27.7366C42.6896 27.2188 42.2699 26.7991 41.7521 26.7991C41.2344 26.7991 40.8146 27.2188 40.8146 27.7366C40.8146 28.2543 41.2344 28.6741 41.7521 28.6741Z" fill="white"/>
</svg>
