<?xml version="1.0" standalone="no"?>
<!DOCTYPE svg PUBLIC "-//W3C//DTD SVG 20010904//EN"
 "http://www.w3.org/TR/2001/REC-SVG-20010904/DTD/svg10.dtd">
<svg version="1.0" xmlns="http://www.w3.org/2000/svg"
 width="260.000000pt" height="260.000000pt" viewBox="0 0 260.000000 260.000000"
 preserveAspectRatio="xMidYMid meet">
<metadata>
Created by potrace 1.11, written by Peter Selinger 2001-2013
</metadata>
<g transform="translate(0.000000,260.000000) scale(0.100000,-0.100000)"
fill="#000000" stroke="none">
<path d="M1940 2444 c-222 -25 -454 -118 -696 -279 l-111 -74 -69 34 c-187 93
-399 60 -544 -85 -105 -105 -155 -256 -132 -396 45 -272 316 -450 579 -380 83
22 143 57 209 121 145 142 179 349 88 533 -20 41 -32 77 -28 81 262 192 551
311 755 311 205 0 308 -94 317 -289 2 -58 -2 -111 -13 -161 -10 -41 -22 -97
-28 -124 -11 -47 -10 -49 17 -72 30 -27 57 -25 88 5 52 50 87 362 53 476 -24
83 -47 125 -98 178 -72 73 -163 110 -297 120 -30 3 -71 3 -90 1z m-1042 -591
l3 -93 89 0 90 0 0 -45 0 -45 -90 0 -89 0 -3 -92 -3 -93 -47 -3 -48 -3 0 95 0
95 -92 3 -91 3 0 40 0 40 91 3 92 3 0 88 c0 48 3 91 7 95 4 4 25 6 48 4 l40
-3 3 -92z"/>
<path d="M1735 1366 c-228 -57 -384 -291 -346 -520 7 -39 23 -95 36 -123 l24
-53 -42 -34 c-143 -115 -383 -248 -548 -301 -438 -142 -656 43 -545 462 22 81
25 106 16 123 -25 46 -97 42 -119 -7 -43 -95 -70 -304 -52 -407 60 -346 397
-447 854 -256 148 62 369 193 491 293 l30 24 59 -38 c90 -58 146 -74 262 -73
118 0 181 21 273 88 138 102 212 282 182 446 -48 269 -312 441 -575 376z m245
-129 c70 -26 151 -102 187 -176 24 -49 28 -68 28 -146 -1 -77 -5 -98 -28 -147
-36 -74 -119 -150 -195 -178 -45 -17 -73 -21 -137 -18 -138 6 -242 74 -302
196 -24 50 -28 69 -28 147 0 78 4 97 28 147 36 73 96 134 162 164 101 46 180
49 285 11z"/>
<path d="M1687 964 c-4 -4 -7 -25 -7 -46 l0 -38 171 0 170 0 -3 43 -3 42 -161
3 c-88 1 -163 -1 -167 -4z"/>
</g>
</svg>
