<svg width="1440" height="1158" viewBox="0 0 1440 1158" fill="none" xmlns="http://www.w3.org/2000/svg">
    <g opacity="0.16">
        <path d="M729.562 90.2797C774.322 87.3051 821.793 87.7673 873.568 93.0544C1046 110.898 1217.74 177.768 1342.1 259.193C1458.37 335.256 1518.41 429.977 1532.76 525.994C1547.11 622.01 1516.19 719.364 1450.34 800.498C1365.82 904.753 1193.54 1046.73 1000.36 1075.82C952.924 1082.96 902.126 1081.47 852.187 1079.89C731.041 1076.29 604.751 1083.86 485.614 1054.85C401.175 1034.27 329.485 997.944 254.488 965.723C167.137 928.085 88.8859 918.156 -4.05931 891.994C-110.752 861.873 -146.743 802.466 -148.96 736.212C-151.238 665.36 -142.72 595.362 -135.681 525.222C-129.796 466.98 -138.553 399.926 -101.146 347.16C-43.341 265.435 143.691 222.513 270.886 195.432C435.152 160.229 562.952 101.244 729.562 90.2797Z" fill="white" stroke="#231F20" stroke-miterlimit="10"/>
        <path d="M277.752 197.499C439.383 163.281 565.423 105.011 729.665 94.3509C774.2 91.5314 821.234 92.1285 872.573 97.5506C918.837 102.489 965.05 110.778 1010.39 121.985C1072.67 137.279 1133.03 157.864 1189.49 182.139C1243.88 205.51 1294.36 232.57 1338.08 261.635C1451.88 336.579 1509.93 429.521 1523.57 523.705C1537.44 617.733 1506.69 712.808 1442.04 792.291C1358.97 894.388 1190.14 1033.16 1000.83 1061.74C954.032 1068.94 903.643 1067.67 854.127 1066.13C796.732 1064.54 738.298 1065.33 679.86 1063.47C616.108 1061.46 552.831 1056.13 491.162 1041.25C408.176 1021.16 337.501 985.464 263.957 953.734C178.044 916.764 101.062 906.956 9.78045 881.305C-95.0368 851.716 -130.702 793.575 -133.452 728.683C-136.476 659.174 -128.28 590.557 -121.973 521.583C-116.778 463.982 -124.998 398.215 -88.3082 346.441C-31.4733 266.213 152.304 224.04 277.752 197.499Z" fill="white" stroke="#231F20" stroke-miterlimit="10"/>
        <path d="M284.605 199.741C443.841 166.178 568.092 108.973 729.756 98.5976C773.854 95.913 820.662 96.6653 871.564 102.222C917.406 107.12 963.182 115.544 1008.31 126.732C1070.18 141.809 1130.16 161.829 1186.22 185.712C1240.22 208.693 1290.71 235.578 1333.81 264.407C1444.92 338.388 1500.99 429.376 1513.93 521.726C1526.68 613.706 1496.74 706.739 1433.29 784.394C1351.67 884.333 1186.29 1019.91 1000.84 1048.15C954.465 1055.38 904.71 1054.17 855.603 1052.85C798.843 1051.32 740.832 1052.15 683.042 1050.18C619.938 1048.05 557.31 1042.61 496.275 1027.79C414.755 1008.01 345.082 973.12 272.765 942.036C188.277 905.908 112.563 896.221 22.7617 870.711C-80.1803 841.653 -115.506 784.605 -118.79 721.075C-122.348 652.927 -114.897 585.652 -108.898 517.885C-103.984 461.14 -112.089 396.62 -75.8917 345.681C-19.4069 267.186 161.116 225.763 284.605 199.741Z" fill="white" stroke="#231F20" stroke-miterlimit="10"/>
        <path d="M291.459 201.983C448.089 169.055 570.565 112.741 730.072 102.689C773.959 99.9843 820.528 101.067 870.796 106.564C916.412 111.617 961.765 120 1006.49 130.972C1067.73 145.814 1127.53 165.463 1183.21 188.78C1237.02 211.39 1287.33 237.905 1329.8 266.673C1438.22 339.516 1492.31 428.725 1504.54 519.242C1516.61 609.038 1487.05 699.988 1424.79 775.991C1344.64 873.598 1182.7 1005.97 1001.32 1034.06C955.378 1041.17 906.229 1040.37 857.757 1039.1C801.617 1037.81 744.254 1038.53 686.901 1036.42C624.445 1034.17 562.451 1028.8 502.051 1014.04C421.997 994.576 353.537 960.505 282.235 930.048C199.186 894.586 124.529 885 36.6031 860.022C-64.4636 831.496 -99.4637 775.715 -103.07 713.567C-107.373 646.761 -100.442 580.672 -95.188 514.247C-90.5546 458.358 -98.5318 394.91 -62.8544 345.158C-7.53759 267.964 169.717 227.465 291.459 201.983Z" fill="white" stroke="#231F20" stroke-miterlimit="10"/>
        <path d="M298.311 204.226C452.546 171.952 573.05 116.333 730.176 106.76C773.837 104.211 819.969 105.428 869.801 111.06C914.98 116.248 960.122 124.611 1004.43 135.368C1065.26 150.17 1124.69 169.077 1180.18 192.024C1233.81 214.263 1283.71 240.562 1325.78 268.939C1431.74 340.665 1483.84 428.094 1495.15 516.758C1506.31 604.525 1477.34 693.412 1416.3 767.588C1337.38 863.017 1179.12 992.029 1001.59 1019.79C956.288 1026.95 907.563 1026.19 859.499 1025.14C803.994 1023.91 747.054 1024.67 690.335 1022.62C628.528 1020.26 567.181 1014.77 507.402 1000.24C428.814 981.098 361.37 947.654 291.295 917.844C209.882 883.245 136.296 873.584 49.8228 849.097C-49.1434 820.948 -84.0429 766.59 -88.169 705.628C-92.8081 640.379 -86.6221 575.632 -81.6631 510.238C-77.522 455.185 -85.1732 393.005 -49.9881 344.088C4.54191 268.762 178.513 229.363 298.311 204.226Z" fill="white" stroke="#231F20" stroke-miterlimit="10"/>
        <path d="M305.164 206.468C456.792 174.828 575.732 120.12 730.266 111.007C773.715 108.437 819.397 109.965 868.806 115.556C913.562 120.704 958.267 129.202 1002.37 139.939C1062.78 154.525 1121.82 173.042 1176.93 195.422C1230.18 217.095 1280.1 243.219 1321.53 271.536C1425.02 342.143 1475.13 427.794 1485.52 514.604C1495.78 600.343 1467.41 686.991 1407.56 759.516C1330.09 852.787 1175.28 978.596 1001.62 1006.02C956.749 1013.04 908.63 1012.69 861.201 1011.71C806.118 1010.52 750.024 1011.35 693.953 1009.19C632.78 1006.89 572.096 1001.11 512.951 986.644C435.829 967.817 369.598 935.194 300.539 906.01C220.565 872.078 148.248 862.538 63.4378 838.563C-33.6531 810.946 -68.2129 757.679 -72.8866 698.255C-77.8481 634.388 -72.6187 570.963 -68.1935 506.931C-64.5446 452.714 -71.87 391.8 -37.1909 343.895C16.6078 269.735 187.113 231.065 305.164 206.468Z" fill="white" stroke="#231F20" stroke-miterlimit="10"/>
        <path d="M312.016 208.71C461.249 177.726 578.204 123.887 730.37 115.078C773.594 112.664 818.853 114.151 867.811 120.053C912.342 125.356 956.624 133.814 1000.32 144.334C1060.32 158.705 1118.98 176.656 1173.91 198.666C1226.97 219.968 1276.69 245.896 1317.5 273.977C1418.3 343.622 1466.43 427.318 1476.11 512.296C1485.68 596.026 1457.69 680.591 1399.05 751.288C1323.03 842.402 1171.46 964.988 1001.87 992.09C957.632 999.176 909.936 998.869 862.916 998.097C808.454 997.145 752.796 997.845 697.374 995.566C636.849 993.153 576.799 987.431 518.288 973.026C442.633 954.515 377.404 922.694 309.572 894.157C231.022 861.067 159.988 851.473 76.6302 827.99C-18.5855 800.904 -52.608 748.925 -57.8016 690.687C-63.2968 628.182 -58.6012 566.118 -54.696 503.273C-51.3278 449.912 -58.525 390.07 -24.3519 343.176C28.4762 270.513 195.713 232.768 312.016 208.71Z" fill="white" stroke="#231F20" stroke-miterlimit="10"/>
        <path d="M318.87 210.953C465.496 180.602 580.676 127.655 730.46 119.325C773.473 116.89 818.493 118.708 867.028 124.569C911.123 130.007 955.193 138.445 998.477 148.75C1058.07 162.905 1116.35 180.29 1170.88 201.909C1223.76 222.841 1273.3 248.398 1313.47 276.419C1411.8 344.945 1457.94 426.863 1466.71 509.987C1475.39 591.513 1447.98 674.016 1390.53 743.236C1315.96 832.192 1167.83 951.575 1002.33 978.184C958.517 985.31 911.441 985.239 864.844 984.507C811.016 983.615 755.992 984.376 700.993 982.137C641.116 979.609 581.715 973.772 523.824 959.603C449.635 941.408 385.633 910.234 318.817 882.324C241.705 849.9 171.714 840.582 90.2597 817.28C-2.86924 790.747 -36.7773 740.015 -42.5047 683.138C-48.5338 621.995 -44.5834 561.273 -41.1981 499.614C-38.3221 447.09 -45.1934 388.515 -11.5263 342.633C40.5565 271.311 204.525 234.49 318.87 210.953Z" fill="white" stroke="#231F20" stroke-miterlimit="10"/>
        <path d="M325.722 213.195C469.953 183.499 583.372 131.267 730.564 123.396C773.14 121.097 817.934 123.07 866.033 129.066C909.704 134.464 953.338 143.036 996.635 153.166C1055.82 167.106 1113.7 184.099 1167.85 205.152C1220.57 225.538 1269.89 251.075 1309.44 278.86C1405.31 346.268 1449.25 426.387 1457.32 507.503C1465.09 587 1438.28 667.44 1382.03 734.833C1308.91 821.632 1164.24 937.636 1002.59 964.082C959.215 971.074 912.958 971.433 866.784 970.742C813.577 970.086 758.99 970.711 704.638 968.358C645.396 965.891 586.657 959.763 529.4 945.655C456.664 927.952 393.678 897.404 328.3 870.16C252.613 838.579 183.904 829.206 103.902 806.396C12.6485 780.395 -20.9337 730.93 -27.181 675.24C-33.7439 615.458 -30.3273 556.098 -27.4618 495.626C-24.8666 443.957 -31.6096 386.454 1.55135 341.583C52.6221 272.284 213.124 236.193 325.722 213.195Z" fill="white" stroke="#231F20" stroke-miterlimit="10"/>
        <path d="M332.575 215.437C474.186 186.551 585.83 135.209 730.654 127.643C773.005 125.498 817.363 127.606 865.024 133.737C908.471 139.29 951.682 147.823 994.556 157.912C1053.12 171.616 1110.83 188.064 1164.8 208.746C1217.12 228.741 1266.47 253.928 1305.39 281.652C1398.6 347.572 1440.55 425.912 1447.9 505.369C1454.98 582.858 1428.54 661.215 1373.51 726.781C1301.84 811.422 1160.62 924.223 1002.82 950.331C960.086 957.383 914.251 957.783 868.486 957.307C815.913 956.711 761.96 957.397 708.046 954.908C649.452 952.327 591.361 946.085 534.725 932.212C463.454 914.825 401.681 885.099 337.319 858.482C263.071 827.568 195.631 818.316 117.293 796.018C27.9142 770.548 -5.32833 722.175 -11.9118 668.042C-19.0223 609.798 -16.3371 551.604 -13.9916 492.318C-11.8747 441.31 -18.0943 385.27 14.3492 341.39C64.491 273.062 221.935 237.915 332.575 215.437Z" fill="white" stroke="#231F20" stroke-miterlimit="10"/>
        <path d="M339.429 217.68C478.644 189.448 588.302 138.976 730.759 131.714C772.898 129.55 816.806 131.968 864.044 138.059C907.054 143.746 950.053 152.259 992.519 162.133C1050.68 175.621 1107.99 191.678 1161.58 211.794C1213.71 231.418 1262.86 256.41 1301.18 283.723C1391.89 348.875 1431.85 425.436 1438.3 502.865C1444.47 578.325 1418.64 654.444 1364.8 718.358C1294.58 800.842 1156.81 910.44 1002.89 936.034C960.575 943.126 915.361 943.762 870.019 943.326C818.08 942.791 764.55 943.517 711.495 940.934C653.55 938.237 596.106 931.88 540.091 918.243C470.287 901.173 409.516 872.249 346.394 846.103C273.585 815.856 207.413 806.724 130.527 784.918C43.2357 760 10.1076 712.874 3.00421 659.928C-4.64003 603.045 -2.70002 546.193 -0.662982 488.114C0.961724 437.942 -4.93201 383.169 27.0193 340.125C76.558 274.035 230.536 239.618 339.429 217.68Z" fill="white" stroke="#231F20" stroke-miterlimit="10"/>
        <path d="M346.295 219.747C482.904 192.15 590.787 142.568 730.863 135.786C772.777 133.776 816.459 136.35 863.049 142.555C905.636 148.203 948.199 156.85 990.467 166.528C1048.21 179.801 1104.94 195.272 1158.54 215.213C1210.49 234.466 1259.45 259.087 1297.14 286.34C1385.4 350.199 1423.37 424.981 1428.88 500.731C1434.16 573.988 1408.91 648.219 1356.28 710.306C1287.5 790.632 1153.18 897.027 1003.13 922.283C961.458 929.26 916.653 930.111 871.931 929.911C820.402 929.592 767.732 930.224 715.1 927.68C657.802 924.869 600.993 918.572 545.626 904.82C477.288 888.066 417.744 859.789 355.624 834.445C284.239 805.04 219.35 795.854 144.142 774.384C58.7258 749.999 25.9236 704.139 18.2864 652.555C10.1083 597.034 11.3031 541.524 12.8202 484.631C14.1642 435.316 8.39874 381.614 39.6187 339.737C88.6375 274.833 239.347 241.34 346.295 219.747Z" fill="white" stroke="#231F20" stroke-miterlimit="10"/>
        <path d="M353.359 222.009C487.572 195.067 593.681 146.376 731.178 139.877C772.88 137.848 816.112 140.731 862.279 146.896C904.641 152.699 946.78 161.306 988.625 170.944C1045.96 184.001 1102.31 198.906 1155.51 218.456C1207.08 237.144 1256.06 261.589 1293.11 288.782C1378.9 351.522 1414.88 424.525 1419.48 498.422C1424.07 569.67 1399.4 641.839 1347.77 702.078C1280.64 780.442 1149.57 883.439 1003.59 908.376C962.341 915.394 918.157 916.481 873.858 916.321C822.962 916.062 770.715 916.734 718.731 914.076C662.068 911.325 605.921 904.739 551.175 891.222C484.303 874.784 425.761 847.309 364.868 822.612C294.921 793.873 231.076 784.964 157.546 763.83C74.0044 739.977 41.5419 695.209 33.5823 645.007C24.8705 590.848 25.5315 536.699 26.5149 481.169C27.3666 432.689 21.927 380.255 52.6547 339.213C100.505 275.611 247.946 243.043 353.359 222.009Z" fill="white" stroke="#231F20" stroke-miterlimit="10"/>
        <path d="M360.213 224.251C491.82 197.944 596.154 150.143 731.269 144.124C772.746 142.249 815.541 145.268 861.272 151.568C903.196 157.506 945.125 166.092 986.561 175.515C1043.49 188.357 1099.44 202.871 1152.26 221.854C1203.64 240.172 1252.43 264.421 1288.86 291.378C1371.97 352.98 1405.96 424.205 1409.85 496.269C1413.53 565.488 1389.47 635.418 1339.03 694.006C1273.35 770.213 1145.74 870.006 1003.63 894.43C962.803 901.488 919.253 902.635 875.363 902.691C825.088 902.668 773.489 903.225 721.942 900.432C665.927 897.566 610.428 890.865 556.514 877.604C491.108 861.483 433.568 834.809 373.916 810.583C305.394 782.687 242.831 773.723 170.964 753.101C89.51 729.799 57.3733 686.299 48.6686 637.438C39.423 584.641 39.3388 531.834 39.8022 477.49C40.1617 429.847 35.0619 378.504 65.2697 338.649C112.573 276.584 256.547 244.745 360.213 224.251Z" fill="white" stroke="#231F20" stroke-miterlimit="10"/>
        <path d="M367.065 226.494C496.277 200.841 598.625 153.91 731.372 148.195C772.413 146.456 814.996 149.454 860.29 155.889C901.792 161.787 943.284 170.508 984.733 179.756C1041.24 192.557 1096.82 206.329 1149.46 224.943C1200.66 242.889 1249.26 266.768 1285.05 293.665C1365.7 354.149 1397.7 423.594 1400.67 493.805C1403.66 561.016 1379.97 628.863 1330.75 685.623C1266.52 759.672 1142.35 856.263 1004.1 880.348C963.925 887.291 920.77 888.83 877.515 888.946C827.874 888.983 776.698 889.58 725.785 886.848C670.419 883.867 615.554 877.226 562.288 863.851C498.348 848.046 442.035 822.019 383.385 798.595C316.302 771.365 255.007 762.522 184.593 742.392C105.014 719.622 73.2169 677.214 63.9784 629.715C54.199 578.28 53.3696 526.814 53.5245 473.677C53.6033 426.89 48.6179 376.794 78.3335 337.775C124.652 277.382 265.358 246.468 367.065 226.494Z" fill="white" stroke="#231F20" stroke-miterlimit="10"/>
        <path d="M373.918 228.736C500.509 203.893 601.294 157.873 731.463 152.442C772.292 150.682 814.636 154.011 859.282 160.561C900.558 166.613 941.627 175.295 982.654 184.502C1038.75 197.088 1093.94 210.469 1146.19 228.516C1197.21 246.092 1245.61 269.776 1280.79 296.437C1358.96 355.802 1388.98 423.469 1391.03 491.826C1393.13 556.833 1370.03 622.617 1322 677.726C1259.22 749.617 1138.5 843.005 1004.11 866.752C964.358 873.736 921.838 875.334 878.991 875.666C829.985 875.764 779.443 876.422 729.179 873.574C674.46 870.479 620.244 863.723 567.598 850.583C505.111 835.27 449.813 809.869 392.616 786.937C326.957 760.549 266.945 751.652 198.195 732.033C120.491 709.796 89.0195 668.654 79.2472 622.517C68.9202 572.619 67.5708 522.34 66.9944 470.369C66.5949 424.243 61.9214 375.59 91.1309 337.582C136.521 278.16 273.944 248.346 373.918 228.736Z" fill="white" stroke="#231F20" stroke-miterlimit="10"/>
        <path d="M380.771 230.978C504.967 206.79 603.765 161.64 731.567 156.513C772.171 154.909 814.078 158.372 858.512 164.902C899.352 171.09 940.209 179.751 980.827 188.742C1036.31 201.093 1091.32 213.928 1143.18 231.584C1193.82 248.594 1242.23 272.102 1276.79 298.528C1352.51 356.6 1380.32 422.468 1381.66 488.992C1382.86 551.97 1360.35 615.691 1313.53 668.973C1252.2 738.707 1134.93 828.891 1004.63 852.144C965.509 859.189 923.397 861.003 880.987 861.2C832.39 861.513 782.496 862.056 732.88 859.094C678.584 856.039 625.242 849.013 573.216 836.109C512.196 821.112 458.111 796.533 401.929 774.228C337.709 748.507 278.966 739.73 211.681 720.428C136.064 698.742 104.708 658.848 94.6129 614.093C83.7521 565.556 81.6575 516.619 80.7726 465.855C80.0923 420.585 75.5471 373.003 104.251 336.007C148.587 279.133 282.755 250.068 380.771 230.978Z" fill="white" stroke="#231F20" stroke-miterlimit="10"/>
        <path d="M387.624 233.221C509.213 209.667 606.237 165.407 731.657 160.76C772.036 159.31 813.506 162.909 857.504 169.574C897.921 175.721 938.341 184.517 978.762 193.313C1033.83 205.448 1088.46 217.718 1140.14 235.003C1190.59 251.642 1238.83 274.78 1272.75 301.145C1346 358.099 1371.82 422.188 1372.24 486.858C1372.75 547.828 1350.62 609.466 1304.99 661.096C1245.11 728.672 1131.29 815.654 1004.85 838.569C966.154 845.653 924.662 847.703 882.887 847.96C834.924 848.334 785.665 848.938 736.471 846.016C682.824 842.846 630.129 835.705 578.738 822.862C519.184 808.181 466.101 784.404 411.146 762.745C348.139 737.846 290.467 728.995 224.847 710.205C151.105 689.051 120.088 650.248 109.459 606.855C98.0646 559.68 95.2248 512.085 93.8199 462.507C92.6475 418.073 88.4281 371.759 116.626 335.774C160.667 279.931 291.355 251.771 387.624 233.221Z" fill="white" stroke="#231F20" stroke-miterlimit="10"/>
        <path d="M394.476 235.463C513.67 212.564 608.919 169.195 731.76 164.831C771.928 163.362 812.947 167.27 856.508 174.07C896.7 180.373 936.697 189.128 976.695 197.884C1031.35 209.803 1085.59 221.682 1136.89 238.402C1187.16 254.67 1235.21 277.437 1268.49 303.741C1339.28 359.577 1363.11 421.887 1362.83 484.725C1362.44 543.491 1340.9 603.066 1296.47 653.044C1238.03 718.463 1127.66 802.241 1005.08 824.818C966.825 831.767 925.954 834.053 884.588 834.525C837.245 835.135 788.423 835.603 739.878 832.567C686.878 829.282 634.818 822.202 584.061 809.419C525.973 795.054 474.117 771.924 420.178 750.892C358.821 726.68 302.404 718.125 238.461 699.671C166.594 679.049 135.903 641.513 124.741 599.482C112.601 553.649 109.227 507.416 107.514 459.045C105.85 415.446 101.97 370.224 129.661 335.25C172.521 280.885 299.954 253.473 394.476 235.463Z" fill="white" stroke="#231F20" stroke-miterlimit="10"/>
        <path d="M401.329 237.705C517.917 215.441 611.391 172.962 731.851 169.078C771.793 167.763 812.588 171.827 855.514 178.567C895.269 185.004 935.055 193.74 974.644 202.28C1028.89 213.983 1082.75 225.296 1133.86 241.645C1183.75 257.347 1231.8 280.114 1264.46 306.183C1332.8 360.726 1354.41 421.412 1353.42 482.416C1352.34 539.173 1331.18 596.666 1287.96 644.816C1230.97 708.077 1124.05 788.653 1005.35 810.716C967.723 817.726 927.261 820.227 886.529 820.76C839.821 821.43 791.647 821.784 743.736 818.807C691.385 815.408 639.973 808.213 589.836 795.666C533.214 781.617 482.346 759.465 429.648 738.903C369.716 715.534 314.581 706.924 252.302 688.982C182.522 668.912 151.946 632.623 140.475 591.799C127.801 547.328 123.908 502.281 121.435 455.427C119.279 412.664 115.725 368.709 142.91 334.747C184.601 281.683 308.766 255.196 401.329 237.705Z" fill="white" stroke="#231F20" stroke-miterlimit="10"/>
        <path d="M408.182 239.947C522.375 218.338 613.849 176.904 731.956 173.149C771.672 171.99 812.03 176.189 854.52 183.063C893.852 189.46 933.201 198.331 972.803 206.696C1026.65 218.184 1080.11 229.105 1130.84 244.888C1180.54 260.22 1228.41 282.616 1260.44 308.624C1326.1 361.854 1345.94 420.781 1344.02 480.107C1342.26 534.681 1321.47 590.09 1279.45 636.589C1223.91 697.692 1120.42 775.24 1005.6 796.789C968.395 803.84 928.568 806.401 888.245 807.15C842.171 807.88 794.42 808.274 747.157 805.183C695.44 801.844 644.69 794.359 595.188 781.872C540.033 768.14 490.18 746.614 438.695 726.875C380.188 704.347 326.335 695.684 265.509 678.233C197.604 658.694 167.367 623.498 155.349 584.21C142.141 541.101 137.503 497.396 134.722 451.748C132.284 409.842 128.845 367.134 155.538 334.007C196.682 282.48 317.366 256.898 408.182 239.947Z" fill="white" stroke="#231F20" stroke-miterlimit="10"/>
        <path d="M415.035 242.19C526.621 221.214 616.532 180.692 732.045 177.396C771.339 176.196 811.458 180.725 853.525 187.559C892.631 194.111 931.558 202.942 970.737 211.267C1024.17 222.539 1077.25 232.895 1127.59 248.287C1177.11 263.247 1224.79 285.273 1256.2 311.046C1319.61 363.177 1337.24 420.305 1334.4 477.778C1331.74 530.323 1311.54 583.669 1270.52 628.321C1216.43 687.267 1116.39 761.612 1005.63 782.843C968.87 789.758 929.649 792.731 889.749 793.52C844.084 794.466 797.192 794.765 750.352 791.714C699.284 788.26 649.182 780.66 600.3 768.409C546.822 755.014 497.972 734.289 447.516 715.001C390.433 693.316 337.864 684.598 278.715 667.483C212.685 648.477 182.774 614.548 170.236 576.447C156.481 534.874 151.111 492.335 147.81 447.875C144.894 406.629 141.992 365.208 167.954 333.248C208.536 283.433 326.177 258.621 415.035 242.19Z" fill="white" stroke="#231F20" stroke-miterlimit="10"/>
        <path d="M421.888 244.432C531.079 224.111 619.004 184.459 732.361 181.488C771.43 180.443 811.126 184.932 852.742 192.076C891.412 198.763 930.127 207.573 968.897 215.683C1021.71 226.719 1074.41 236.509 1124.77 251.55C1174.11 266.14 1221.59 287.971 1252.38 313.507C1313.34 364.345 1328.98 419.695 1325.21 475.489C1321.87 525.85 1302.03 577.289 1262.22 620.113C1209.58 676.902 1112.99 748.044 1006.11 768.761C969.979 775.737 931.181 778.75 891.901 779.774C846.871 780.781 800.402 781.12 754.211 777.955C703.79 774.386 654.337 766.672 606.075 754.656C554.064 741.577 506.215 721.654 457.198 703.033C401.553 682.014 350.027 673.572 292.556 656.794C228.613 638.34 198.816 605.658 185.956 568.939C171.667 528.728 165.552 487.531 161.942 444.277C158.534 403.867 155.958 363.714 181.428 332.59C220.616 284.231 334.778 260.323 421.888 244.432Z" fill="white" stroke="#231F20" stroke-miterlimit="10"/>
        <path d="M428.741 246.674C535.311 227.163 621.461 188.401 732.24 185.714C771.083 184.824 810.553 189.469 851.535 196.552C889.782 203.199 928.061 212.144 966.633 220.058C1019.04 230.879 1071.34 240.278 1121.32 254.753C1170.28 268.777 1217.78 290.432 1247.93 315.909C1306.43 365.453 1319.86 419.179 1315.38 473.14C1311.35 521.493 1291.9 570.673 1253.28 611.845C1202.1 666.477 1108.94 734.59 1005.93 754.794C970.228 761.81 932.051 765.059 893.194 766.124C848.784 767.366 802.963 767.591 757.208 764.29C707.422 760.782 658.631 752.777 611.004 740.822C560.458 728.059 513.837 708.783 465.821 690.964C411.813 670.808 361.358 662.291 305.55 646.025C243.483 628.102 214.026 596.512 200.632 561.155C185.809 522.306 178.948 482.451 175.031 440.403C171.13 400.83 168.88 361.943 193.632 331.81C232.696 285.029 343.589 262.046 428.741 246.674Z" fill="white" stroke="#231F20" stroke-miterlimit="10"/>
        <path d="M435.594 248.917C539.769 230.06 624.144 192.189 732.344 189.785C770.975 188.876 809.995 193.83 850.752 201.069C888.773 207.871 926.629 216.776 964.779 224.649C1016.77 235.255 1068.69 244.087 1118.28 258.172C1167.05 271.825 1214.37 293.11 1243.89 318.525C1299.92 366.952 1311.36 418.899 1305.97 471.006C1301.04 517.155 1282.17 564.448 1244.76 603.793C1195.02 656.267 1105.31 721.177 1006.17 741.043C971.098 748.119 933.329 751.584 894.895 752.689C851.12 753.992 805.722 754.257 760.813 751.037C711.675 747.414 663.518 739.469 616.525 727.575C567.446 715.128 521.826 696.654 475.052 679.306C422.482 659.816 373.295 651.421 318.94 635.646C258.748 618.256 229.617 587.932 215.689 553.937C200.332 516.45 192.727 477.936 188.289 437.075C184.108 398.358 181.986 360.543 206.232 331.422C244.551 285.983 352.188 263.748 435.594 248.917Z" fill="white" stroke="#231F20" stroke-miterlimit="10"/>
        <path d="M442.672 251.004C544.24 232.782 626.841 195.801 732.659 193.877C771.066 193.122 809.649 198.212 849.982 205.41C887.567 212.347 925.211 221.232 962.952 228.89C1014.52 239.455 1066.06 247.721 1115.48 261.26C1164.07 274.543 1211.2 295.456 1240.09 320.812C1293.67 367.945 1303.12 418.113 1296.8 468.367C1291.18 512.508 1272.7 557.542 1236.49 595.235C1187.99 645.531 1102.15 707.279 1006.88 726.631C972.248 733.572 935.1 737.272 897.287 738.613C854.145 739.976 809.382 740.302 764.91 736.947C716.42 733.209 668.911 725.15 622.539 713.491C574.912 701.536 530.519 683.709 484.76 666.987C433.615 648.34 385.711 639.89 333.02 624.627C274.915 607.788 245.898 578.712 231.661 545.923C215.771 509.799 207.42 472.626 202.66 433.147C197.987 395.266 196.191 358.718 219.931 330.608C256.631 286.78 360.788 265.45 442.672 251.004Z" fill="white" stroke="#231F20" stroke-miterlimit="10"/>
        <path d="M449.524 253.246C548.698 235.679 629.298 199.743 732.763 197.948C770.944 197.349 809.09 202.573 848.987 209.907C886.149 216.803 923.357 225.823 960.9 233.285C1012.06 243.635 1063.22 251.335 1112.24 264.483C1160.45 277.2 1207.6 297.938 1235.85 323.233C1286.97 369.073 1294.42 417.637 1287.18 466.038C1280.88 507.995 1262.77 551.122 1227.77 586.988C1180.71 635.126 1098.31 693.846 1006.92 712.685C972.92 719.686 936.181 723.602 898.79 724.983C856.27 726.582 811.943 726.773 768.119 723.303C720.277 719.45 673.416 711.276 627.679 699.678C581.518 688.039 538.127 671.013 493.609 654.763C443.903 636.783 397.056 628.434 346.042 613.507C289.812 597.2 261.135 569.216 246.351 537.964C229.927 503.201 220.831 467.371 215.551 429.078C210.385 392.033 208.929 356.577 232.163 329.478C268.696 287.754 369.585 267.348 449.524 253.246Z" fill="white" stroke="#231F20" stroke-miterlimit="10"/>
        <path d="M456.378 255.488C552.944 238.556 631.982 203.531 732.854 202.195C770.809 201.751 808.73 207.13 847.979 214.578C884.916 221.63 921.7 230.609 959.032 238.052C1009.79 248.186 1060.56 255.32 1109.4 268.097C1157.43 280.443 1204.39 300.811 1232.02 325.87C1280.69 370.416 1286.15 417.202 1277.98 463.925C1270.98 503.873 1253.27 544.742 1219.46 578.956C1173.85 624.937 1094.9 680.454 1007.37 698.953C973.79 705.996 937.686 709.972 900.704 711.569C858.606 713.208 815.125 713.479 771.724 710.049C724.517 706.257 678.318 697.793 633.201 686.43C588.506 675.108 546.342 658.729 502.826 643.281C454.558 625.967 408.966 617.914 359.63 603.324C305.487 587.569 276.924 560.832 261.62 530.767C244.662 497.365 234.821 462.876 229.232 425.791C223.589 389.406 222.444 355.393 245.172 329.305C280.565 288.532 378.186 269.051 456.378 255.488Z" fill="white" stroke="#231F20" stroke-miterlimit="10"/>
        <path d="M463.231 257.731C557.388 241.628 634.439 207.473 732.958 206.266C770.491 205.781 808.173 211.491 846.999 218.899C883.499 226.086 920.071 235.045 956.994 242.272C1007.13 252.17 1057.72 258.934 1106.18 271.145C1154.02 283.12 1201.01 303.138 1227.79 328.116C1274.22 371.389 1277.47 416.551 1268.38 461.421C1260.7 499.185 1243.35 538.146 1210.74 570.708C1166.58 614.531 1091.06 667.021 1007.42 684.832C974.265 691.914 938.781 696.126 902.434 697.783C860.956 699.658 817.912 699.794 775.159 696.25C728.6 692.343 683.035 683.939 638.553 672.637C595.324 661.631 554.162 646.054 511.873 631.252C465.03 614.78 420.72 606.673 372.837 592.575C320.568 577.352 292.332 551.882 276.705 523.198C258.988 491.314 248.627 458.012 242.519 422.113C236.383 386.564 235.564 353.818 257.8 328.566C292.645 289.33 386.997 270.773 463.231 257.731Z" fill="white" stroke="#231F20" stroke-miterlimit="10"/>
        <path d="M470.083 259.973C561.634 244.505 636.911 211.24 733.048 210.513C770.355 210.183 807.6 216.028 845.99 223.571C882.067 230.717 918.203 239.812 954.928 246.843C1004.65 256.526 1054.86 262.723 1102.93 274.543C1150.37 286.128 1197.39 305.795 1223.54 330.713C1267.51 372.693 1268.77 416.076 1258.75 459.267C1250.38 495.023 1233.4 531.9 1202 562.636C1159.29 604.301 1087.21 653.763 1007.44 671.06C974.923 678.203 939.862 682.455 903.923 684.328C863.08 686.263 820.671 686.46 778.566 682.801C732.655 678.779 687.739 670.261 643.89 659.019C602.128 648.329 562.179 633.574 521.131 619.244C475.726 603.439 432.685 595.452 386.466 581.866C336.073 567.175 308.175 542.796 292.001 515.65C273.751 485.128 262.644 453.167 256.227 418.474C249.599 383.762 249.12 352.108 270.836 328.042C304.5 290.283 395.597 272.476 470.083 259.973Z" fill="white" stroke="#231F20" stroke-miterlimit="10"/>
        <path d="M476.936 262.215C565.88 247.382 639.579 215.203 733.363 214.604C770.445 214.43 807.267 220.234 845.22 227.912C881.071 235.214 916.785 244.268 953.087 251.259C1002.4 260.726 1052.22 266.533 1100.11 277.807C1147.39 288.846 1194.21 308.317 1219.51 333.155C1261.26 373.686 1260.51 415.465 1249.34 456.958C1240.3 490.53 1223.7 525.325 1193.49 554.408C1152.23 593.917 1083.6 640.175 1007.9 657.154C975.806 664.337 941.365 668.825 905.85 670.738C865.641 672.734 823.866 672.991 782.198 669.197C736.935 665.06 692.667 656.427 649.439 645.421C609.143 635.047 570.21 620.919 530.375 607.411C486.395 592.448 444.636 584.407 399.869 571.312C351.563 557.173 323.78 534.042 307.086 508.082C288.302 478.921 276.45 448.302 269.513 414.796C262.393 380.92 262.24 350.533 283.463 327.303C316.579 291.081 404.196 274.178 476.936 262.215Z" fill="white" stroke="#231F20" stroke-miterlimit="10"/>
        <path d="M483.789 264.458C570.338 250.279 642.051 218.97 733.453 218.851C770.31 218.832 806.907 224.791 844.211 232.584C879.626 240.021 915.128 249.054 951.022 255.83C999.927 265.081 1049.36 270.322 1096.86 281.206C1143.95 291.873 1190.59 310.974 1215.26 335.751C1254.55 374.989 1251.8 415.165 1239.71 454.805C1230.2 486.213 1213.75 519.08 1184.75 546.336C1144.95 583.687 1079.96 626.937 1007.94 643.207C976.492 650.276 942.461 654.979 907.566 657.128C867.977 659.359 826.639 659.482 785.605 655.748C740.976 651.672 697.357 642.924 654.763 631.978C615.92 622.096 578.213 608.614 539.394 595.732C496.852 581.437 456.151 573.497 413.273 560.758C366.856 546.976 339.385 525.287 322.157 500.689C302.839 472.89 290.242 443.613 282.997 411.313C275.385 378.273 275.571 348.978 296.275 326.935C328.659 291.879 413.007 275.901 483.789 264.458Z" fill="white" stroke="#231F20" stroke-miterlimit="10"/>
        <path d="M490.642 266.7C574.585 253.156 644.509 222.913 733.558 222.923C770.203 222.883 806.35 229.153 843.443 236.926C878.646 244.342 913.5 253.49 949.196 260.07C997.692 269.106 1046.75 273.781 1093.85 284.274C1140.76 294.571 1187.21 313.301 1211.24 338.017C1248.29 375.982 1243.55 414.379 1230.32 452.32C1220.12 481.72 1204.06 512.329 1176.26 537.933C1137.9 573.126 1076.35 613.349 1008.21 629.106C977.179 636.214 943.768 641.154 909.31 643.167C870.144 645.439 829.651 645.642 789.054 641.773C745.074 637.582 702.102 628.719 660.143 617.834C622.766 608.268 586.061 595.588 548.483 583.178C507.366 569.724 467.947 561.73 426.522 549.483C381.98 536.232 354.849 515.635 337.299 492.42C317.235 465.962 304.104 438.047 296.326 407.109C288.221 374.905 288.733 346.877 308.945 325.67C340.515 292.832 421.608 277.603 490.642 266.7Z" fill="white" stroke="#231F20" stroke-miterlimit="10"/>
        <path d="M497.495 268.942C579.042 256.053 647.192 226.7 733.648 227.169C770.068 227.285 805.778 233.689 842.434 241.597C877.2 249.148 911.843 258.277 947.327 264.837C995.415 273.657 1043.86 277.921 1091.01 287.888C1137.52 297.794 1184.21 316.193 1207.41 340.654C1242.23 377.17 1235.47 414.139 1221.12 450.207C1210.44 477.443 1194.54 506.124 1167.95 529.901C1131.03 562.937 1072.92 600.132 1008.65 615.375C978.26 622.544 945.258 627.698 911.222 629.753C872.678 632.26 832.621 632.328 792.884 628.364C749.34 624.038 707.228 615.081 665.889 604.431C629.979 595.182 594.276 583.304 557.925 571.54C518.246 558.753 480.082 551.055 440.334 539.144C397.879 526.446 370.863 507.096 352.779 485.242C332.181 460.147 318.305 433.573 310.218 403.842C301.635 372.298 302.671 345.733 322.165 325.517C352.595 293.63 430.419 279.326 497.495 268.942Z" fill="white" stroke="#231F20" stroke-miterlimit="10"/>
        <path d="M504.347 271.185C583.288 258.93 649.649 230.643 733.751 231.241C769.946 231.511 805.219 238.051 841.452 245.918C875.782 253.605 910.213 262.713 945.288 269.057C992.756 277.642 1041.03 281.36 1087.78 290.936C1134.12 300.296 1180.62 318.5 1203.19 342.901C1235.55 378.123 1227.02 413.333 1211.53 447.528C1200.37 472.776 1184.65 499.178 1159.25 521.303C1123.79 552.181 1069.11 586.348 1008.94 600.922C978.973 608.132 946.605 613.347 913.191 615.637C875.28 618.205 835.858 618.333 796.543 614.41C753.648 609.969 712.184 600.897 671.466 590.483C637.021 581.55 602.546 570.318 567.196 559.357C528.942 547.412 492.061 539.659 453.765 528.24C413.185 516.074 386.495 497.991 367.891 477.323C346.746 453.765 331.927 428.337 323.531 399.813C314.456 369.106 315.832 343.632 334.82 324.428C364.66 294.603 439.018 281.028 504.347 271.185Z" fill="white" stroke="#231F20" stroke-miterlimit="10"/>
        <path d="M511.2 273.427C587.732 262.002 652.319 234.605 733.842 235.487C769.6 235.893 804.859 242.608 840.444 250.59C874.563 258.256 908.345 267.479 943.223 273.628C990.281 281.997 1038.16 285.324 1084.74 294.354C1130.9 303.344 1177.44 321.022 1199.15 345.517C1229.28 379.291 1218.73 413.073 1202.11 445.394C1190.49 468.478 1174.92 492.952 1150.73 513.25C1116.5 541.951 1065.68 573.131 1009.18 587.171C979.843 594.441 947.885 599.872 914.893 602.202C877.616 604.83 838.617 604.999 799.951 600.961C757.69 596.58 716.874 587.393 676.804 576.865C643.826 568.248 610.352 557.818 576.243 547.328C539.428 536.05 503.815 528.418 467.183 517.511C428.479 505.876 401.916 488.865 383.188 469.775C361.298 447.558 345.945 423.492 337.241 396.175C327.673 366.303 329.375 342.097 347.645 323.884C376.529 295.381 447.83 282.751 511.2 273.427Z" fill="white" stroke="#231F20" stroke-miterlimit="10"/>
        <path d="M518.053 275.669C591.978 264.879 654.79 238.373 733.946 239.559C769.478 240.119 804.301 246.969 839.449 255.087C873.131 262.888 906.702 272.091 941.171 278.024C987.806 286.353 1035.32 288.938 1081.51 297.578C1127.27 306.176 1173.83 323.504 1194.91 347.939C1222.8 380.44 1210.26 412.442 1192.71 443.085C1180.6 464.181 1165.21 486.377 1142.22 505.023C1109.44 531.566 1062.05 559.718 1009.43 573.245C980.515 580.555 949.191 586.046 916.819 588.612C880.163 591.476 841.813 591.53 803.583 587.357C761.97 582.862 721.803 573.56 682.353 563.267C650.827 555.142 618.58 545.359 585.699 535.515C550.308 525.079 515.766 517.373 480.812 506.802C444.194 495.719 417.746 479.955 398.498 462.052C376.074 441.197 359.976 418.473 350.752 392.342C340.692 363.306 342.733 340.192 360.498 322.99C388.609 296.179 456.43 284.454 518.053 275.669Z" fill="white" stroke="#231F20" stroke-miterlimit="10"/>
        <path d="M524.906 277.911C596.436 267.776 657.248 242.315 734.036 243.805C769.344 244.521 803.743 251.331 838.454 259.583C871.7 267.519 905.059 276.702 939.105 282.595C985.331 290.708 1032.47 292.728 1078.26 300.976C1123.85 309.029 1170.42 326.181 1190.65 350.535C1216.32 381.588 1201.97 412.182 1183.08 440.931C1170.49 460.039 1155.27 480.132 1133.48 496.951C1102.16 521.336 1058.41 546.481 1009.47 559.298C981.174 566.844 950.272 572.375 918.324 574.982C882.091 577.886 844.374 578 806.779 573.888C765.814 569.278 726.281 560.036 687.466 549.804C657.406 541.995 626.175 532.838 594.521 523.641C560.78 513.892 527.295 506.287 494.005 496.228C459.262 485.677 433.14 471.18 413.358 454.638C390.386 435.321 373.346 413.743 364.025 388.839C353.261 360.619 355.84 338.792 373.098 322.601C400.675 297.152 465.016 286.331 524.906 277.911Z" fill="white" stroke="#231F20" stroke-miterlimit="10"/>
        <path d="M531.97 280.174C600.894 270.672 660.128 246.298 734.352 247.897C769.448 248.592 803.397 255.712 837.671 264.099C870.691 272.19 903.416 281.313 937.265 287.01C983.082 294.908 1029.82 296.537 1075.44 304.239C1120.85 311.921 1167.47 328.548 1186.84 352.997C1210.49 382.621 1194.12 411.787 1173.89 438.643C1161.03 455.782 1145.77 473.576 1125.19 488.743C1095.31 510.971 1054.98 533.263 1009.93 545.392C982.058 552.978 951.79 558.57 920.251 561.391C884.638 564.531 847.57 564.531 810.623 560.304C770.292 555.754 731.421 546.223 693.24 536.051C664.647 528.558 634.629 520.223 603.99 511.653C571.688 502.571 539.458 495.261 507.634 485.519C474.767 475.5 448.97 462.27 428.88 446.935C405.163 428.959 387.575 408.918 377.747 385.025C366.492 357.642 369.396 337.081 386.162 321.727C412.544 297.93 473.827 288.054 531.97 280.174Z" fill="white" stroke="#231F20" stroke-miterlimit="10"/>
        <path d="M538.838 282.241C605.366 273.394 662.601 250.065 734.456 251.968C769.327 252.819 803.051 260.094 836.691 268.421C869.288 276.471 901.788 285.749 935.439 291.251C980.847 298.933 1027.21 299.996 1072.43 307.307C1117.65 314.619 1164.31 330.72 1182.84 355.088C1204.26 383.264 1186.28 411.217 1164.51 435.983C1151.17 451.134 1135.87 466.805 1116.69 480.34C1088.05 500.391 1051.58 519.695 1010.4 531.31C983.167 538.957 953.52 544.784 922.404 547.646C887.425 550.847 850.78 550.886 814.481 546.544C774.799 541.88 736.576 532.234 699.016 522.297C671.888 515.121 642.886 507.413 613.461 499.665C582.583 491.425 551.636 484.061 521.475 474.83C490.695 465.363 465.013 453.38 444.388 439.407C420.124 422.968 401.593 404.073 391.655 381.583C379.907 355.035 383.151 335.567 399.397 321.399C424.624 298.728 482.428 289.756 538.838 282.241Z" fill="white" stroke="#231F20" stroke-miterlimit="10"/>
        <path d="M545.69 284.483C609.612 276.271 665.269 254.028 734.56 256.039C769.192 257.221 802.492 264.455 835.696 272.917C867.856 281.103 900.159 290.185 933.372 295.822C978.16 303.269 1024.33 303.96 1069.18 310.706C1114.01 317.627 1161.12 333.417 1178.58 357.685C1197.97 384.607 1178.19 411.152 1154.88 433.83C1141.27 447.012 1125.94 460.385 1107.95 472.268C1080.78 489.985 1047.73 506.437 1010.43 517.539C983.811 525.421 954.587 531.289 923.893 534.191C889.55 537.452 853.538 537.552 817.676 533.075C778.643 528.296 741.068 518.535 704.128 508.835C678.467 501.975 650.677 495.088 622.281 487.791C592.842 480.218 562.952 472.955 534.667 464.256C505.762 455.321 480.195 444.585 459.262 431.818C434.252 416.721 415.187 399.188 404.729 377.884C392.264 352.328 396.059 333.971 411.813 320.64C436.69 299.701 491.239 291.479 545.69 284.483Z" fill="white" stroke="#231F20" stroke-miterlimit="10"/>
        <path d="M734.65 260.286C802.208 262.662 864.428 289.429 931.307 300.393C975.686 307.624 1021.48 307.75 1066.14 314.125C1110.8 320.499 1157.94 335.94 1174.54 360.302C1191.7 385.776 1170.3 411.283 1145.46 431.696C1109.94 460.626 1065.92 486.627 1010.67 503.612C955.433 520.598 887.747 527.922 821.295 519.647C782.909 514.753 745.969 505.052 709.677 495.237C605.355 467.46 455.487 444.526 418.227 374.226C384.513 310.268 466.708 297.264 552.529 286.901C614.056 279.343 667.727 257.97 734.65 260.286Z" stroke="#231F20" stroke-miterlimit="10"/>
    </g>
</svg>
