<svg width="34" height="36" viewBox="0 0 34 36" fill="none" xmlns="http://www.w3.org/2000/svg">
    <path d="M1.10058 11.5488C0.72266 11.5488 0.41626 11.8552 0.41626 12.2331C0.41626 12.6111 0.72266 12.9173 1.10058 12.9173C1.4785 12.9173 1.78474 12.6109 1.78474 12.2331C1.78474 11.8554 1.4785 11.5488 1.10058 11.5488Z" fill="black"/>
    <path d="M2.28004 2C1.045 2 0.0400391 3.00496 0.0400391 4.24C0.0400391 5.47504 1.045 6.48 2.28004 6.48C3.51508 6.48 4.52004 5.47504 4.52004 4.24C4.52004 3.00496 3.51508 2 2.28004 2ZM2.28004 5.2C1.7506 5.2 1.32004 4.76944 1.32004 4.24C1.32004 3.71056 1.7506 3.28 2.28004 3.28C2.80948 3.28 3.24004 3.71056 3.24004 4.24C3.24004 4.76944 2.80948 5.2 2.28004 5.2Z" fill="black"/>
    <path d="M32.411 9.04002H30.7598V7.76002C30.7598 7.40658 30.4733 7.12002 30.1198 7.12002H28.1998V5.20002C28.1998 2.37682 25.903 0.0800171 23.0798 0.0800171H11.2398C8.59294 0.0800171 6.43982 2.23314 6.43982 4.88002C6.43982 6.37154 6.88574 7.76098 7.65134 8.92162C6.8907 9.93682 6.43982 11.1968 6.43982 12.56V13.84C6.43982 15.3315 6.88574 16.721 7.65134 17.8816C6.8907 18.8968 6.43982 20.1568 6.43982 21.52V22.16C6.43982 23.6515 6.88574 25.041 7.65134 26.2016C6.8907 27.2168 6.43982 28.4768 6.43982 29.84C6.43982 33.1925 9.16734 35.92 12.5198 35.92H23.0798C25.6857 35.92 27.8389 33.9616 28.1553 31.44H32.411C33.2651 31.44 33.9598 30.7453 33.9598 29.8912V10.5888C33.9598 9.73474 33.2651 9.04002 32.411 9.04002ZM32.6798 10.5888V18H22.4398V10.5888C22.4398 10.4407 22.5605 10.32 22.7086 10.32H32.4112C32.5592 10.32 32.6798 10.4407 32.6798 10.5888ZM22.4398 19.28H32.6798V21.2H22.4398V19.28ZM29.4798 9.04002H25.6398V8.40002H29.4798V9.04002ZM23.0798 34.64H12.5198C9.87294 34.64 7.71982 32.4869 7.71982 29.84C7.71982 28.8847 8.00046 27.9935 8.4835 27.2447C9.82414 28.6459 11.712 29.52 13.7998 29.52C15.388 29.52 16.6798 28.2282 16.6798 26.64C16.6798 25.0519 15.388 23.76 13.7998 23.76H12.5198C11.0067 23.76 9.62078 24.3157 8.5555 25.2338C8.02446 24.3312 7.71982 23.2807 7.71982 22.16V21.52C7.71982 20.5647 8.00046 19.6735 8.4835 18.9247C9.82414 20.3259 11.712 21.2 13.7998 21.2C15.388 21.2 16.6798 19.9082 16.6798 18.32C16.6798 16.7319 15.388 15.44 13.7998 15.44H12.5198C11.0067 15.44 9.62078 15.9957 8.5555 16.9138C8.02446 16.0112 7.71982 14.9607 7.71982 13.84V12.56C7.71982 11.6047 8.00046 10.7135 8.4835 9.96466C9.82414 11.3659 11.712 12.24 13.7998 12.24C15.388 12.24 16.6798 10.9482 16.6798 9.36002C16.6798 7.77186 15.388 6.48002 13.7998 6.48002H12.5198C11.0067 6.48002 9.62078 7.0357 8.5555 7.95378C8.02446 7.05122 7.71982 6.00066 7.71982 4.88002C7.71982 2.93906 9.29886 1.36002 11.2398 1.36002H23.0798C25.1973 1.36002 26.9198 3.08258 26.9198 5.20002V7.12002H24.9998C24.6464 7.12002 24.3598 7.40658 24.3598 7.76002V9.04002H22.7086C21.8545 9.04002 21.1598 9.73474 21.1598 10.5888V29.8912C21.1598 30.7453 21.8545 31.44 22.7086 31.44H26.8621C26.5558 33.2533 24.9789 34.64 23.0798 34.64ZM9.31918 26.2656C10.1691 25.5037 11.2913 25.04 12.5198 25.04H13.7998C14.6821 25.04 15.3998 25.7578 15.3998 26.64C15.3998 27.5223 14.6821 28.24 13.7998 28.24C12.0283 28.24 10.4313 27.4784 9.31918 26.2656ZM9.31918 17.9456C10.1691 17.1837 11.2913 16.72 12.5198 16.72H13.7998C14.6821 16.72 15.3998 17.4378 15.3998 18.32C15.3998 19.2023 14.6821 19.92 13.7998 19.92C12.0283 19.92 10.4313 19.1584 9.31918 17.9456ZM9.31918 8.98562C10.1693 8.2237 11.2913 7.76002 12.5198 7.76002H13.7998C14.6821 7.76002 15.3998 8.47778 15.3998 9.36002C15.3998 10.2423 14.6821 10.96 13.7998 10.96C12.0283 10.96 10.4313 10.1984 9.31918 8.98562ZM32.411 30.16H22.7086C22.5605 30.16 22.4398 30.0394 22.4398 29.8912V22.48H32.6798V29.8912C32.6798 30.0394 32.5592 30.16 32.411 30.16Z" fill="black"/>
    <path d="M26.2801 15.44H26.9201V16.08C26.9201 16.4334 27.2067 16.72 27.5601 16.72C27.9136 16.72 28.2001 16.4334 28.2001 16.08V15.44H28.8401C29.1936 15.44 29.4801 15.1534 29.4801 14.8C29.4801 14.4466 29.1936 14.16 28.8401 14.16H28.2001V13.52C28.2001 13.1666 27.9136 12.88 27.5601 12.88C27.2067 12.88 26.9201 13.1666 26.9201 13.52V14.16H26.2801C25.9267 14.16 25.6401 14.4466 25.6401 14.8C25.6401 15.1534 25.9267 15.44 26.2801 15.44Z" fill="black"/>
    <path d="M28.8401 25.68H26.2801C25.9267 25.68 25.6401 25.9666 25.6401 26.32C25.6401 26.6734 25.9267 26.96 26.2801 26.96H28.8401C29.1936 26.96 29.4801 26.6734 29.4801 26.32C29.4801 25.9666 29.1936 25.68 28.8401 25.68Z" fill="black"/>
</svg>
