<svg width="36" height="32" viewBox="0 0 36 32" fill="none" xmlns="http://www.w3.org/2000/svg">
    <path d="M34.6401 27.1456H33.3601V19.9248C33.8231 19.5248 34.1622 18.9772 34.3054 18.3224C34.3807 17.9772 34.1622 17.6359 33.8169 17.5602C33.6532 17.5244 33.4934 17.5586 33.3601 17.6364V16.0848C33.8231 15.6848 34.1622 15.1372 34.3054 14.4824C34.3807 14.1372 34.1622 13.7959 33.8169 13.7202C33.6532 13.6852 33.4934 13.7192 33.3601 13.7968V6.98563C33.3601 6.62755 33.2377 6.30003 33.0382 6.03315C33.9835 5.56019 34.6401 4.59251 34.6401 3.46563C34.6401 1.87747 33.3482 0.585632 31.7601 0.585632C30.1719 0.585632 28.8801 1.87747 28.8801 3.46563C28.8801 4.59251 29.5367 5.56019 30.482 6.03315C30.2825 6.30003 30.1601 6.62755 30.1601 6.98563V14.9133C30.0103 14.7284 29.889 14.5002 29.8254 14.2088C29.5235 12.8295 28.3719 11.9026 26.9601 11.9026C25.5483 11.9026 24.3967 12.8295 24.0948 14.2088C23.885 15.1682 23.0939 15.5088 22.4801 15.5088C21.8663 15.5088 21.0751 15.1682 20.8654 14.2088C20.5635 12.8295 19.4119 11.9026 18.0001 11.9026C16.5883 11.9026 15.4367 12.8295 15.1348 14.2088C14.9251 15.1682 14.1339 15.5088 13.5201 15.5088C12.9063 15.5088 12.1151 15.1682 11.9054 14.2088C11.6035 12.8295 10.4519 11.9026 9.04009 11.9026C7.62825 11.9026 6.47673 12.8295 6.17481 14.2088C6.11113 14.5002 5.98985 14.7284 5.84009 14.9133V6.98563C5.84009 6.62755 5.71769 6.30003 5.51817 6.03315C6.46345 5.56019 7.12009 4.59251 7.12009 3.46563C7.12009 1.87747 5.82825 0.585632 4.24009 0.585632C2.65193 0.585632 1.36009 1.87747 1.36009 3.46563C1.36009 4.59251 2.01673 5.56019 2.96201 6.03315C2.76249 6.30003 2.64009 6.62755 2.64009 6.98563V13.7965C2.50649 13.7186 2.34649 13.6844 2.18329 13.7202C1.83801 13.7959 1.61961 14.137 1.69481 14.4824C1.83801 15.137 2.17705 15.6847 2.64009 16.0848V17.6373C2.50649 17.5596 2.34649 17.5255 2.18329 17.5604C1.83801 17.636 1.61961 17.9772 1.69481 18.3226C1.83801 18.9772 2.17705 19.5248 2.64009 19.925V27.1458H1.36009C1.00665 27.1458 0.720093 27.4324 0.720093 27.7858V30.9858C0.720093 31.3392 1.00665 31.6258 1.36009 31.6258H34.6401C34.9935 31.6258 35.2801 31.3392 35.2801 30.9858V27.7858C35.2801 27.4322 34.9935 27.1456 34.6401 27.1456ZM32.0801 27.1456H31.4401V20.6288C31.6617 20.6288 31.8735 20.5984 32.0801 20.5546V27.1456ZM4.56009 15.5088C4.35673 15.5088 4.13481 15.4669 3.92009 15.3821V6.98563C3.92009 6.80899 4.06345 6.66563 4.24009 6.66563C4.41673 6.66563 4.56009 6.80899 4.56009 6.98563V15.5088ZM5.84009 27.1456V20.3376C6.63129 19.9632 7.22265 19.2493 7.42537 18.3226C7.63513 17.3632 8.42633 17.0226 9.04009 17.0226C9.65385 17.0226 10.4451 17.3632 10.6548 18.3226C10.9567 19.702 12.1083 20.6288 13.5201 20.6288C14.9319 20.6288 16.0835 19.702 16.3854 18.3226C16.5951 17.3632 17.3863 17.0226 18.0001 17.0226C18.6139 17.0226 19.4051 17.3632 19.6148 18.3226C19.9167 19.702 21.0683 20.6288 22.4801 20.6288C23.8919 20.6288 25.0435 19.702 25.3454 18.3226C25.5551 17.3632 26.3463 17.0226 26.9601 17.0226C27.5738 17.0226 28.365 17.3632 28.5748 18.3226C28.7777 19.2493 29.3689 19.9634 30.1601 20.3376V27.1456H5.84009ZM32.0801 19.222C31.8654 19.3068 31.6434 19.3487 31.4401 19.3487V16.7887C31.6617 16.7887 31.8735 16.7583 32.0801 16.7144V19.222ZM32.0801 15.382C31.8654 15.4668 31.6434 15.5087 31.4401 15.5087V6.98547C31.4401 6.80883 31.5834 6.66547 31.7601 6.66547C31.9367 6.66547 32.0801 6.80883 32.0801 6.98547V15.382ZM31.7601 1.86563C32.6423 1.86563 33.3601 2.58339 33.3601 3.46563C33.3601 4.34787 32.6423 5.06563 31.7601 5.06563C30.8778 5.06563 30.1601 4.34787 30.1601 3.46563C30.1601 2.58339 30.8778 1.86563 31.7601 1.86563ZM7.42537 14.4826C7.63513 13.5232 8.42633 13.1826 9.04009 13.1826C9.65385 13.1826 10.4451 13.5232 10.6548 14.4826C10.9567 15.862 12.1083 16.7888 13.5201 16.7888C14.9319 16.7888 16.0835 15.862 16.3854 14.4826C16.5951 13.5232 17.3863 13.1826 18.0001 13.1826C18.6139 13.1826 19.4051 13.5232 19.6148 14.4826C19.9167 15.862 21.0683 16.7888 22.4801 16.7888C23.8919 16.7888 25.0435 15.862 25.3454 14.4826C25.5551 13.5232 26.3463 13.1826 26.9601 13.1826C27.5738 13.1826 28.365 13.5232 28.5748 14.4826C28.7777 15.4093 29.3689 16.1234 30.1601 16.4976V18.7533C30.0103 18.5684 29.889 18.3402 29.8254 18.0488C29.5235 16.6695 28.3719 15.7426 26.9601 15.7426C25.5483 15.7426 24.3967 16.6695 24.0948 18.0488C23.885 19.0082 23.0939 19.3488 22.4801 19.3488C21.8663 19.3488 21.0751 19.0082 20.8654 18.0488C20.5635 16.6695 19.4119 15.7426 18.0001 15.7426C16.5883 15.7426 15.4367 16.6695 15.1348 18.0488C14.9251 19.0082 14.1339 19.3488 13.5201 19.3488C12.9063 19.3488 12.1151 19.0082 11.9054 18.0488C11.6035 16.6695 10.4519 15.7426 9.04009 15.7426C7.62825 15.7426 6.47673 16.6695 6.17481 18.0488C6.11113 18.3402 5.98985 18.5684 5.84009 18.7533V16.4976C6.63129 16.1232 7.22265 15.4093 7.42537 14.4826ZM4.24009 1.86563C5.12233 1.86563 5.84009 2.58339 5.84009 3.46563C5.84009 4.34787 5.12233 5.06563 4.24009 5.06563C3.35785 5.06563 2.64009 4.34787 2.64009 3.46563C2.64009 2.58339 3.35785 1.86563 4.24009 1.86563ZM4.56009 16.7888V19.3488C4.35673 19.3488 4.13481 19.3069 3.92009 19.2221V16.7148C4.12665 16.7584 4.33849 16.7888 4.56009 16.7888ZM3.92009 20.5546C4.12665 20.5984 4.33849 20.6288 4.56009 20.6288V27.1456H3.92009V20.5546ZM34.0001 30.3456H2.00009V28.4256H34.0001V30.3456Z" fill="black"/>
</svg>
