<svg width="40" height="34" viewBox="0 0 40 34" fill="none" xmlns="http://www.w3.org/2000/svg">
    <path d="M32.4799 4.52004C33.7149 4.52004 34.7199 3.51508 34.7199 2.28004C34.7199 1.045 33.7149 0.0400391 32.4799 0.0400391C31.2448 0.0400391 30.2399 1.045 30.2399 2.28004C30.2399 3.51508 31.2448 4.52004 32.4799 4.52004ZM32.4799 1.32004C33.0093 1.32004 33.4399 1.7506 33.4399 2.28004C33.4399 2.80948 33.0093 3.24004 32.4799 3.24004C31.9504 3.24004 31.5199 2.80948 31.5199 2.28004C31.5199 1.7506 31.9504 1.32004 32.4799 1.32004Z" fill="black"/>
    <path d="M31.9405 30.7089C31.5626 30.7089 31.2562 31.0153 31.2562 31.3932C31.2562 31.7711 31.5626 32.0773 31.9405 32.0773C32.3185 32.0773 32.6247 31.7709 32.6247 31.3932C32.6247 31.0154 32.3185 30.7089 31.9405 30.7089Z" fill="black"/>
    <path d="M37.7324 25.8276C37.4824 25.5777 37.0773 25.5777 36.8274 25.8276L36.3199 26.3351L35.8124 25.8276C35.5624 25.5777 35.1573 25.5777 34.9074 25.8276C34.6575 26.0775 34.6575 26.4826 34.9074 26.7325L35.4149 27.2401L34.9074 27.7476C34.6575 27.9975 34.6575 28.4026 34.9074 28.6525C35.0324 28.7775 35.1962 28.8401 35.3599 28.8401C35.5236 28.8401 35.6874 28.7775 35.8124 28.6525L36.3199 28.145L36.8274 28.6525C36.9524 28.7775 37.1162 28.8401 37.2799 28.8401C37.4436 28.8401 37.6074 28.7775 37.7324 28.6525C37.9823 28.4026 37.9823 27.9975 37.7324 27.7476L37.2248 27.2401L37.7324 26.7325C37.9824 26.4826 37.9824 26.0775 37.7324 25.8276Z" fill="black"/>
    <path d="M13.3807 1.99732C13.7587 1.99732 14.0649 1.69092 14.0649 1.31316C14.0649 0.935405 13.7585 0.628845 13.3807 0.628845C13.003 0.628845 12.6964 0.935245 12.6964 1.31316C12.6964 1.69108 13.0028 1.99732 13.3807 1.99732Z" fill="black"/>
    <path d="M23.84 12.2C23.84 10.0826 22.1174 8.36005 20 8.36005C19.6462 8.36005 19.36 8.64661 19.36 9.00005C19.36 9.35349 19.6462 9.64005 20 9.64005C21.4118 9.64005 22.56 10.7885 22.56 12.2C22.56 12.5535 22.8462 12.84 23.2 12.84C23.5537 12.84 23.84 12.5535 23.84 12.2Z" fill="black"/>
    <path d="M39.6524 7.90755L37.7324 5.98755C37.4825 5.73763 37.0774 5.73763 36.8275 5.98755C36.5776 6.23747 36.5776 6.64259 36.8275 6.89251L37.655 7.72003H33.6576C31.7731 7.72003 30.24 9.25283 30.24 11.1372C30.24 14.1935 27.7537 16.68 24.6974 16.68H23.6123C24.9203 15.6232 25.7598 14.0087 25.7598 12.2C25.7598 9.02403 23.1761 6.44003 19.9998 6.44003C16.8235 6.44003 14.2398 9.02403 14.2398 12.2C14.2398 14.0087 15.0793 15.6232 16.3873 16.68H15.3022C12.2462 16.68 9.75995 14.1935 9.75995 11.1372C9.75995 9.25283 8.22683 7.72003 6.34251 7.72003H2.34491L3.17243 6.89251C3.42235 6.64259 3.42235 6.23747 3.17243 5.98755C2.92251 5.73763 2.51739 5.73763 2.26747 5.98755L0.347474 7.90755C0.0975542 8.15747 0.0975542 8.56259 0.347474 8.81251L2.26747 10.7325C2.39243 10.8575 2.55627 10.92 2.71995 10.92C2.88363 10.92 3.04747 10.8575 3.17243 10.7325C3.42235 10.4826 3.42235 10.0775 3.17243 9.82755L2.34491 9.00003H6.34235C7.52123 9.00003 8.47995 9.95875 8.47995 11.1372C8.47995 14.8994 11.5406 17.96 15.3025 17.96H24.6976C28.4593 17.96 31.52 14.8994 31.52 11.1372C31.52 9.95875 32.4787 9.00003 33.6574 9.00003H37.6548L36.8273 9.82755C36.5774 10.0775 36.5774 10.4826 36.8273 10.7325C36.9523 10.8575 37.1161 10.92 37.2798 10.92C37.4435 10.92 37.6073 10.8575 37.7323 10.7325L39.6523 8.81251C39.9025 8.56259 39.9025 8.15747 39.6524 7.90755ZM15.52 12.2C15.52 9.72979 17.5299 7.72003 20 7.72003C22.47 7.72003 24.48 9.72979 24.48 12.2C24.48 14.6703 22.47 16.68 20 16.68C17.5299 16.68 15.52 14.6703 15.52 12.2Z" fill="black"/>
    <path d="M24.6675 30.9476L23.8399 31.7751V19.8801C23.8399 19.5266 23.5537 19.2401 23.1999 19.2401C22.8462 19.2401 22.5599 19.5266 22.5599 19.8801V31.7751L21.7324 30.9476C21.4825 30.6977 21.0774 30.6977 20.8275 30.9476C20.5775 31.1975 20.5775 31.6026 20.8275 31.8525L22.7475 33.7725C22.8724 33.8975 23.0363 33.9601 23.1999 33.9601C23.3636 33.9601 23.5275 33.8975 23.6524 33.7725L25.5724 31.8525C25.8223 31.6026 25.8223 31.1975 25.5724 30.9476C25.3225 30.6977 24.9174 30.6975 24.6675 30.9476Z" fill="black"/>
    <path d="M18.2676 30.9476L17.44 31.7751V19.8801C17.44 19.5266 17.1538 19.2401 16.8 19.2401C16.4463 19.2401 16.16 19.5266 16.16 19.8801V31.7751L15.3325 30.9476C15.0826 30.6977 14.6775 30.6977 14.4276 30.9476C14.1776 31.1975 14.1776 31.6026 14.4276 31.8525L16.3476 33.7725C16.4725 33.8975 16.6364 33.9601 16.8 33.9601C16.9637 33.9601 17.1276 33.8975 17.2525 33.7725L19.1725 31.8525C19.4224 31.6026 19.4224 31.1975 19.1725 30.9476C18.9226 30.6977 18.5175 30.6975 18.2676 30.9476Z" fill="black"/>
</svg>
