<svg width="34" height="36" viewBox="0 0 34 36" fill="none" xmlns="http://www.w3.org/2000/svg">
    <path d="M32.6799 17.36H25.5633L29.9419 5.73938C30.0668 5.40882 29.8993 5.03938 29.5687 4.91506C29.2369 4.7901 28.8681 4.95762 28.7444 5.28818L24.1958 17.36H14.218L13.6371 13.2943C14.6718 12.8571 15.3999 11.8322 15.3999 10.64C15.3999 9.1653 14.2819 7.96018 12.8513 7.79346L12.8111 7.51314C12.5387 5.60562 11.1249 4.23634 9.20921 4.02434C7.28857 3.81378 5.61417 4.84114 4.93241 6.64434L1.95993 14.5V0.720017C1.95993 0.366257 1.67369 0.0800171 1.31993 0.0800171C0.966172 0.0800171 0.679932 0.366257 0.679932 0.720017V35.28C0.679932 35.6338 0.966172 35.92 1.31993 35.92C1.67369 35.92 1.95993 35.6338 1.95993 35.28V18.64H13.1075L14.1431 25.8888C14.4163 27.7983 15.8313 29.1675 17.7481 29.3783C17.9137 29.3963 18.0769 29.4051 18.238 29.4051C19.9468 29.4051 21.4023 28.4026 22.0236 26.7533L22.4403 25.6479C22.5467 25.6599 22.6505 25.6802 22.7599 25.6802C24.3481 25.6802 25.6399 24.3883 25.6399 22.8002C25.6399 21.8232 25.1486 20.9615 24.4027 20.4403L25.0811 18.6402H32.6799C33.0337 18.6402 33.3199 18.3539 33.3199 18.0002C33.3199 17.6464 33.0337 17.36 32.6799 17.36ZM14.1199 10.64C14.1199 11.5226 13.4025 12.24 12.5199 12.24C11.6374 12.24 10.9199 11.5226 10.9199 10.64C10.9199 9.75746 11.6374 9.04002 12.5199 9.04002C13.4025 9.04002 14.1199 9.75746 14.1199 10.64ZM2.24649 17.36L6.13001 7.09682C6.69945 5.5925 8.07001 5.18738 9.06873 5.29682C10.0687 5.40738 11.3163 6.10114 11.5438 7.69426L11.5777 7.93122C10.4535 8.32402 9.63993 9.3837 9.63993 10.64C9.63993 12.1781 10.8548 13.4274 12.3739 13.5053L12.9246 17.36H2.24649ZM22.7599 24.4C21.8774 24.4 21.1599 23.6826 21.1599 22.8C21.1599 21.9175 21.8774 21.2 22.7599 21.2C23.6425 21.2 24.3599 21.9175 24.3599 22.8C24.3599 23.6826 23.6425 24.4 22.7599 24.4ZM23.2139 19.9659C23.0651 19.9421 22.9153 19.92 22.7599 19.92C21.1718 19.92 19.8799 21.2119 19.8799 22.8C19.8799 23.8247 20.4217 24.72 21.2299 25.2306L20.8262 26.3019C20.258 27.8082 18.8887 28.2183 17.8881 28.1056C16.8875 27.9962 15.6382 27.3019 15.4107 25.7075L14.4009 18.64H23.7135L23.2139 19.9659Z" fill="black"/>
</svg>
