<svg width="34" height="34" viewBox="0 0 34 34" fill="none" xmlns="http://www.w3.org/2000/svg">
    <path d="M9.95995 4.19997H13.535L12.0675 5.66749C11.8175 5.91741 11.8175 6.32253 12.0675 6.57245C12.1924 6.69741 12.3563 6.75997 12.5199 6.75997C12.6836 6.75997 12.8475 6.69741 12.9724 6.57245L15.5324 4.01245C15.7823 3.76253 15.7823 3.35741 15.5324 3.10749L12.9724 0.547486C12.7225 0.297566 12.3174 0.297566 12.0675 0.547486C11.8175 0.797407 11.8175 1.20253 12.0675 1.45245L13.535 2.91997H9.95995C9.60619 2.91997 9.31995 3.20621 9.31995 3.55997C9.31995 3.91373 9.60619 4.19997 9.95995 4.19997Z" fill="black"/>
    <path d="M21.0275 6.57245C21.1524 6.69741 21.3163 6.75997 21.48 6.75997C21.6436 6.75997 21.8075 6.69741 21.9324 6.57245C22.1824 6.32253 22.1824 5.91741 21.9324 5.66749L20.4649 4.19997H24.04C24.3937 4.19997 24.68 3.91373 24.68 3.55997C24.68 3.20621 24.3937 2.91997 24.04 2.91997H20.4649L21.9324 1.45245C22.1824 1.20253 22.1824 0.797407 21.9324 0.547486C21.6825 0.297566 21.2774 0.297566 21.0275 0.547486L18.4675 3.10749C18.2175 3.35741 18.2175 3.76253 18.4675 4.01245L21.0275 6.57245Z" fill="black"/>
    <path d="M24.8351 14.4593C24.4919 14.3711 24.1451 14.5818 24.0594 14.9249L22.76 20.1212L21.4607 14.9249C21.3895 14.6399 21.1338 14.4399 20.84 14.4399C20.5463 14.4399 20.2906 14.6399 20.2194 14.9249L18.92 20.1212L17.6207 14.9249C17.5495 14.6399 17.2938 14.4399 17 14.4399C16.7063 14.4399 16.4506 14.6399 16.3794 14.9249L15.08 20.1212L13.7807 14.9249C13.7095 14.6399 13.4538 14.4399 13.16 14.4399C12.8663 14.4399 12.6106 14.6399 12.5394 14.9249L11.24 20.1212L9.94066 14.9249C9.85506 14.5817 9.50754 14.3718 9.16498 14.4593C8.82178 14.5449 8.61314 14.8924 8.69938 15.235L10.6194 22.915C10.6906 23.1999 10.9463 23.3999 11.24 23.3999C11.5338 23.3999 11.7895 23.1999 11.8607 22.915L13.16 17.7186L14.4594 22.915C14.5306 23.1999 14.7863 23.3999 15.08 23.3999C15.3738 23.3999 15.6295 23.1999 15.7007 22.915L17 17.7186L18.2994 22.915C18.3706 23.1999 18.6263 23.3999 18.92 23.3999C19.2138 23.3999 19.4695 23.1999 19.5407 22.915L20.84 17.7186L22.1394 22.915C22.2106 23.1999 22.4663 23.3999 22.76 23.3999C23.0538 23.3999 23.3095 23.1999 23.3807 22.915L25.3007 15.235C25.3869 14.8924 25.1781 14.5449 24.8351 14.4593Z" fill="black"/>
    <path d="M6.13871 7.3999H2.26127C1.21311 7.3999 0.359985 8.25302 0.359985 9.30118V27.2586C0.359985 28.3068 1.21311 29.1599 2.26127 29.1599H6.13871C7.18687 29.1599 8.03999 28.3068 8.03999 27.2586V9.30118C8.03999 8.25302 7.18687 7.3999 6.13871 7.3999ZM6.75999 27.2586C6.75999 27.6012 6.48127 27.8799 6.13871 27.8799H2.26127C1.91871 27.8799 1.63999 27.6012 1.63999 27.2586V9.30118C1.63999 8.95862 1.91871 8.6799 2.26127 8.6799H6.13871C6.48127 8.6799 6.75999 8.95862 6.75999 9.30118V27.2586Z" fill="black"/>
    <path d="M5.48015 10.5999H4.84015V9.95995C4.84015 9.60619 4.55391 9.31995 4.20015 9.31995C3.84639 9.31995 3.56015 9.60619 3.56015 9.95995V10.5999H2.92015C2.56639 10.5999 2.28015 10.8862 2.28015 11.2399C2.28015 11.5937 2.56639 11.8799 2.92015 11.8799H3.56015V12.5199C3.56015 12.8737 3.84639 13.1599 4.20015 13.1599C4.55391 13.1599 4.84015 12.8737 4.84015 12.5199V11.8799H5.48015C5.83391 11.8799 6.12015 11.5937 6.12015 11.2399C6.12015 10.8862 5.83391 10.5999 5.48015 10.5999Z" fill="black"/>
    <path d="M31.7388 7.3999H27.8614C26.8132 7.3999 25.9601 8.25302 25.9601 9.30118V27.2586C25.9601 28.3068 26.8132 29.1599 27.8614 29.1599H31.7388C32.787 29.1599 33.6401 28.3068 33.6401 27.2586V9.30118C33.6401 8.25302 32.787 7.3999 31.7388 7.3999ZM32.3601 27.2586C32.3601 27.6012 32.0814 27.8799 31.7388 27.8799H27.8614C27.5188 27.8799 27.2401 27.6012 27.2401 27.2586V9.30118C27.2401 8.95862 27.5188 8.6799 27.8614 8.6799H31.7388C32.0814 8.6799 32.3601 8.95862 32.3601 9.30118V27.2586Z" fill="black"/>
    <path d="M31.0799 10.6H28.5199C28.1661 10.6 27.8799 10.8862 27.8799 11.24C27.8799 11.5937 28.1661 11.88 28.5199 11.88H31.0799C31.4336 11.88 31.7199 11.5937 31.7199 11.24C31.7199 10.8862 31.4336 10.6 31.0799 10.6Z" fill="black"/>
    <path d="M12.3008 26.5487C11.9229 26.5487 11.6165 26.8551 11.6165 27.233C11.6165 27.6109 11.9229 27.9172 12.3008 27.9172C12.6787 27.9172 12.9849 27.6108 12.9849 27.233C12.9849 26.8553 12.6787 26.5487 12.3008 26.5487Z" fill="black"/>
    <path d="M25.1007 29.7488C24.7228 29.7488 24.4164 30.0552 24.4164 30.4331C24.4164 30.811 24.7228 31.1173 25.1007 31.1173C25.4786 31.1173 25.7849 30.8109 25.7849 30.4331C25.7849 30.0553 25.4786 29.7488 25.1007 29.7488Z" fill="black"/>
    <path d="M21.9324 30.6275C21.6825 30.3776 21.2774 30.3776 21.0275 30.6275L20.52 31.135L20.0124 30.6275C19.7625 30.3776 19.3574 30.3776 19.1075 30.6275C18.8576 30.8774 18.8576 31.2825 19.1075 31.5325L19.615 32.04L19.1075 32.5475C18.8576 32.7974 18.8576 33.2025 19.1075 33.4525C19.2324 33.5774 19.3963 33.64 19.56 33.64C19.7236 33.64 19.8875 33.5774 20.0124 33.4525L20.52 32.9449L21.0275 33.4525C21.1524 33.5774 21.3163 33.64 21.48 33.64C21.6436 33.64 21.8075 33.5774 21.9324 33.4525C22.1824 33.2025 22.1824 32.7974 21.9324 32.5475L21.4249 32.04L21.9324 31.5325C22.1825 31.2825 22.1825 30.8774 21.9324 30.6275Z" fill="black"/>
</svg>
