<svg width="1440" height="858" viewBox="0 0 1440 858" fill="none" xmlns="http://www.w3.org/2000/svg">
<g clip-path="url(#clip0)">
<rect width="1440" height="858" fill="white"/>
<rect width="1440" height="862" fill="#EAEAEA"/>
<g opacity="0.16">
<path d="M729.477 307.28C774.237 304.305 821.707 304.767 873.483 310.054C1045.91 327.898 1217.65 394.768 1342.02 476.193C1458.29 552.256 1518.33 646.977 1532.68 742.994C1547.03 839.01 1516.1 936.364 1450.25 1017.5C1365.74 1121.75 1193.45 1263.73 1000.27 1292.82C952.838 1299.96 902.04 1298.47 852.102 1296.89C730.955 1293.29 604.665 1300.86 485.529 1271.85C401.09 1251.27 329.4 1214.94 254.403 1182.72C167.052 1145.09 88.8004 1135.16 -4.14476 1108.99C-110.837 1078.87 -146.829 1019.47 -149.045 953.212C-151.324 882.36 -142.805 812.362 -135.766 742.222C-129.882 683.98 -138.639 616.926 -101.232 564.16C-43.4264 482.435 143.606 439.513 270.8 412.432C435.067 377.229 562.867 318.244 729.477 307.28Z" fill="white" stroke="#231F20" stroke-miterlimit="10"/>
<path d="M277.667 414.499C439.298 380.281 565.338 322.011 729.58 311.351C774.115 308.531 821.149 309.129 872.488 314.551C918.752 319.489 964.965 327.778 1010.31 338.985C1072.58 354.279 1132.95 374.864 1189.4 399.139C1243.79 422.51 1294.27 449.57 1337.99 478.635C1451.79 553.579 1509.84 646.521 1523.48 740.705C1537.35 834.733 1506.61 929.808 1441.95 1009.29C1358.89 1111.39 1190.05 1250.16 1000.74 1278.74C953.947 1285.94 903.558 1284.67 854.042 1283.13C796.647 1281.54 738.213 1282.33 679.775 1280.47C616.023 1278.46 552.746 1273.13 491.077 1258.25C408.091 1238.16 337.416 1202.46 263.872 1170.73C177.959 1133.76 100.977 1123.96 9.69548 1098.3C-95.1218 1068.72 -130.787 1010.58 -133.537 945.683C-136.561 876.174 -128.365 807.557 -122.058 738.583C-116.863 680.982 -125.083 615.215 -88.3932 563.441C-31.5582 483.213 152.219 441.04 277.667 414.499Z" fill="white" stroke="#231F20" stroke-miterlimit="10"/>
<path d="M284.519 416.741C443.756 383.178 568.006 325.973 729.67 315.598C773.768 312.913 820.576 313.665 871.479 319.222C917.32 324.12 963.096 332.544 1008.23 343.732C1070.09 358.809 1130.08 378.829 1186.13 402.712C1240.13 425.693 1290.63 452.578 1333.72 481.407C1444.83 555.388 1500.9 646.376 1513.84 738.726C1526.59 830.706 1496.65 923.739 1433.2 1001.39C1351.59 1101.33 1186.2 1236.91 1000.75 1265.15C954.379 1272.38 904.624 1271.17 855.518 1269.85C798.757 1268.32 740.746 1269.15 682.956 1267.18C619.853 1265.05 557.224 1259.61 496.189 1244.79C414.669 1225.01 344.996 1190.12 272.679 1159.04C188.191 1122.91 112.477 1113.22 22.6758 1087.71C-80.2661 1058.65 -115.592 1001.61 -118.876 938.075C-122.434 869.927 -114.982 802.652 -108.984 734.885C-104.07 678.14 -112.175 613.62 -75.9776 562.681C-19.4927 484.186 161.03 442.763 284.519 416.741Z" fill="white" stroke="#231F20" stroke-miterlimit="10"/>
<path d="M291.373 418.983C448.003 386.055 570.479 329.741 729.987 319.689C773.873 316.984 820.443 318.067 870.711 323.564C916.327 328.617 961.68 337 1006.4 347.972C1067.65 362.814 1127.45 382.463 1183.12 405.78C1236.94 428.39 1287.25 454.905 1329.71 483.673C1438.14 556.516 1492.22 645.725 1504.45 736.242C1516.52 826.038 1486.96 916.988 1424.71 992.991C1344.56 1090.6 1182.62 1222.97 1001.23 1251.07C955.292 1258.17 906.144 1257.37 857.671 1256.1C801.531 1254.81 744.168 1255.53 686.815 1253.42C624.36 1251.17 562.365 1245.8 501.965 1231.04C421.911 1211.58 353.452 1177.5 282.15 1147.05C199.1 1111.59 124.444 1102 36.5176 1077.02C-64.5491 1048.5 -99.5492 992.715 -103.155 930.567C-107.458 863.761 -100.527 797.672 -95.2735 731.247C-90.6401 675.358 -98.6173 611.91 -62.9399 562.158C-7.6231 484.964 169.631 444.465 291.373 418.983Z" fill="white" stroke="#231F20" stroke-miterlimit="10"/>
<path d="M298.226 421.226C452.461 388.952 572.965 333.333 730.091 323.76C773.752 321.211 819.884 322.428 869.716 328.06C914.895 333.248 960.037 341.611 1004.35 352.368C1065.17 367.17 1124.61 386.077 1180.1 409.024C1233.73 431.263 1283.63 457.562 1325.7 485.939C1431.66 557.665 1483.75 645.094 1495.06 733.758C1506.23 821.525 1477.25 910.412 1416.21 984.588C1337.3 1080.02 1179.03 1209.03 1001.51 1236.79C956.203 1243.95 907.478 1243.19 859.414 1242.14C803.909 1240.91 746.968 1241.67 690.25 1239.62C628.443 1237.26 567.096 1231.77 507.317 1217.24C428.729 1198.1 361.285 1164.65 291.21 1134.84C209.797 1100.24 136.211 1090.58 49.7377 1066.1C-49.2284 1037.95 -84.1279 983.59 -88.254 922.628C-92.8931 857.379 -86.7071 792.632 -81.7481 727.238C-77.607 672.185 -85.2583 610.005 -50.0731 561.088C4.45689 485.762 178.428 446.363 298.226 421.226Z" fill="white" stroke="#231F20" stroke-miterlimit="10"/>
<path d="M305.078 423.468C456.706 391.828 575.647 337.12 730.18 328.007C773.63 325.437 819.312 326.965 868.72 332.556C913.477 337.704 958.182 346.202 1002.28 356.939C1062.7 371.525 1121.74 390.042 1176.85 412.422C1230.1 434.095 1280.01 460.219 1321.44 488.536C1424.93 559.143 1475.04 644.794 1485.43 731.604C1495.69 817.343 1467.32 903.991 1407.48 976.516C1330.01 1069.79 1175.19 1195.6 1001.53 1223.02C956.663 1230.04 908.544 1229.69 861.115 1228.71C806.033 1227.52 749.938 1228.35 693.868 1226.19C632.695 1223.89 572.011 1218.11 512.865 1203.64C435.744 1184.82 369.513 1152.19 300.454 1123.01C220.479 1089.08 148.162 1079.54 63.3523 1055.56C-33.7386 1027.95 -68.2984 974.679 -72.9721 915.255C-77.9336 851.388 -72.7042 787.963 -68.279 723.931C-64.6301 669.714 -71.9555 608.8 -37.2764 560.895C16.5222 486.735 187.028 448.065 305.078 423.468Z" fill="white" stroke="#231F20" stroke-miterlimit="10"/>
<path d="M311.93 425.71C461.163 394.726 578.118 340.887 730.284 332.078C773.508 329.664 818.767 331.151 867.725 337.053C912.256 342.356 956.538 350.814 1000.23 361.334C1060.24 375.705 1118.89 393.656 1173.82 415.666C1226.89 436.968 1276.6 462.896 1317.41 490.977C1418.21 560.622 1466.34 644.318 1476.03 729.296C1485.59 813.026 1457.6 897.591 1398.96 968.288C1322.95 1059.4 1171.37 1181.99 1001.78 1209.09C957.547 1216.18 909.851 1215.87 862.831 1215.1C808.368 1214.15 752.71 1214.85 697.288 1212.57C636.763 1210.15 576.714 1204.43 518.203 1190.03C442.547 1171.51 377.318 1139.69 309.486 1111.16C230.936 1078.07 159.902 1068.47 76.5443 1044.99C-18.6713 1017.9 -52.6938 965.925 -57.8875 907.687C-63.3827 845.182 -58.6871 783.118 -54.7819 720.273C-51.4137 666.912 -58.6108 607.07 -24.4377 560.176C28.3903 487.513 195.627 449.768 311.93 425.71Z" fill="white" stroke="#231F20" stroke-miterlimit="10"/>
<path d="M318.784 427.953C465.41 397.602 580.59 344.655 730.374 336.325C773.387 333.89 818.407 335.708 866.942 341.569C911.037 347.007 955.107 355.445 998.391 365.75C1057.99 379.905 1116.26 397.29 1170.79 418.909C1223.68 439.841 1273.21 465.398 1313.39 493.419C1411.72 561.945 1457.86 643.863 1466.62 726.987C1475.3 808.513 1447.9 891.016 1390.44 960.236C1315.87 1049.19 1167.74 1168.57 1002.24 1195.18C958.431 1202.31 911.355 1202.24 864.758 1201.51C810.93 1200.62 755.906 1201.38 700.907 1199.14C641.031 1196.61 581.629 1190.77 523.738 1176.6C449.549 1158.41 385.547 1127.23 318.731 1099.32C241.62 1066.9 171.628 1057.58 90.1738 1034.28C-2.95511 1007.75 -36.8632 957.015 -42.5906 900.138C-48.6197 838.995 -44.6693 778.273 -41.2839 716.614C-38.408 664.09 -45.2793 605.515 -11.6122 559.633C40.4706 488.311 204.439 451.49 318.784 427.953Z" fill="white" stroke="#231F20" stroke-miterlimit="10"/>
<path d="M325.636 430.195C469.867 400.499 583.286 348.267 730.478 340.396C773.054 338.097 817.849 340.07 865.947 346.066C909.619 351.464 953.252 360.036 996.55 370.166C1055.74 384.106 1113.62 401.099 1167.77 422.152C1220.48 442.538 1269.8 468.075 1309.36 495.86C1405.22 563.268 1449.16 643.387 1457.23 724.503C1465 804 1438.19 884.44 1381.95 951.833C1308.83 1038.63 1164.16 1154.64 1002.5 1181.08C959.13 1188.07 912.873 1188.43 866.698 1187.74C813.491 1187.09 758.904 1187.71 704.553 1185.36C645.311 1182.89 586.571 1176.76 529.315 1162.65C456.578 1144.95 393.592 1114.4 328.214 1087.16C252.527 1055.58 183.819 1046.21 103.817 1023.4C12.5631 997.395 -21.0192 947.93 -27.2665 892.24C-33.8293 832.458 -30.4127 773.098 -27.5473 712.626C-24.9521 660.957 -31.6951 603.454 1.4659 558.583C52.5366 489.284 213.038 453.193 325.636 430.195Z" fill="white" stroke="#231F20" stroke-miterlimit="10"/>
<path d="M332.49 432.437C474.1 403.551 585.744 352.209 730.569 344.643C772.92 342.498 817.278 344.606 864.939 350.737C908.385 356.29 951.596 364.823 994.471 374.912C1053.04 388.616 1110.75 405.064 1164.71 425.746C1217.03 445.741 1266.38 470.928 1305.3 498.652C1398.51 564.572 1440.46 642.912 1447.81 722.369C1454.89 799.858 1428.46 878.215 1373.42 943.781C1301.75 1028.42 1160.53 1141.22 1002.74 1167.33C960 1174.38 914.166 1174.78 868.401 1174.31C815.828 1173.71 761.875 1174.4 707.961 1171.91C649.367 1169.33 591.275 1163.08 534.639 1149.21C463.369 1131.82 401.596 1102.1 337.234 1075.48C262.985 1044.57 195.545 1035.32 117.207 1013.02C27.8288 987.548 -5.41371 939.175 -11.9972 885.042C-19.1077 826.798 -16.4225 768.604 -14.077 709.318C-11.9601 658.31 -18.1796 602.27 14.2638 558.39C64.4056 490.062 221.85 454.915 332.49 432.437Z" fill="white" stroke="#231F20" stroke-miterlimit="10"/>
<path d="M339.344 434.68C478.559 406.448 588.217 355.976 730.674 348.714C772.813 346.55 816.721 348.968 863.959 355.059C906.969 360.746 949.968 369.259 992.434 379.133C1050.59 392.621 1107.91 408.678 1161.49 428.794C1213.62 448.418 1262.78 473.41 1301.09 500.723C1391.81 565.875 1431.77 642.436 1438.21 719.865C1444.39 795.325 1418.56 871.444 1364.72 935.358C1294.49 1017.84 1156.73 1127.44 1002.81 1153.03C960.49 1160.13 915.276 1160.76 869.933 1160.33C817.995 1159.79 764.465 1160.52 711.41 1157.93C653.464 1155.24 596.021 1148.88 540.006 1135.24C470.202 1118.17 409.43 1089.25 346.309 1063.1C273.499 1032.86 207.328 1023.72 130.442 1001.92C43.1505 977 10.0224 929.874 2.91901 876.928C-4.72524 820.045 -2.78522 763.193 -0.748186 705.114C0.876519 654.942 -5.01722 600.169 26.9341 557.125C76.4728 491.035 230.451 456.618 339.344 434.68Z" fill="white" stroke="#231F20" stroke-miterlimit="10"/>
<path d="M346.21 436.747C482.819 409.15 590.702 359.568 730.778 352.786C772.692 350.776 816.374 353.35 862.964 359.555C905.551 365.203 948.114 373.85 990.381 383.528C1048.13 396.801 1104.85 412.272 1158.45 432.213C1210.4 451.466 1259.37 476.087 1297.05 503.34C1385.31 567.199 1423.28 641.981 1428.8 717.731C1434.08 790.988 1408.82 865.219 1356.19 927.306C1287.42 1007.63 1153.1 1114.03 1003.04 1139.28C961.373 1146.26 916.568 1147.11 871.846 1146.91C820.317 1146.59 767.647 1147.22 715.015 1144.68C657.717 1141.87 600.908 1135.57 545.541 1121.82C477.203 1105.07 417.659 1076.79 355.539 1051.45C284.154 1022.04 219.265 1012.85 144.057 991.384C58.6408 966.999 25.8386 921.139 18.2014 869.555C10.0233 814.034 11.2181 758.524 12.7352 701.631C14.0792 652.316 8.31372 598.614 39.5336 556.737C88.5524 491.833 239.262 458.34 346.21 436.747Z" fill="white" stroke="#231F20" stroke-miterlimit="10"/>
<path d="M353.273 439.009C487.487 412.067 593.595 363.376 731.092 356.877C772.795 354.848 816.026 357.731 862.193 363.896C904.555 369.699 946.694 378.306 988.54 387.944C1045.88 401.001 1102.22 415.906 1155.42 435.456C1206.99 454.144 1255.97 478.589 1293.02 505.782C1378.81 568.522 1414.8 641.525 1419.39 715.422C1423.98 786.67 1399.31 858.839 1347.68 919.078C1280.55 997.442 1149.49 1100.44 1003.5 1125.38C962.255 1132.39 918.071 1133.48 873.772 1133.32C822.877 1133.06 770.629 1133.73 718.646 1131.08C661.982 1128.33 605.836 1121.74 551.089 1108.22C484.217 1091.78 425.675 1064.31 364.782 1039.61C294.836 1010.87 230.99 1001.96 157.46 980.83C73.9187 956.977 41.4562 912.209 33.4966 862.007C24.7848 807.848 25.4458 753.699 26.4292 698.169C27.2809 649.689 21.8413 597.255 52.569 556.213C100.42 492.611 247.861 460.043 353.273 439.009Z" fill="white" stroke="#231F20" stroke-miterlimit="10"/>
<path d="M360.128 441.251C491.735 414.944 596.069 367.143 731.184 361.124C772.661 359.249 815.456 362.268 861.187 368.568C903.111 374.506 945.04 383.092 986.476 392.515C1043.41 405.357 1099.35 419.871 1152.17 438.854C1203.56 457.172 1252.34 481.421 1288.77 508.378C1371.88 569.98 1405.88 641.205 1409.76 713.269C1413.45 782.488 1389.38 852.418 1338.95 911.006C1273.27 987.213 1145.65 1087.01 1003.54 1111.43C962.718 1118.49 919.168 1119.64 875.278 1119.69C825.003 1119.67 773.404 1120.22 721.857 1117.43C665.842 1114.57 610.343 1107.86 556.429 1094.6C491.023 1078.48 433.483 1051.81 373.831 1027.58C305.309 999.687 242.746 990.723 170.879 970.101C89.425 946.8 57.2883 903.299 48.5835 854.438C39.338 801.641 39.2537 748.834 39.7172 694.49C40.0767 646.847 34.9768 595.504 65.1846 555.649C112.488 493.584 256.462 461.745 360.128 441.251Z" fill="white" stroke="#231F20" stroke-miterlimit="10"/>
<path d="M366.979 443.494C496.191 417.841 598.539 370.91 731.287 365.195C772.328 363.456 814.911 366.454 860.205 372.889C901.707 378.786 943.198 387.508 984.648 396.756C1041.16 409.557 1096.73 423.329 1149.37 441.943C1200.57 459.889 1249.17 483.768 1284.97 510.665C1365.61 571.149 1397.61 640.594 1400.58 710.805C1403.58 778.016 1379.89 845.863 1330.66 902.623C1266.43 976.672 1142.26 1073.26 1004.01 1097.35C963.84 1104.29 920.685 1105.83 877.429 1105.95C827.789 1105.98 776.613 1106.58 725.7 1103.85C670.333 1100.87 615.469 1094.23 562.202 1080.85C498.263 1065.05 441.949 1039.02 383.299 1015.59C316.216 988.365 254.922 979.522 184.508 959.392C104.928 936.622 73.1314 894.214 63.8928 846.715C54.1135 795.28 53.284 743.814 53.439 690.677C53.5178 643.89 48.5323 593.794 78.2479 554.775C124.567 494.382 265.272 463.468 366.979 443.494Z" fill="white" stroke="#231F20" stroke-miterlimit="10"/>
<path d="M373.833 445.736C500.424 420.893 601.209 374.873 731.378 369.442C772.207 367.682 814.551 371.011 859.197 377.561C900.473 383.613 941.542 392.295 982.569 401.502C1038.67 414.088 1093.85 427.469 1146.11 445.516C1197.13 463.092 1245.53 486.776 1280.7 513.437C1358.88 572.802 1388.89 640.469 1390.94 708.826C1393.04 773.833 1369.94 839.617 1321.91 894.726C1259.13 966.617 1138.41 1060 1004.02 1083.75C964.273 1090.74 921.753 1092.33 878.906 1092.67C829.9 1092.76 779.358 1093.42 729.094 1090.57C674.375 1087.48 620.159 1080.72 567.513 1067.58C505.026 1052.27 449.728 1026.87 392.53 1003.94C326.872 977.549 266.86 968.652 198.109 949.033C120.406 926.796 88.9344 885.654 79.1621 839.517C68.8351 789.619 67.4857 739.34 66.9093 687.369C66.5098 641.243 61.8363 592.59 91.0458 554.582C136.436 495.16 273.859 465.346 373.833 445.736Z" fill="white" stroke="#231F20" stroke-miterlimit="10"/>
<path d="M380.685 447.978C504.881 423.79 603.68 378.64 731.481 373.513C772.085 371.909 813.992 375.372 858.427 381.902C899.266 388.09 940.123 396.751 980.741 405.742C1036.22 418.092 1091.23 430.928 1143.1 448.584C1193.73 465.594 1242.15 489.102 1276.7 515.528C1352.42 573.6 1380.23 639.468 1381.58 705.992C1382.77 768.97 1360.27 832.691 1313.44 885.973C1252.11 955.707 1134.84 1045.89 1004.54 1069.14C965.423 1076.19 923.311 1078 880.902 1078.2C832.304 1078.51 782.411 1079.06 732.795 1076.09C678.499 1073.04 625.156 1066.01 573.131 1053.11C512.11 1038.11 458.025 1013.53 401.843 991.228C337.623 965.507 278.88 956.73 211.596 937.428C135.979 915.742 104.622 875.848 94.5272 831.093C83.6665 782.556 81.5719 733.619 80.687 682.855C80.0067 637.585 75.4615 590.003 104.165 553.007C148.501 496.133 282.67 467.068 380.685 447.978Z" fill="white" stroke="#231F20" stroke-miterlimit="10"/>
<path d="M387.539 450.221C509.128 426.667 606.152 382.407 731.572 377.76C771.951 376.31 813.421 379.909 857.419 386.574C897.836 392.721 938.256 401.517 978.676 410.313C1033.75 422.448 1088.38 434.718 1140.06 452.003C1190.51 468.642 1238.74 491.78 1272.66 518.145C1345.91 575.099 1371.74 639.188 1372.16 703.858C1372.66 764.828 1350.53 826.466 1304.91 878.096C1245.03 945.672 1131.2 1032.65 1004.76 1055.57C966.068 1062.65 924.577 1064.7 882.802 1064.96C834.839 1065.33 785.58 1065.94 736.386 1063.02C682.739 1059.85 630.044 1052.71 578.653 1039.86C519.098 1025.18 466.015 1001.4 411.061 979.745C348.054 954.846 290.382 945.995 224.761 927.205C151.019 906.051 120.002 867.248 109.374 823.855C97.9793 776.68 95.1396 729.085 93.7347 679.507C92.5623 635.073 88.3429 588.759 116.54 552.774C160.582 496.931 291.27 468.771 387.539 450.221Z" fill="white" stroke="#231F20" stroke-miterlimit="10"/>
<path d="M394.39 452.463C513.585 429.564 608.834 386.195 731.675 381.831C771.842 380.362 812.862 384.27 856.423 391.07C896.614 397.373 936.612 406.128 976.609 414.884C1031.27 426.803 1085.51 438.682 1136.8 455.402C1187.07 471.67 1235.12 494.437 1268.41 520.741C1339.19 576.577 1363.02 638.887 1362.74 701.725C1362.35 760.491 1340.81 820.066 1296.38 870.044C1237.95 935.463 1127.57 1019.24 1005 1041.82C966.74 1048.77 925.869 1051.05 884.502 1051.53C837.16 1052.13 788.337 1052.6 739.792 1049.57C686.793 1046.28 634.733 1039.2 583.976 1026.42C525.888 1012.05 474.032 988.924 420.093 967.892C358.735 943.68 302.318 935.125 238.375 916.671C166.509 896.049 135.818 858.513 124.655 816.482C112.516 770.649 109.142 724.416 107.429 676.045C105.764 632.446 101.884 587.224 129.576 552.25C172.435 497.885 299.869 470.473 394.39 452.463Z" fill="white" stroke="#231F20" stroke-miterlimit="10"/>
<path d="M401.244 454.705C517.832 432.441 611.306 389.962 731.766 386.078C771.708 384.763 812.502 388.827 855.429 395.567C895.184 402.004 934.97 410.74 974.558 419.28C1028.81 430.983 1082.66 442.296 1133.78 458.645C1183.67 474.347 1231.72 497.114 1264.38 523.183C1332.71 577.726 1354.33 638.412 1353.34 699.416C1352.26 756.173 1331.09 813.666 1287.87 861.816C1230.89 925.077 1123.96 1005.65 1005.26 1027.72C967.638 1034.73 927.176 1037.23 886.444 1037.76C839.736 1038.43 791.561 1038.78 743.651 1035.81C691.299 1032.41 639.887 1025.21 589.751 1012.67C533.129 998.617 482.261 976.465 429.563 955.903C369.63 932.534 314.496 923.924 252.217 905.982C182.437 885.912 151.86 849.623 140.389 808.799C127.716 764.328 123.822 719.281 121.35 672.427C119.193 629.664 115.639 585.709 142.825 551.747C184.516 498.683 308.681 472.196 401.244 454.705Z" fill="white" stroke="#231F20" stroke-miterlimit="10"/>
<path d="M408.097 456.947C522.29 435.338 613.764 393.904 731.871 390.149C771.587 388.99 811.945 393.189 854.435 400.063C893.767 406.46 933.116 415.331 972.718 423.696C1026.56 435.184 1080.02 446.105 1130.75 461.888C1180.46 477.22 1228.32 499.616 1260.35 525.624C1326.02 578.854 1345.86 637.781 1343.93 697.107C1342.17 751.681 1321.39 807.09 1279.36 853.589C1223.83 914.692 1120.34 992.24 1005.51 1013.79C968.31 1020.84 928.483 1023.4 888.16 1024.15C842.086 1024.88 794.335 1025.27 747.072 1022.18C695.355 1018.84 644.605 1011.36 595.103 998.872C539.948 985.14 490.095 963.614 438.61 943.875C380.102 921.347 326.25 912.684 265.424 895.233C197.519 875.694 167.282 840.498 155.264 801.21C142.056 758.101 137.418 714.396 134.637 668.748C132.199 626.842 128.76 584.134 155.453 551.007C196.597 499.48 317.281 473.898 408.097 456.947Z" fill="white" stroke="#231F20" stroke-miterlimit="10"/>
<path d="M414.95 459.19C526.536 438.214 616.447 397.692 731.96 394.396C771.254 393.196 811.373 397.725 853.44 404.559C892.546 411.111 931.473 419.942 970.652 428.267C1024.09 439.539 1077.16 449.895 1127.5 465.287C1177.02 480.247 1224.7 502.273 1256.11 528.046C1319.52 580.177 1337.16 637.305 1334.32 694.778C1331.65 747.323 1311.46 800.669 1270.43 845.321C1216.34 904.267 1116.3 978.612 1005.55 999.843C968.785 1006.76 929.564 1009.73 889.664 1010.52C843.999 1011.47 797.107 1011.76 750.267 1008.71C699.199 1005.26 649.097 997.661 600.215 985.409C546.737 972.014 497.887 951.289 447.431 932.001C390.348 910.316 337.779 901.598 278.63 884.483C212.6 865.477 182.689 831.548 170.151 793.447C156.396 751.874 151.026 709.335 147.725 664.875C144.809 623.629 141.907 582.208 167.869 550.248C208.451 500.433 326.093 475.621 414.95 459.19Z" fill="white" stroke="#231F20" stroke-miterlimit="10"/>
<path d="M421.803 461.432C530.993 441.111 618.918 401.459 732.276 398.488C771.344 397.443 811.04 401.932 852.656 409.076C891.326 415.763 930.041 424.573 968.811 432.683C1021.62 443.719 1074.32 453.509 1124.69 468.55C1174.02 483.14 1221.51 504.971 1252.3 530.507C1313.25 581.345 1328.9 636.695 1325.13 692.489C1321.78 742.85 1301.95 794.289 1262.13 837.113C1209.49 893.902 1112.9 965.044 1006.02 985.761C969.893 992.737 931.096 995.75 891.816 996.774C846.785 997.781 800.316 998.12 754.125 994.955C703.704 991.386 654.251 983.672 605.99 971.656C553.978 958.577 506.129 938.654 457.112 920.033C401.468 899.014 349.941 890.572 292.47 873.794C228.527 855.34 198.731 822.658 185.87 785.939C171.581 745.728 165.466 704.531 161.857 661.277C158.449 620.867 155.872 580.714 181.342 549.59C220.531 501.231 334.692 477.323 421.803 461.432Z" fill="white" stroke="#231F20" stroke-miterlimit="10"/>
<path d="M428.656 463.674C535.226 444.163 621.376 405.401 732.155 402.714C770.998 401.824 810.468 406.469 851.45 413.552C889.697 420.199 927.975 429.144 966.548 437.058C1018.95 447.879 1071.25 457.278 1121.24 471.753C1170.19 485.777 1217.69 507.432 1247.85 532.909C1306.35 582.453 1319.78 636.179 1315.3 690.14C1311.26 738.493 1291.82 787.673 1253.2 828.845C1202.01 883.477 1108.85 951.59 1005.85 971.794C970.143 978.81 931.965 982.059 893.108 983.124C848.699 984.366 802.878 984.591 757.123 981.29C707.337 977.782 658.545 969.777 610.919 957.822C560.373 945.059 513.751 925.783 465.736 907.964C411.728 887.808 361.272 879.291 305.465 863.025C243.398 845.102 213.941 813.512 200.546 778.155C185.724 739.306 178.863 699.451 174.946 657.403C171.045 617.83 168.795 578.943 193.547 548.81C232.611 502.029 343.503 479.046 428.656 463.674Z" fill="white" stroke="#231F20" stroke-miterlimit="10"/>
<path d="M435.508 465.917C539.683 447.06 624.059 409.189 732.258 406.785C770.89 405.876 809.91 410.83 850.667 418.069C888.688 424.871 926.544 433.776 964.694 441.649C1016.69 452.255 1068.61 461.087 1118.2 475.172C1166.97 488.825 1214.28 510.11 1243.8 535.525C1299.84 583.952 1311.28 635.899 1305.88 688.006C1300.95 734.155 1282.09 781.448 1244.68 820.793C1194.94 873.267 1105.23 938.177 1006.08 958.043C971.012 965.119 933.244 968.584 894.81 969.689C851.034 970.992 805.637 971.257 760.727 968.037C711.589 964.414 663.432 956.469 616.44 944.575C567.361 932.128 521.741 913.654 474.966 896.306C422.396 876.816 373.21 868.421 318.855 852.646C258.663 835.256 229.532 804.932 215.603 770.937C200.247 733.45 192.641 694.936 188.204 654.075C184.023 615.358 181.901 577.543 206.147 548.422C244.465 502.983 352.103 480.748 435.508 465.917Z" fill="white" stroke="#231F20" stroke-miterlimit="10"/>
<path d="M442.586 468.004C544.155 449.782 626.755 412.801 732.574 410.877C770.98 410.122 809.563 415.212 849.897 422.41C887.482 429.347 925.126 438.232 962.867 445.89C1014.44 456.455 1065.98 464.721 1115.4 478.26C1163.98 491.543 1211.12 512.456 1240 537.812C1293.58 584.945 1303.03 635.113 1296.72 685.367C1291.09 729.508 1272.62 774.542 1236.4 812.235C1187.9 862.531 1102.06 924.279 1006.8 943.631C972.163 950.572 935.015 954.272 897.201 955.613C854.06 956.976 809.296 957.302 764.824 953.947C716.334 950.209 668.825 942.15 622.453 930.491C574.826 918.536 530.433 900.709 484.675 883.987C433.53 865.34 385.626 856.89 332.934 841.627C274.829 824.788 245.812 795.712 231.576 762.923C215.685 726.799 207.334 689.626 202.574 650.147C197.901 612.266 196.105 575.718 219.845 547.608C256.545 503.78 360.703 482.45 442.586 468.004Z" fill="white" stroke="#231F20" stroke-miterlimit="10"/>
<path d="M449.439 470.246C548.612 452.679 629.213 416.743 732.677 414.948C770.858 414.349 809.005 419.573 848.902 426.907C886.064 433.803 923.271 442.823 960.814 450.285C1011.98 460.635 1063.14 468.335 1112.16 481.483C1160.37 494.2 1207.51 514.938 1235.76 540.233C1286.89 586.073 1294.34 634.637 1287.1 683.038C1280.8 724.995 1262.69 768.122 1227.68 803.988C1180.63 852.126 1098.23 910.846 1006.84 929.685C972.834 936.686 936.096 940.602 898.705 941.983C856.184 943.582 811.857 943.773 768.033 940.303C720.192 936.45 673.331 928.276 627.593 916.678C581.433 905.039 538.041 888.013 493.524 871.763C443.817 853.783 396.97 845.434 345.957 830.507C289.727 814.2 261.05 786.216 246.265 754.964C229.841 720.201 220.745 684.371 215.465 646.078C210.3 609.033 208.843 573.577 232.077 546.478C268.611 504.754 369.5 484.348 449.439 470.246Z" fill="white" stroke="#231F20" stroke-miterlimit="10"/>
<path d="M456.292 472.488C552.858 455.556 631.896 420.531 732.768 419.195C770.724 418.751 808.645 424.13 847.893 431.578C884.83 438.63 921.615 447.609 958.946 455.052C1009.7 465.186 1060.48 472.32 1109.32 485.097C1157.34 497.443 1204.3 517.811 1231.93 542.87C1280.6 587.416 1286.06 634.202 1277.89 680.925C1270.9 720.873 1253.18 761.742 1219.37 795.956C1173.77 841.937 1094.81 897.454 1007.28 915.954C973.705 922.996 937.6 926.972 900.618 928.569C858.52 930.208 815.039 930.479 771.638 927.049C724.431 923.257 678.232 914.793 633.115 903.43C588.421 892.108 546.256 875.729 502.741 860.281C454.472 842.967 408.88 834.914 359.544 820.324C305.401 804.569 276.838 777.832 261.534 747.767C244.576 714.365 234.735 679.876 229.147 642.791C223.503 606.406 222.358 572.393 245.086 546.305C280.48 505.532 378.1 486.051 456.292 472.488Z" fill="white" stroke="#231F20" stroke-miterlimit="10"/>
<path d="M463.146 474.731C557.303 458.628 634.354 424.473 732.873 423.266C770.406 422.781 808.088 428.491 846.914 435.899C883.414 443.086 919.986 452.045 956.909 459.272C1007.04 469.17 1057.64 475.934 1106.09 488.145C1153.93 500.12 1200.92 520.138 1227.71 545.116C1274.13 588.389 1277.38 633.551 1268.29 678.421C1260.62 716.185 1243.26 755.146 1210.65 787.708C1166.49 831.531 1090.98 884.021 1007.34 901.832C974.18 908.914 938.696 913.126 902.349 914.783C860.871 916.658 817.827 916.794 775.074 913.25C728.515 909.343 682.95 900.939 638.468 889.637C595.239 878.631 554.077 863.054 511.788 848.252C464.945 831.78 420.635 823.673 372.752 809.575C320.483 794.352 292.247 768.882 276.62 740.198C258.903 708.314 248.542 675.012 242.434 639.112C236.298 603.564 235.479 570.818 257.715 545.566C292.56 506.33 386.912 487.773 463.146 474.731Z" fill="white" stroke="#231F20" stroke-miterlimit="10"/>
<path d="M469.998 476.973C561.549 461.505 636.825 428.24 732.962 427.513C770.27 427.183 807.515 433.028 845.904 440.571C881.981 447.717 918.118 456.812 954.843 463.843C1004.57 473.526 1054.78 479.723 1102.84 491.543C1150.29 503.128 1197.3 522.795 1223.45 547.713C1267.43 589.693 1268.68 633.076 1258.66 676.267C1250.3 712.023 1233.32 748.9 1201.91 779.636C1159.21 821.301 1087.12 870.763 1007.36 888.06C974.838 895.203 939.776 899.455 903.838 901.328C862.995 903.263 820.585 903.46 778.48 899.801C732.569 895.779 687.653 887.261 643.805 876.019C602.043 865.329 562.094 850.574 521.046 836.244C475.641 820.439 432.6 812.452 386.38 798.866C335.987 784.175 308.09 759.796 291.916 732.65C273.666 702.128 262.559 670.167 256.142 635.474C249.514 600.762 249.035 569.108 270.751 545.042C304.415 507.283 395.511 489.476 469.998 476.973Z" fill="white" stroke="#231F20" stroke-miterlimit="10"/>
<path d="M476.85 479.215C565.794 464.382 639.494 432.203 733.277 431.604C770.359 431.43 807.182 437.234 845.134 444.912C880.986 452.214 916.699 461.268 953.002 468.259C1002.32 477.726 1052.13 483.533 1100.03 494.807C1147.3 505.846 1194.12 525.317 1219.42 550.155C1261.17 590.686 1260.42 632.465 1249.26 673.958C1240.21 707.53 1223.61 742.325 1193.4 771.408C1152.15 810.917 1083.51 857.175 1007.82 874.154C975.721 881.337 941.28 885.825 905.765 887.738C865.556 889.734 823.78 889.991 782.112 886.197C736.849 882.06 692.581 873.427 649.353 862.421C609.058 852.047 570.124 837.919 530.289 824.411C486.309 809.448 444.551 801.407 399.784 788.312C351.477 774.173 323.695 751.042 307.001 725.082C288.216 695.921 276.364 665.302 269.428 631.796C262.307 597.92 262.154 567.533 283.378 544.303C316.494 508.081 404.111 491.178 476.85 479.215Z" fill="white" stroke="#231F20" stroke-miterlimit="10"/>
<path d="M483.704 481.458C570.253 467.279 641.966 435.97 733.368 435.851C770.225 435.832 806.822 441.791 844.126 449.584C879.541 457.021 915.043 466.054 950.936 472.83C999.842 482.081 1049.28 487.322 1096.78 498.206C1143.87 508.873 1190.5 527.974 1215.17 552.751C1254.46 591.989 1251.71 632.165 1239.63 671.805C1230.11 703.213 1213.67 736.08 1184.67 763.336C1144.86 800.687 1079.87 843.937 1007.86 860.207C976.407 867.276 942.376 871.979 907.481 874.128C867.892 876.359 826.554 876.482 785.52 872.748C740.891 868.672 697.272 859.924 654.678 848.978C615.835 839.096 578.128 825.614 539.309 812.733C496.767 798.437 456.066 790.497 413.188 777.758C366.771 763.976 339.3 742.287 322.072 717.689C302.754 689.89 290.157 660.613 282.912 628.313C275.299 595.273 275.486 565.978 296.19 543.935C328.574 508.879 412.922 492.901 483.704 481.458Z" fill="white" stroke="#231F20" stroke-miterlimit="10"/>
<path d="M490.557 483.7C574.499 470.156 644.424 439.913 733.473 439.923C770.118 439.883 806.264 446.153 843.357 453.926C878.561 461.342 913.414 470.49 949.11 477.07C997.607 486.106 1046.66 490.781 1093.77 501.274C1140.67 511.571 1187.12 530.301 1211.16 555.017C1248.21 592.982 1243.47 631.379 1230.24 669.32C1220.03 698.72 1203.98 729.329 1176.17 754.933C1137.81 790.126 1076.26 830.349 1008.12 846.106C977.094 853.214 943.682 858.154 909.224 860.167C870.059 862.439 829.566 862.642 788.969 858.773C744.989 854.582 702.017 845.719 660.058 834.834C622.681 825.268 585.976 812.588 548.398 800.178C507.281 786.724 467.862 778.73 426.436 766.483C381.894 753.232 354.763 732.635 337.213 709.42C317.15 682.962 304.019 655.047 296.24 624.109C288.135 591.905 288.648 563.877 308.859 542.67C340.429 509.832 421.523 494.603 490.557 483.7Z" fill="white" stroke="#231F20" stroke-miterlimit="10"/>
<path d="M497.409 485.942C578.957 473.053 647.107 443.7 733.562 444.169C769.983 444.285 805.692 450.689 842.348 458.597C877.115 466.148 911.757 475.277 947.242 481.837C995.33 490.657 1043.78 494.921 1090.92 504.888C1137.43 514.794 1184.12 533.193 1207.33 557.654C1242.15 594.17 1235.39 631.139 1221.03 667.207C1210.36 694.443 1194.45 723.124 1167.86 746.901C1130.95 779.937 1072.83 817.132 1008.57 832.375C978.175 839.544 945.172 844.698 911.137 846.753C872.592 849.26 832.536 849.328 792.799 845.364C749.255 841.038 707.143 832.081 665.804 821.431C629.893 812.182 594.191 800.304 557.839 788.54C518.161 775.753 479.997 768.055 440.249 756.144C397.794 743.446 370.777 724.096 352.693 702.242C332.096 677.147 318.22 650.573 310.133 620.842C301.55 589.298 302.586 562.733 322.079 542.517C352.509 510.63 430.334 496.326 497.409 485.942Z" fill="white" stroke="#231F20" stroke-miterlimit="10"/>
<path d="M504.262 488.185C583.202 475.93 649.564 447.643 733.666 448.241C769.861 448.511 805.134 455.051 841.367 462.918C875.697 470.605 910.128 479.713 945.203 486.057C992.67 494.642 1040.95 498.36 1087.7 507.936C1134.04 517.296 1180.53 535.5 1203.1 559.901C1235.47 595.123 1226.93 630.333 1211.44 664.528C1200.29 689.776 1184.56 716.178 1159.17 738.303C1123.7 769.181 1069.02 803.348 1008.86 817.922C978.888 825.132 946.52 830.347 913.105 832.637C875.194 835.205 835.772 835.333 796.458 831.41C753.563 826.969 712.099 817.897 671.38 807.483C636.936 798.55 602.46 787.318 567.111 776.357C528.857 764.412 491.975 756.659 453.68 745.24C413.1 733.074 386.409 714.991 367.805 694.323C346.661 670.765 331.842 645.337 323.446 616.813C314.371 586.106 315.746 560.632 334.734 541.428C364.575 511.603 438.933 498.028 504.262 488.185Z" fill="white" stroke="#231F20" stroke-miterlimit="10"/>
<path d="M511.115 490.427C587.646 479.002 652.233 451.605 733.756 452.487C769.514 452.893 804.773 459.608 840.358 467.59C874.477 475.256 908.259 484.479 943.137 490.628C990.196 498.997 1038.08 502.324 1084.66 511.354C1130.82 520.344 1177.35 538.022 1199.06 562.517C1229.2 596.291 1218.64 630.073 1202.03 662.394C1190.4 685.478 1174.83 709.952 1150.64 730.25C1116.42 758.951 1065.59 790.131 1009.09 804.171C979.758 811.441 947.799 816.872 914.807 819.202C877.531 821.83 838.532 821.999 799.865 817.961C757.604 813.58 716.789 804.393 676.718 793.865C643.74 785.248 610.266 774.818 576.158 764.328C539.342 753.05 503.73 745.418 467.098 734.511C428.393 722.876 401.831 705.865 383.102 686.775C361.212 664.558 345.859 640.492 337.155 613.175C327.588 583.303 329.289 559.097 347.559 540.884C376.443 512.381 447.744 499.751 511.115 490.427Z" fill="white" stroke="#231F20" stroke-miterlimit="10"/>
<path d="M517.967 492.669C591.892 481.879 654.704 455.373 733.86 456.559C769.393 457.119 804.215 463.969 839.363 472.087C873.045 479.888 906.616 489.091 941.085 495.024C987.72 503.353 1035.24 505.938 1081.42 514.578C1127.18 523.176 1173.75 540.504 1194.82 564.939C1222.71 597.44 1210.17 629.442 1192.62 660.085C1180.51 681.181 1165.12 703.377 1142.13 722.023C1109.36 748.566 1061.97 776.718 1009.34 790.245C980.429 797.555 949.105 803.046 916.733 805.612C880.078 808.476 841.727 808.53 803.497 804.357C761.884 799.862 721.717 790.56 682.267 780.267C650.741 772.142 618.494 762.359 585.613 752.515C550.222 742.079 515.681 734.373 480.727 723.802C444.109 712.719 417.661 696.955 398.412 679.052C375.988 658.197 359.891 635.473 350.666 609.342C340.607 580.306 342.648 557.192 360.412 539.99C388.523 513.179 456.344 501.454 517.967 492.669Z" fill="white" stroke="#231F20" stroke-miterlimit="10"/>
<path d="M524.821 494.911C596.351 484.776 657.162 459.315 733.951 460.805C769.258 461.521 803.658 468.331 838.369 476.583C871.614 484.519 904.974 493.702 939.02 499.595C985.246 507.708 1032.38 509.728 1078.17 517.976C1123.76 526.029 1170.34 543.181 1190.57 567.535C1216.23 598.588 1201.88 629.182 1182.99 657.931C1170.4 677.039 1155.18 697.132 1133.4 713.951C1102.07 738.336 1058.33 763.481 1009.38 776.298C981.089 783.844 950.187 789.375 918.238 791.982C882.005 794.886 844.289 795 806.694 790.888C765.729 786.278 726.196 777.036 687.381 766.804C657.321 758.995 626.09 749.838 594.435 740.641C560.694 730.892 527.21 723.287 493.92 713.228C459.177 702.677 433.055 688.18 413.273 671.638C390.301 652.321 373.261 630.743 363.939 605.839C353.176 577.619 355.754 555.792 373.013 539.601C400.59 514.152 464.931 503.331 524.821 494.911Z" fill="white" stroke="#231F20" stroke-miterlimit="10"/>
<path d="M531.885 497.174C600.809 487.672 660.043 463.298 734.267 464.897C769.363 465.592 803.312 472.712 837.586 481.099C870.606 489.19 903.331 498.313 937.18 504.01C982.997 511.908 1029.74 513.537 1075.36 521.239C1120.76 528.921 1167.38 545.548 1186.75 569.997C1210.4 599.621 1194.03 628.787 1173.8 655.643C1160.94 672.782 1145.69 690.576 1125.1 705.743C1095.22 727.971 1054.9 750.263 1009.84 762.392C981.973 769.978 951.705 775.57 920.166 778.391C884.553 781.531 847.485 781.531 810.538 777.304C770.208 772.754 731.337 763.223 693.155 753.051C664.562 745.558 634.544 737.223 603.905 728.653C571.603 719.571 539.373 712.261 507.549 702.519C474.682 692.5 448.885 679.27 428.795 663.935C405.078 645.959 387.49 625.918 377.662 602.025C366.407 574.642 369.311 554.081 386.077 538.727C412.459 514.93 473.742 505.054 531.885 497.174Z" fill="white" stroke="#231F20" stroke-miterlimit="10"/>
<path d="M538.752 499.241C605.28 490.394 662.515 467.065 734.37 468.968C769.241 469.819 802.965 477.094 836.605 485.421C869.202 493.471 901.702 502.749 935.353 508.251C980.761 515.933 1027.12 516.996 1072.34 524.307C1117.57 531.619 1164.23 547.72 1182.75 572.088C1204.17 600.264 1186.2 628.217 1164.42 652.983C1151.08 668.134 1135.78 683.805 1116.6 697.34C1087.96 717.391 1051.5 736.695 1010.32 748.31C983.081 755.957 953.434 761.784 922.318 764.646C887.339 767.847 850.694 767.886 814.395 763.545C774.713 758.88 736.49 749.234 698.93 739.297C671.802 732.121 642.8 724.413 613.375 716.665C582.497 708.425 551.55 701.061 521.39 691.83C490.609 682.363 464.927 670.38 444.302 656.407C420.038 639.968 401.507 621.073 391.569 598.583C379.821 572.035 383.065 552.567 399.311 538.399C424.538 515.728 482.342 506.756 538.752 499.241Z" fill="white" stroke="#231F20" stroke-miterlimit="10"/>
<path d="M545.604 501.483C609.526 493.271 665.183 471.028 734.474 473.039C769.106 474.221 802.407 481.455 835.61 489.917C867.77 498.103 900.073 507.185 933.287 512.822C978.075 520.269 1024.25 520.96 1069.09 527.706C1113.92 534.627 1161.03 550.417 1178.5 574.685C1197.89 601.607 1178.11 628.152 1154.79 650.83C1141.18 664.012 1125.85 677.385 1107.87 689.268C1080.69 706.985 1047.65 723.437 1010.34 734.539C983.725 742.421 954.501 748.289 923.808 751.191C889.464 754.452 853.453 754.552 817.591 750.075C778.557 745.296 740.982 735.535 704.042 725.835C678.381 718.975 650.592 712.088 622.196 704.791C592.757 697.218 562.867 689.955 534.582 681.256C505.676 672.321 480.109 661.585 459.176 648.818C434.166 633.721 415.102 616.188 404.643 594.884C392.178 569.328 395.973 550.971 411.727 537.64C436.604 516.701 491.153 508.479 545.604 501.483Z" fill="white" stroke="#231F20" stroke-miterlimit="10"/>
<path d="M734.565 477.286C802.123 479.663 864.343 506.429 931.221 517.393C975.6 524.624 1021.39 524.75 1066.05 531.125C1110.71 537.499 1157.85 552.94 1174.46 577.302C1191.62 602.776 1170.21 628.283 1145.38 648.696C1109.86 677.626 1065.83 703.627 1010.59 720.612C955.347 737.598 887.661 744.922 821.209 736.647C782.824 731.753 745.883 722.052 709.591 712.237C605.27 684.46 455.402 661.526 418.141 591.226C384.427 527.268 466.622 514.264 552.444 503.901C613.97 496.343 667.641 474.97 734.565 477.286Z" stroke="#231F20" stroke-miterlimit="10"/>
</g>
<rect x="-0.0859375" y="429" width="1440" height="429" fill="url(#paint0_linear)"/>
</g>
<defs>
<linearGradient id="paint0_linear" x1="466.914" y1="785.5" x2="466.914" y2="429" gradientUnits="userSpaceOnUse">
<stop stop-color="#EAEAEA"/>
<stop offset="1" stop-color="#EAEAEA" stop-opacity="0"/>
</linearGradient>
<clipPath id="clip0">
<rect width="1440" height="858" fill="white"/>
</clipPath>
</defs>
</svg>
