<svg width="37" height="40" viewBox="0 0 37 40" fill="none" xmlns="http://www.w3.org/2000/svg">
    <path d="M31.4799 38.24H29.2662L27.3174 35.255C26.9606 34.7197 26.3631 34.4 25.7199 34.4H20.5999V18.1472C22.4575 17.6664 24.0457 16.5134 25.0799 14.956V22.3307C23.9788 22.6169 23.1599 23.6105 23.1599 24.7998C23.1599 26.2113 24.3081 27.3598 25.7199 27.3598C27.1318 27.3598 28.2799 26.2113 28.2799 24.7998C28.2799 23.6105 27.4611 22.6169 26.3599 22.3307V10.72C26.3599 9.6779 26.1494 8.68462 25.7716 7.77758L32.0371 4.61502C32.5062 5.21006 33.2249 5.59998 34.0399 5.59998C35.4518 5.59998 36.5999 4.4515 36.5999 3.03998C36.5999 1.62846 35.4518 0.47998 34.0399 0.47998C32.6281 0.47998 31.4799 1.62846 31.4799 3.03998C31.4799 3.17774 31.4996 3.31038 31.5206 3.44238L25.1774 6.6443C23.8171 4.48334 21.4167 3.03998 18.6799 3.03998C14.4449 3.03998 10.9999 6.48526 10.9999 10.72C10.9999 11.712 11.1953 12.6576 11.5391 13.5288L4.77865 16.9413C4.31577 16.2773 3.54905 15.84 2.67993 15.84C1.26809 15.84 0.119934 16.9885 0.119934 18.4C0.119934 19.8115 1.26809 20.96 2.67993 20.96C4.09177 20.96 5.23993 19.8115 5.23993 18.4C5.23993 18.3158 5.22313 18.2363 5.21513 18.1542L12.1087 14.6745C13.134 16.3717 14.7934 17.6382 16.7599 18.1472V34.4H11.6399C10.9967 34.4 10.3993 34.7197 10.0393 35.26L8.09353 38.24H2.03993C1.68617 38.24 1.39993 38.5265 1.39993 38.88C1.39993 39.2334 1.68617 39.52 2.03993 39.52H31.4799C31.8337 39.52 32.1199 39.2334 32.1199 38.88C32.1199 38.5265 31.8337 38.24 31.4799 38.24ZM26.9999 24.8C26.9999 25.5059 26.4255 26.08 25.7199 26.08C25.0143 26.08 24.4399 25.5059 24.4399 24.8C24.4399 24.0941 25.0143 23.52 25.7199 23.52C26.4255 23.52 26.9999 24.0941 26.9999 24.8ZM34.0399 1.75998C34.7455 1.75998 35.3199 2.33406 35.3199 3.03998C35.3199 3.7459 34.7455 4.31998 34.0399 4.31998C33.3343 4.31998 32.7599 3.7459 32.7599 3.03998C32.7599 2.33406 33.3343 1.75998 34.0399 1.75998ZM2.67993 19.68C1.97433 19.68 1.39993 19.1059 1.39993 18.4C1.39993 17.6941 1.97433 17.12 2.67993 17.12C3.38553 17.12 3.95993 17.6941 3.95993 18.4C3.95993 19.1059 3.38553 19.68 2.67993 19.68ZM12.2799 10.72C12.2799 7.19086 15.1511 4.31998 18.6799 4.31998C20.918 4.31998 22.8884 5.47694 24.0327 7.22206L21.1303 8.68702C20.543 7.9803 19.6686 7.51998 18.6799 7.51998C16.9156 7.51998 15.4799 8.95566 15.4799 10.72C15.4799 10.9859 15.522 11.2401 15.5835 11.4873L12.6884 12.9486C12.4287 12.2534 12.2799 11.5046 12.2799 10.72ZM16.7599 10.72C16.7599 9.66126 17.6212 8.79998 18.6799 8.79998C19.7387 8.79998 20.5999 9.66126 20.5999 10.72C20.5999 11.7787 19.7387 12.64 18.6799 12.64C17.6212 12.64 16.7599 11.7787 16.7599 10.72ZM13.2534 14.0968L16.1372 12.6411C16.722 13.4129 17.6393 13.92 18.6799 13.92C20.4443 13.92 21.8799 12.4843 21.8799 10.72C21.8799 10.4038 21.8198 10.1045 21.7339 9.81582L24.6225 8.35774C24.9147 9.08958 25.0799 9.88526 25.0799 10.72C25.0799 14.2491 22.2087 17.12 18.6799 17.12C16.3913 17.12 14.3849 15.9085 13.2534 14.0968ZM18.0399 18.3675C18.2515 18.3851 18.4639 18.4 18.6799 18.4C18.8959 18.4 19.1084 18.3851 19.3199 18.3675V34.4H18.0399V18.3675ZM11.1075 35.9649C11.2262 35.7865 11.4255 35.68 11.6399 35.68H25.7199C25.9343 35.68 26.1337 35.7865 26.2494 35.96L27.738 38.24H26.1708L25.6375 36.7449C25.547 36.4899 25.3057 36.32 25.035 36.32H12.3249C12.0543 36.32 11.8131 36.4899 11.7223 36.7449L11.1891 38.24H9.62185L11.1075 35.9649ZM24.8121 38.24H12.5476L12.7761 37.6H24.5836L24.8121 38.24Z" fill="black"/>
</svg>
