<svg width="97" height="54" viewBox="0 0 97 54" fill="none" xmlns="http://www.w3.org/2000/svg">
    <path d="M10.7486 13.6445L4.64381 0.834842H2.19146L0 18.81H2.76541L4.30465 5.97434L9.60069 16.8012H11.9487L17.2186 5.97434L18.7579 18.81H21.5233L19.3318 0.834842H16.8534L10.7486 13.6445Z" fill="white"/>
    <path d="M30.1045 16.462C28.0956 16.462 26.4259 14.975 26.4259 12.6792C26.4259 10.4616 28.0956 9.00064 30.1045 9.00064C32.1394 9.00064 33.8091 10.4616 33.8091 12.6792C33.8091 14.975 32.1394 16.462 30.1045 16.462ZM30.1045 19.0709C33.5743 19.0709 36.4962 16.5403 36.4962 12.6792C36.4962 8.81802 33.5743 6.36567 30.1045 6.36567C26.6607 6.36567 23.7649 8.81802 23.7649 12.6792C23.7649 16.5403 26.6607 19.0709 30.1045 19.0709Z" fill="white"/>
    <path d="M42.1644 12.2617C42.1644 9.86157 43.7037 9.00064 45.2951 9.00064C46.8604 9.00064 47.8518 10.0703 47.8518 12.0269V18.81H50.5389V11.7139C50.5389 8.24406 48.8432 6.36567 45.8951 6.36567C44.5646 6.36567 42.8688 7.07007 42.1644 8.45278V6.62656H39.4773V18.81H42.1644V12.2617Z" fill="white"/>
    <path d="M63.6219 18.81H66.2829V0H63.6219V8.37451C62.8653 7.04398 61.2478 6.36567 59.4998 6.36567C56.2126 6.36567 53.4211 8.81802 53.4211 12.7313C53.4211 16.5664 56.2126 19.0709 59.4998 19.0709C61.1695 19.0709 62.8653 18.3665 63.6219 17.036V18.81ZM63.5697 12.6792C63.5697 15.0532 61.8217 16.462 59.839 16.462C57.8301 16.462 56.1866 14.9228 56.1866 12.6792C56.1866 10.4355 57.8301 8.97455 59.839 8.97455C61.6391 8.97455 63.5697 10.3051 63.5697 12.6792Z" fill="white"/>
    <path d="M79.5464 18.81H82.2075V6.62656H79.5464V8.34842C78.7116 6.96571 76.9115 6.36567 75.4505 6.36567C72.1894 6.36567 69.2674 8.81802 69.2674 12.7053C69.2674 16.5925 72.1894 19.0709 75.4505 19.0709C77.0158 19.0709 78.7116 18.3926 79.5464 17.0621V18.81ZM72.0329 12.6792C72.0329 10.4355 73.7547 8.97455 75.7636 8.97455C77.5898 8.97455 79.5203 10.3051 79.5203 12.6792C79.5203 15.0793 77.7463 16.462 75.7636 16.462C73.7547 16.462 72.0329 14.9228 72.0329 12.6792Z" fill="white"/>
    <path d="M96.9829 6.62656H94.1132L90.6955 14.975L87.304 6.62656H84.4342L89.2606 18.2361L86.6257 24.7583H89.4433L96.9829 6.62656Z" fill="white"/>
    <path d="M18.5432 43.1568C17.4214 44.6178 15.6735 45.5048 13.6907 45.5048C10.1166 45.5048 7.37722 42.609 7.37722 38.9565C7.37722 35.3302 10.1166 32.3822 13.6907 32.3822C15.6735 32.3822 17.3171 33.2953 18.4911 34.6258L20.6304 32.9561C19.0389 30.9734 16.5866 29.7211 13.6907 29.7211C8.60341 29.7211 4.61182 33.8692 4.61182 38.9565C4.61182 44.07 8.60341 48.1659 13.6907 48.1659C16.6388 48.1659 19.1172 46.9136 20.6825 44.8526L18.5432 43.1568Z" fill="white"/>
    <path d="M32.5945 47.905H35.2556V35.7215H32.5945V37.4434C31.7597 36.0607 29.9596 35.4606 28.4986 35.4606C25.2375 35.4606 22.3155 37.913 22.3155 41.8002C22.3155 45.6875 25.2375 48.1659 28.4986 48.1659C30.0639 48.1659 31.7597 47.4876 32.5945 46.1571V47.905ZM25.0809 41.7741C25.0809 39.5305 26.8028 38.0695 28.8116 38.0695C30.6378 38.0695 32.5684 39.4001 32.5684 41.7741C32.5684 44.1743 30.7944 45.557 28.8116 45.557C26.8028 45.557 25.0809 44.0178 25.0809 41.7741Z" fill="white"/>
    <path d="M41.7087 35.7215H39.0215V53.8272H41.7087V46.1571C42.4653 47.5137 44.1089 48.1659 45.7785 48.1659C49.0657 48.1659 51.8311 45.7135 51.8311 41.8263C51.8311 37.9913 49.0657 35.4606 45.7785 35.4606C44.1089 35.4606 42.4653 36.1911 41.7087 37.5217V35.7215ZM41.7348 41.8785C41.7348 39.5044 43.4566 38.0695 45.4394 38.0695C47.4482 38.0695 49.0918 39.6088 49.0918 41.8785C49.0918 44.1221 47.4482 45.5831 45.4394 45.5831C43.561 45.5831 41.7348 44.3048 41.7348 41.8785Z" fill="white"/>
    <path d="M57.504 35.7215H54.843V47.905H57.504V35.7215ZM54.3734 30.7907C54.3734 31.756 55.2082 32.4865 56.1735 32.4865C57.191 32.4865 57.9475 31.756 57.9475 30.7907C57.9475 29.8255 57.191 29.095 56.1735 29.095C55.2082 29.095 54.3734 29.8255 54.3734 30.7907Z" fill="white"/>
    <path d="M64.9157 31.1038H62.2285V35.7215H60.0371V37.9391H62.2285V47.905H64.9157V37.9391H67.4985V35.7215H64.9157V31.1038Z" fill="white"/>
    <path d="M79.3455 47.905H82.0065V35.7215H79.3455V37.4434C78.5106 36.0607 76.7105 35.4606 75.2495 35.4606C71.9884 35.4606 69.0665 37.913 69.0665 41.8002C69.0665 45.6875 71.9884 48.1659 75.2495 48.1659C76.8149 48.1659 78.5106 47.4876 79.3455 46.1571V47.905ZM71.8319 41.7741C71.8319 39.5305 73.5537 38.0695 75.5626 38.0695C77.3888 38.0695 79.3194 39.4001 79.3194 41.7741C79.3194 44.1743 77.5453 45.557 75.5626 45.557C73.5537 45.557 71.8319 44.0178 71.8319 41.7741Z" fill="white"/>
    <path d="M85.7725 47.905H88.4596V29.095H85.7725V47.905Z" fill="white"/>
</svg>
