<svg width="120" height="40" viewBox="0 0 120 40" fill="none" xmlns="http://www.w3.org/2000/svg">
    <path d="M0 32.7681V0L11.742 6.74157V40L0 32.7681ZM17.743 32.7681V0L29.4849 6.74157V40L17.743 32.7681ZM35.4859 32.7681V0L47.2279 6.74157V40L35.4859 32.7681ZM71.992 3.82022H76.3527V24.0041H71.6319L66.9912 16.2819C65.3909 13.667 64.2307 11.6445 63.5106 10.1941C63.6306 12.523 63.6706 15.1379 63.6706 17.998V23.9837H59.3099V3.7998H64.1507L69.1915 12.2165C70.5918 14.525 71.5519 16.2002 72.112 17.2421C72.032 15.6486 71.992 13.3401 71.992 10.2758V3.82022ZM88.3747 16.3841V12.523H97.7763V24.0041H94.3557L94.1957 22.2676C93.0555 23.7385 91.2552 24.474 88.7748 24.474C85.8143 24.474 83.4539 23.4934 81.7136 21.5117C79.9733 19.5301 79.0932 16.9969 79.0932 13.8713C79.0532 10.8069 79.9733 8.27375 81.8136 6.29213C83.6939 4.29009 86.1544 3.28907 89.2149 3.32993C90.9352 3.32993 92.4554 3.61593 93.7756 4.18795C95.1159 4.75996 96.4561 5.72013 97.8363 7.08887L94.9958 10.0919C93.8756 9.09091 92.8955 8.39633 92.0153 7.98774C91.1352 7.59959 90.215 7.3953 89.2149 7.3953C87.5146 7.3953 86.1544 7.94688 85.1542 9.07048C84.174 10.1941 83.6739 11.7875 83.6739 13.8509C83.6739 15.9755 84.154 17.6098 85.1142 18.7743C86.0943 19.9183 87.4346 20.4699 89.1149 20.4699C90.5551 20.4699 91.6753 20.1226 92.4754 19.428C93.2955 18.713 93.6956 17.7324 93.6956 16.4658V16.3841H88.3747ZM110.158 3.3095C111.739 3.3095 113.079 3.55465 114.199 4.02451C115.339 4.51481 116.499 5.31154 117.68 6.41471L115.019 9.5812C114.039 8.72319 113.199 8.15117 112.479 7.84474C111.799 7.51787 110.998 7.35444 110.118 7.35444C108.458 7.35444 107.158 7.94689 106.158 9.11134C105.198 10.2758 104.717 11.8488 104.717 13.8509C104.717 15.8733 105.198 17.4872 106.158 18.6517C107.138 19.8161 108.458 20.4086 110.078 20.4086C111.039 20.4086 111.879 20.2247 112.579 19.8774C113.299 19.5301 114.219 18.9173 115.339 17.998L117.92 21.1236C116.699 22.288 115.459 23.1256 114.219 23.6772C112.999 24.2084 111.639 24.474 110.138 24.474C107.098 24.474 104.657 23.4729 102.857 21.4913C101.037 19.4893 100.137 16.9152 100.137 13.7896C100.137 10.7252 101.037 8.19203 102.837 6.23085C104.637 4.29009 107.078 3.3095 110.158 3.3095ZM62.6104 37.3238L65.3509 29.0501H64.6108L62.2104 36.6088H62.1704L59.79 29.0705H59.0098L61.7303 37.3442H62.6104V37.3238ZM70.7918 37.4668C71.912 37.4668 72.7321 36.8744 73.1122 35.9959L72.6121 35.6486C72.292 36.4454 71.6519 36.8744 70.8118 36.8744C69.5916 36.8744 68.8715 35.9959 68.8715 34.7293V34.4229H73.2722V34.096C73.2722 32.3187 72.292 31.1134 70.7718 31.1134C69.1915 31.1134 68.1914 32.2983 68.1914 34.2799C68.1914 36.2615 69.2115 37.4668 70.7918 37.4668ZM70.7718 31.6854C71.832 31.6854 72.5521 32.523 72.5521 33.81V33.9122H68.8715V33.8509C68.8915 32.5638 69.6316 31.6854 70.7718 31.6854ZM77.933 37.3238V33.0541C77.933 32.1553 78.7131 31.7263 79.5533 31.7263C80.5334 31.7263 81.0735 32.3187 81.0735 33.5444V37.3238H81.7336V33.4219C81.7336 31.951 80.9935 31.1134 79.7333 31.1134C78.7731 31.1134 78.253 31.5833 77.973 32.2166H77.933V31.2564H77.2729V37.3238H77.933ZM88.3347 37.3238V36.7314H87.0745V31.8488H88.4147V31.2564H87.0745V29.5608H86.4744V30.7865C86.4744 31.1338 86.3744 31.2564 86.0543 31.2564H85.3742V31.8488H86.4144V36.5679C86.4144 37.0174 86.6744 37.3238 87.1545 37.3238H88.3347ZM96.036 37.3238H96.6961V31.2564H96.036V35.5056C96.036 36.4249 95.2559 36.8539 94.4357 36.8539C93.4556 36.8539 92.9155 36.2615 92.9155 35.0153V31.2564H92.2554V35.1583C92.2554 36.6292 93.0155 37.4668 94.2757 37.4668C95.2959 37.4668 95.776 36.9356 95.996 36.3636H96.036V37.3238ZM101.837 37.3238V33.1767C101.837 32.4004 102.537 31.9305 103.537 31.9305H104.057V31.2768H103.657C102.637 31.2768 102.117 31.7875 101.877 32.3596H101.837V31.2768H101.177V37.3442H101.837V37.3238ZM109.738 37.4668C110.858 37.4668 111.679 36.8744 112.059 35.9959L111.579 35.6691C111.259 36.4658 110.618 36.8948 109.778 36.8948C108.558 36.8948 107.838 36.0163 107.838 34.7497V34.4229H112.239V34.096C112.239 32.3187 111.259 31.1134 109.738 31.1134C108.158 31.1134 107.158 32.2983 107.158 34.2799C107.158 36.2615 108.138 37.4668 109.738 37.4668ZM109.718 31.6854C110.778 31.6854 111.499 32.523 111.499 33.81V33.9122H107.818V33.8509C107.838 32.5638 108.578 31.6854 109.718 31.6854ZM117.9 37.4668C119.2 37.4668 120 36.7926 120 35.6691C120 34.6885 119.44 34.1573 118.22 33.9734L117.74 33.9122C116.899 33.7692 116.459 33.5036 116.459 32.809C116.459 32.1144 116.959 31.7263 117.8 31.7263C118.62 31.7263 119.1 32.1144 119.42 32.5026L119.86 32.094C119.42 31.5424 118.82 31.1542 117.84 31.1542C116.699 31.1542 115.819 31.7263 115.819 32.8498C115.819 33.9326 116.559 34.382 117.64 34.5455L118.12 34.6272C118.98 34.7497 119.34 35.1175 119.34 35.7712C119.34 36.5066 118.82 36.9152 117.92 36.9152C117.14 36.9152 116.559 36.5884 116.079 35.9346L115.599 36.3228C116.159 37.0582 116.879 37.4668 117.9 37.4668Z" fill="white"/>
</svg>
