<svg width="310" height="56" viewBox="0 0 310 56" fill="none" xmlns="http://www.w3.org/2000/svg">
    <rect opacity="0.2" x="0.7" y="0.7" width="308.6" height="54.6" stroke="white" stroke-width="1.4"/>
    <path d="M37.3574 32.5098L41.4199 20.7812H43.4707L38.1973 35H36.5371L31.2734 20.7812H33.3145L37.3574 32.5098ZM51.1758 35C51.0716 34.7917 50.987 34.4206 50.9219 33.8867C50.082 34.7591 49.0794 35.1953 47.9141 35.1953C46.8724 35.1953 46.0163 34.9023 45.3457 34.3164C44.6816 33.724 44.3496 32.9753 44.3496 32.0703C44.3496 30.9701 44.7663 30.1172 45.5996 29.5117C46.4395 28.8997 47.6178 28.5938 49.1348 28.5938H50.8926V27.7637C50.8926 27.1322 50.7038 26.6309 50.3262 26.2598C49.9486 25.8822 49.3919 25.6934 48.6562 25.6934C48.0117 25.6934 47.4714 25.8561 47.0352 26.1816C46.599 26.5072 46.3809 26.901 46.3809 27.3633H44.5645C44.5645 26.8359 44.75 26.3281 45.1211 25.8398C45.4987 25.3451 46.0065 24.9544 46.6445 24.668C47.2891 24.3815 47.9954 24.2383 48.7637 24.2383C49.9811 24.2383 50.9349 24.5443 51.625 25.1562C52.3151 25.7617 52.6732 26.5983 52.6992 27.666V32.5293C52.6992 33.4993 52.8229 34.2708 53.0703 34.8438V35H51.1758ZM48.1777 33.623C48.7441 33.623 49.2812 33.4766 49.7891 33.1836C50.2969 32.8906 50.6647 32.5098 50.8926 32.041V29.873H49.4766C47.263 29.873 46.1562 30.5208 46.1562 31.8164C46.1562 32.3828 46.3451 32.8255 46.7227 33.1445C47.1003 33.4635 47.5853 33.623 48.1777 33.623ZM57.4941 35H55.6875V20H57.4941V35ZM66.918 33.9551C66.2148 34.7819 65.1829 35.1953 63.8223 35.1953C62.696 35.1953 61.8366 34.8698 61.2441 34.2188C60.6582 33.5612 60.362 32.5911 60.3555 31.3086V24.4336H62.1621V31.2598C62.1621 32.8613 62.8132 33.6621 64.1152 33.6621C65.4954 33.6621 66.4134 33.1478 66.8691 32.1191V24.4336H68.6758V35H66.957L66.918 33.9551ZM75.8145 35.1953C74.3822 35.1953 73.2168 34.7266 72.3184 33.7891C71.4199 32.8451 70.9707 31.5853 70.9707 30.0098V29.6777C70.9707 28.6296 71.1693 27.6953 71.5664 26.875C71.9701 26.0482 72.5299 25.4036 73.2461 24.9414C73.9688 24.4727 74.75 24.2383 75.5898 24.2383C76.9635 24.2383 78.0312 24.6908 78.793 25.5957C79.5547 26.5007 79.9355 27.7962 79.9355 29.4824V30.2344H72.7773C72.8034 31.276 73.1061 32.1191 73.6855 32.7637C74.2715 33.4017 75.0137 33.7207 75.9121 33.7207C76.5501 33.7207 77.0905 33.5905 77.5332 33.3301C77.9759 33.0697 78.3633 32.7246 78.6953 32.2949L79.7988 33.1543C78.9134 34.515 77.5853 35.1953 75.8145 35.1953ZM75.5898 25.7227C74.8607 25.7227 74.2487 25.9896 73.7539 26.5234C73.2591 27.0508 72.9531 27.793 72.8359 28.75H78.1289V28.6133C78.0768 27.6953 77.8294 26.9857 77.3867 26.4844C76.944 25.9766 76.3451 25.7227 75.5898 25.7227ZM81.9668 29.2285C81.9668 27.7572 82.1621 26.3444 82.5527 24.9902C82.9499 23.6361 83.5391 22.4056 84.3203 21.2988C85.1016 20.1921 85.9121 19.4108 86.752 18.9551L87.123 20.1465C86.1725 20.8757 85.3913 21.9889 84.7793 23.4863C84.1738 24.9837 83.8418 26.6602 83.7832 28.5156L83.7734 29.3457C83.7734 31.8587 84.2324 34.0397 85.1504 35.8887C85.7038 36.9954 86.3613 37.8613 87.123 38.4863L86.752 39.5898C85.8861 39.1081 85.0592 38.3008 84.2715 37.168C82.735 34.9544 81.9668 32.3079 81.9668 29.2285ZM90.834 35H89.0273V20H90.834V35ZM93.2559 29.6191C93.2559 28.584 93.4577 27.653 93.8613 26.8262C94.2715 25.9993 94.8379 25.3613 95.5605 24.9121C96.2897 24.4629 97.1198 24.2383 98.0508 24.2383C99.4896 24.2383 100.652 24.7363 101.537 25.7324C102.429 26.7285 102.875 28.0534 102.875 29.707V29.834C102.875 30.8626 102.676 31.7871 102.279 32.6074C101.889 33.4212 101.326 34.056 100.59 34.5117C99.8607 34.9674 99.0208 35.1953 98.0703 35.1953C96.638 35.1953 95.4759 34.6973 94.584 33.7012C93.6986 32.7051 93.2559 31.3867 93.2559 29.7461V29.6191ZM95.0723 29.834C95.0723 31.0059 95.3424 31.9466 95.8828 32.6562C96.4297 33.3659 97.1589 33.7207 98.0703 33.7207C98.9883 33.7207 99.7174 33.3626 100.258 32.6465C100.798 31.9238 101.068 30.9147 101.068 29.6191C101.068 28.4603 100.792 27.5228 100.238 26.8066C99.6914 26.084 98.9622 25.7227 98.0508 25.7227C97.1589 25.7227 96.4395 26.0775 95.8926 26.7871C95.3457 27.4967 95.0723 28.5124 95.0723 29.834ZM106.85 24.4336L106.908 25.7617C107.715 24.7461 108.77 24.2383 110.072 24.2383C112.305 24.2383 113.432 25.498 113.451 28.0176V35H111.645V28.0078C111.638 27.2461 111.462 26.6829 111.117 26.3184C110.779 25.9538 110.248 25.7715 109.525 25.7715C108.939 25.7715 108.425 25.9277 107.982 26.2402C107.54 26.5527 107.195 26.9629 106.947 27.4707V35H105.141V24.4336H106.85ZM115.746 29.6289C115.746 27.9818 116.127 26.6732 116.889 25.7031C117.65 24.7266 118.66 24.2383 119.916 24.2383C121.205 24.2383 122.211 24.694 122.934 25.6055L123.021 24.4336H124.672V34.7461C124.672 36.1133 124.265 37.1908 123.451 37.9785C122.644 38.7663 121.557 39.1602 120.189 39.1602C119.428 39.1602 118.682 38.9974 117.953 38.6719C117.224 38.3464 116.667 37.9004 116.283 37.334L117.221 36.25C117.995 37.207 118.943 37.6855 120.062 37.6855C120.941 37.6855 121.625 37.4382 122.113 36.9434C122.608 36.4486 122.855 35.752 122.855 34.8535V33.9453C122.133 34.7786 121.146 35.1953 119.896 35.1953C118.66 35.1953 117.657 34.6973 116.889 33.7012C116.127 32.7051 115.746 31.3477 115.746 29.6289ZM117.562 29.834C117.562 31.0254 117.807 31.9629 118.295 32.6465C118.783 33.3236 119.467 33.6621 120.346 33.6621C121.485 33.6621 122.322 33.1445 122.855 32.1094V27.2852C122.302 26.276 121.472 25.7715 120.365 25.7715C119.486 25.7715 118.799 26.1133 118.305 26.7969C117.81 27.4805 117.562 28.4928 117.562 29.834ZM131.576 29.3262C131.576 30.778 131.384 32.1712 131 33.5059C130.622 34.834 130.04 36.0612 129.252 37.1875C128.471 38.3138 127.65 39.1146 126.791 39.5898L126.41 38.4863C127.413 37.7181 128.217 36.5267 128.822 34.9121C129.434 33.291 129.747 31.4941 129.76 29.5215V29.209C129.76 27.8418 129.617 26.5723 129.33 25.4004C129.044 24.222 128.643 23.1673 128.129 22.2363C127.621 21.3053 127.048 20.5794 126.41 20.0586L126.791 18.9551C127.65 19.4303 128.467 20.2246 129.242 21.3379C130.023 22.4512 130.606 23.6784 130.99 25.0195C131.381 26.3607 131.576 27.7962 131.576 29.3262ZM139.535 27.373H143.5V29.082H139.535V33.5742H137.719V29.082H133.754V27.373H137.719V23.2227H139.535V27.373ZM150.697 32.5098L154.76 20.7812H156.811L151.537 35H149.877L144.613 20.7812H146.654L150.697 32.5098ZM164.516 35C164.411 34.7917 164.327 34.4206 164.262 33.8867C163.422 34.7591 162.419 35.1953 161.254 35.1953C160.212 35.1953 159.356 34.9023 158.686 34.3164C158.021 33.724 157.689 32.9753 157.689 32.0703C157.689 30.9701 158.106 30.1172 158.939 29.5117C159.779 28.8997 160.958 28.5938 162.475 28.5938H164.232V27.7637C164.232 27.1322 164.044 26.6309 163.666 26.2598C163.288 25.8822 162.732 25.6934 161.996 25.6934C161.352 25.6934 160.811 25.8561 160.375 26.1816C159.939 26.5072 159.721 26.901 159.721 27.3633H157.904C157.904 26.8359 158.09 26.3281 158.461 25.8398C158.839 25.3451 159.346 24.9544 159.984 24.668C160.629 24.3815 161.335 24.2383 162.104 24.2383C163.321 24.2383 164.275 24.5443 164.965 25.1562C165.655 25.7617 166.013 26.5983 166.039 27.666V32.5293C166.039 33.4993 166.163 34.2708 166.41 34.8438V35H164.516ZM161.518 33.623C162.084 33.623 162.621 33.4766 163.129 33.1836C163.637 32.8906 164.005 32.5098 164.232 32.041V29.873H162.816C160.603 29.873 159.496 30.5208 159.496 31.8164C159.496 32.3828 159.685 32.8255 160.062 33.1445C160.44 33.4635 160.925 33.623 161.518 33.623ZM170.834 35H169.027V20H170.834V35ZM180.258 33.9551C179.555 34.7819 178.523 35.1953 177.162 35.1953C176.036 35.1953 175.176 34.8698 174.584 34.2188C173.998 33.5612 173.702 32.5911 173.695 31.3086V24.4336H175.502V31.2598C175.502 32.8613 176.153 33.6621 177.455 33.6621C178.835 33.6621 179.753 33.1478 180.209 32.1191V24.4336H182.016V35H180.297L180.258 33.9551ZM189.154 35.1953C187.722 35.1953 186.557 34.7266 185.658 33.7891C184.76 32.8451 184.311 31.5853 184.311 30.0098V29.6777C184.311 28.6296 184.509 27.6953 184.906 26.875C185.31 26.0482 185.87 25.4036 186.586 24.9414C187.309 24.4727 188.09 24.2383 188.93 24.2383C190.303 24.2383 191.371 24.6908 192.133 25.5957C192.895 26.5007 193.275 27.7962 193.275 29.4824V30.2344H186.117C186.143 31.276 186.446 32.1191 187.025 32.7637C187.611 33.4017 188.354 33.7207 189.252 33.7207C189.89 33.7207 190.43 33.5905 190.873 33.3301C191.316 33.0697 191.703 32.7246 192.035 32.2949L193.139 33.1543C192.253 34.515 190.925 35.1953 189.154 35.1953ZM188.93 25.7227C188.201 25.7227 187.589 25.9896 187.094 26.5234C186.599 27.0508 186.293 27.793 186.176 28.75H191.469V28.6133C191.417 27.6953 191.169 26.9857 190.727 26.4844C190.284 25.9766 189.685 25.7227 188.93 25.7227ZM195.307 29.2285C195.307 27.7572 195.502 26.3444 195.893 24.9902C196.29 23.6361 196.879 22.4056 197.66 21.2988C198.441 20.1921 199.252 19.4108 200.092 18.9551L200.463 20.1465C199.512 20.8757 198.731 21.9889 198.119 23.4863C197.514 24.9837 197.182 26.6602 197.123 28.5156L197.113 29.3457C197.113 31.8587 197.572 34.0397 198.49 35.8887C199.044 36.9954 199.701 37.8613 200.463 38.4863L200.092 39.5898C199.226 39.1081 198.399 38.3008 197.611 37.168C196.075 34.9544 195.307 32.3079 195.307 29.2285ZM208.363 32.1973C208.363 31.709 208.178 31.3314 207.807 31.0645C207.442 30.791 206.801 30.5566 205.883 30.3613C204.971 30.166 204.245 29.9316 203.705 29.6582C203.171 29.3848 202.774 29.0592 202.514 28.6816C202.26 28.304 202.133 27.8548 202.133 27.334C202.133 26.4681 202.497 25.7357 203.227 25.1367C203.962 24.5378 204.9 24.2383 206.039 24.2383C207.237 24.2383 208.207 24.5475 208.949 25.166C209.698 25.7845 210.072 26.5755 210.072 27.5391H208.256C208.256 27.0443 208.044 26.6178 207.621 26.2598C207.204 25.9017 206.677 25.7227 206.039 25.7227C205.382 25.7227 204.867 25.8659 204.496 26.1523C204.125 26.4388 203.939 26.8132 203.939 27.2754C203.939 27.7116 204.112 28.0404 204.457 28.2617C204.802 28.4831 205.424 28.6947 206.322 28.8965C207.227 29.0983 207.96 29.3392 208.52 29.6191C209.079 29.8991 209.493 30.2376 209.76 30.6348C210.033 31.0254 210.17 31.5039 210.17 32.0703C210.17 33.0143 209.792 33.7728 209.037 34.3457C208.282 34.9121 207.302 35.1953 206.098 35.1953C205.251 35.1953 204.503 35.0456 203.852 34.7461C203.201 34.4466 202.689 34.0299 202.318 33.4961C201.954 32.9557 201.771 32.373 201.771 31.748H203.578C203.611 32.3535 203.852 32.8353 204.301 33.1934C204.757 33.5449 205.355 33.7207 206.098 33.7207C206.781 33.7207 207.328 33.584 207.738 33.3105C208.155 33.0306 208.363 32.6595 208.363 32.1973ZM214.33 25.7129C215.131 24.7298 216.173 24.2383 217.455 24.2383C219.688 24.2383 220.814 25.498 220.834 28.0176V35H219.027V28.0078C219.021 27.2461 218.845 26.6829 218.5 26.3184C218.161 25.9538 217.631 25.7715 216.908 25.7715C216.322 25.7715 215.808 25.9277 215.365 26.2402C214.923 26.5527 214.577 26.9629 214.33 27.4707V35H212.523V20H214.33V25.7129ZM223.061 29.6191C223.061 28.584 223.262 27.653 223.666 26.8262C224.076 25.9993 224.643 25.3613 225.365 24.9121C226.094 24.4629 226.924 24.2383 227.855 24.2383C229.294 24.2383 230.456 24.7363 231.342 25.7324C232.234 26.7285 232.68 28.0534 232.68 29.707V29.834C232.68 30.8626 232.481 31.7871 232.084 32.6074C231.693 33.4212 231.13 34.056 230.395 34.5117C229.665 34.9674 228.826 35.1953 227.875 35.1953C226.443 35.1953 225.281 34.6973 224.389 33.7012C223.503 32.7051 223.061 31.3867 223.061 29.7461V29.6191ZM224.877 29.834C224.877 31.0059 225.147 31.9466 225.688 32.6562C226.234 33.3659 226.964 33.7207 227.875 33.7207C228.793 33.7207 229.522 33.3626 230.062 32.6465C230.603 31.9238 230.873 30.9147 230.873 29.6191C230.873 28.4603 230.596 27.5228 230.043 26.8066C229.496 26.084 228.767 25.7227 227.855 25.7227C226.964 25.7227 226.244 26.0775 225.697 26.7871C225.15 27.4967 224.877 28.5124 224.877 29.834ZM240.053 26.0547C239.779 26.0091 239.483 25.9863 239.164 25.9863C237.979 25.9863 237.175 26.4909 236.752 27.5V35H234.945V24.4336H236.703L236.732 25.6543C237.325 24.7103 238.165 24.2383 239.252 24.2383C239.604 24.2383 239.87 24.2839 240.053 24.375V26.0547ZM244.662 21.875V24.4336H246.635V25.8301H244.662V32.3828C244.662 32.806 244.75 33.125 244.926 33.3398C245.102 33.5482 245.401 33.6523 245.824 33.6523C246.033 33.6523 246.319 33.6133 246.684 33.5352V35C246.208 35.1302 245.746 35.1953 245.297 35.1953C244.49 35.1953 243.881 34.9512 243.471 34.4629C243.061 33.9746 242.855 33.2812 242.855 32.3828V25.8301H240.932V24.4336H242.855V21.875H244.662ZM252.924 29.3262C252.924 30.778 252.732 32.1712 252.348 33.5059C251.97 34.834 251.387 36.0612 250.6 37.1875C249.818 38.3138 248.998 39.1146 248.139 39.5898L247.758 38.4863C248.76 37.7181 249.564 36.5267 250.17 34.9121C250.782 33.291 251.094 31.4941 251.107 29.5215V29.209C251.107 27.8418 250.964 26.5723 250.678 25.4004C250.391 24.222 249.991 23.1673 249.477 22.2363C248.969 21.3053 248.396 20.5794 247.758 20.0586L248.139 18.9551C248.998 19.4303 249.815 20.2246 250.59 21.3379C251.371 22.4512 251.954 23.6784 252.338 25.0195C252.729 26.3607 252.924 27.7962 252.924 29.3262ZM263.969 27.0508H255.824V25.4785H263.969V27.0508ZM263.969 31.1035H255.824V29.541H263.969V31.1035ZM277.426 30.4883C277.25 31.9922 276.693 33.1543 275.756 33.9746C274.825 34.7884 273.585 35.1953 272.035 35.1953C270.355 35.1953 269.008 34.5931 267.992 33.3887C266.983 32.1842 266.479 30.5729 266.479 28.5547V27.1875C266.479 25.8659 266.713 24.7038 267.182 23.7012C267.657 22.6986 268.327 21.9303 269.193 21.3965C270.059 20.8561 271.062 20.5859 272.201 20.5859C273.712 20.5859 274.923 21.0091 275.834 21.8555C276.745 22.6953 277.276 23.8607 277.426 25.3516H275.541C275.378 24.2188 275.023 23.3984 274.477 22.8906C273.936 22.3828 273.178 22.1289 272.201 22.1289C271.003 22.1289 270.062 22.5716 269.379 23.457C268.702 24.3424 268.363 25.6022 268.363 27.2363V28.6133C268.363 30.1562 268.686 31.3835 269.33 32.2949C269.975 33.2064 270.876 33.6621 272.035 33.6621C273.077 33.6621 273.874 33.4277 274.428 32.959C274.988 32.4837 275.359 31.6602 275.541 30.4883H277.426Z" fill="white"/>
</svg>
