<svg width="171" height="34" viewBox="0 0 171 34" fill="none" xmlns="http://www.w3.org/2000/svg">
    <path d="M18.2153 1.81306C18.121 1.27802 17.6108 0.920768 17.0757 1.01511C16.5407 1.10945 16.1834 1.61966 16.2778 2.1547L16.7279 4.70743C15.9324 4.09866 15.0705 3.65828 14.1419 3.40193C12.8275 3.02728 11.5033 3.04611 10.1933 3.45535C8.88187 3.83253 7.69999 4.56806 6.64727 5.62077L3.90278 8.36526C2.26719 10.0009 1.27298 11.7982 1.0468 13.7559C0.816361 15.7172 1.43954 17.4454 2.85843 18.8642L4.19424 20.2001C5.39156 21.3974 6.84086 22.0134 8.49595 21.9939L8.50725 21.9937C10.1545 21.9554 11.7926 21.2956 13.4069 20.1326C13.8477 19.815 13.9476 19.2003 13.63 18.7594C13.3124 18.3186 12.6976 18.2187 12.2568 18.5363C10.8618 19.5413 9.60337 19.9989 8.46717 20.0267C7.37207 20.0382 6.42681 19.6503 5.58542 18.8089L4.24961 17.4731C3.24001 16.4635 2.84308 15.326 3.00089 13.9847L3.00114 13.9825C3.1638 12.5728 3.88584 11.1646 5.29397 9.75645L8.03845 7.01196C8.89302 6.15739 9.79572 5.61509 10.7462 5.34353L10.7586 5.33998L10.7709 5.33612C11.7222 5.03713 12.6591 5.02444 13.6059 5.29496L13.615 5.29751C14.2824 5.48129 14.9257 5.80329 15.5449 6.2795L13.086 6.71308C12.5509 6.80742 12.1937 7.31763 12.288 7.85267C12.3823 8.38771 12.8926 8.74496 13.4276 8.65062L19.2402 7.6257L18.2153 1.81306Z" fill="white"/>
    <path d="M19.9501 20.1864C19.7874 21.5961 19.0654 23.0043 17.6572 24.4124L14.9127 27.1569C14.0582 28.0115 13.1555 28.5538 12.205 28.8254L12.1926 28.8289L12.1803 28.8328C11.229 29.1318 10.2921 29.1445 9.34526 28.8739L9.33617 28.8714C8.60686 28.6706 7.90636 28.3047 7.23468 27.7529L9.87733 27.2869C10.4124 27.1926 10.7696 26.6824 10.6753 26.1473C10.5809 25.6123 10.0707 25.255 9.53569 25.3494L3.72305 26.3743L4.74798 32.1869C4.84232 32.722 5.35253 33.0792 5.88757 32.9849C6.42261 32.8905 6.77986 32.3803 6.68552 31.8453L6.27166 29.4982C7.05365 30.088 7.89952 30.5158 8.80927 30.767C10.1237 31.1416 11.4479 31.1228 12.7579 30.7135C14.0693 30.3364 15.2512 29.6008 16.3039 28.5481L19.0484 25.8036C20.684 24.168 21.6782 22.3707 21.9044 20.413C22.1348 18.4517 21.5117 16.7235 20.0928 15.3046L18.757 13.9688C17.5596 12.7715 16.1103 12.1555 14.4553 12.175L14.444 12.1752C12.7967 12.2135 11.1586 12.8733 9.54435 14.0363C9.10354 14.3538 9.00364 14.9686 9.32121 15.4095C9.63878 15.8503 10.2536 15.9502 10.6944 15.6326C12.0894 14.6276 13.3478 14.17 14.484 14.1422C15.5791 14.1307 16.5244 14.5186 17.3658 15.36L18.7016 16.6958C19.7112 17.7054 20.1081 18.8428 19.9503 20.1842L19.9501 20.1864Z" fill="white"/>
    <path d="M18.2153 1.81306C18.121 1.27802 17.6108 0.920768 17.0757 1.01511C16.5407 1.10945 16.1834 1.61966 16.2778 2.1547L16.7279 4.70743C15.9324 4.09866 15.0705 3.65828 14.1419 3.40193C12.8275 3.02728 11.5033 3.04611 10.1933 3.45535C8.88187 3.83253 7.69999 4.56806 6.64727 5.62077L3.90278 8.36526C2.26719 10.0009 1.27298 11.7982 1.0468 13.7559C0.816361 15.7172 1.43954 17.4454 2.85843 18.8642L4.19424 20.2001C5.39156 21.3974 6.84086 22.0134 8.49595 21.9939L8.50725 21.9937C10.1545 21.9554 11.7926 21.2956 13.4069 20.1326C13.8477 19.815 13.9476 19.2003 13.63 18.7594C13.3124 18.3186 12.6976 18.2187 12.2568 18.5363C10.8618 19.5413 9.60337 19.9989 8.46717 20.0267C7.37207 20.0382 6.42681 19.6503 5.58542 18.8089L4.24961 17.4731C3.24001 16.4635 2.84308 15.326 3.00089 13.9847L3.00114 13.9825C3.1638 12.5728 3.88584 11.1646 5.29397 9.75645L8.03845 7.01196C8.89302 6.15739 9.79572 5.61509 10.7462 5.34353L10.7586 5.33998L10.7709 5.33612C11.7222 5.03713 12.6591 5.02444 13.6059 5.29496L13.615 5.29751C14.2824 5.48129 14.9257 5.80329 15.5449 6.2795L13.086 6.71308C12.5509 6.80742 12.1937 7.31763 12.288 7.85267C12.3823 8.38771 12.8926 8.74496 13.4276 8.65062L19.2402 7.6257L18.2153 1.81306Z" stroke="white" stroke-width="0.3" stroke-linecap="round"/>
    <path d="M19.9501 20.1864C19.7874 21.5961 19.0654 23.0043 17.6572 24.4124L14.9127 27.1569C14.0582 28.0115 13.1555 28.5538 12.205 28.8254L12.1926 28.8289L12.1803 28.8328C11.229 29.1318 10.2921 29.1445 9.34526 28.8739L9.33617 28.8714C8.60686 28.6706 7.90636 28.3047 7.23468 27.7529L9.87733 27.2869C10.4124 27.1926 10.7696 26.6824 10.6753 26.1473C10.5809 25.6123 10.0707 25.255 9.53569 25.3494L3.72305 26.3743L4.74798 32.1869C4.84232 32.722 5.35253 33.0792 5.88757 32.9849C6.42261 32.8905 6.77986 32.3803 6.68552 31.8453L6.27166 29.4982C7.05365 30.088 7.89952 30.5158 8.80927 30.767C10.1237 31.1416 11.4479 31.1228 12.7579 30.7135C14.0693 30.3364 15.2512 29.6008 16.3039 28.5481L19.0484 25.8036C20.684 24.168 21.6782 22.3707 21.9044 20.413C22.1348 18.4517 21.5117 16.7235 20.0928 15.3046L18.757 13.9688C17.5596 12.7715 16.1103 12.1555 14.4553 12.175L14.444 12.1752C12.7967 12.2135 11.1586 12.8733 9.54435 14.0363C9.10354 14.3538 9.00364 14.9686 9.32121 15.4095C9.63878 15.8503 10.2536 15.9502 10.6944 15.6326C12.0894 14.6276 13.3478 14.17 14.484 14.1422C15.5791 14.1307 16.5244 14.5186 17.3658 15.36L18.7016 16.6958C19.7112 17.7054 20.1081 18.8428 19.9503 20.1842L19.9501 20.1864Z" stroke="white" stroke-width="0.3" stroke-linecap="round"/>
    <path d="M47.4149 20.6445C46.1181 23.9585 43.4011 25.6361 39.2637 25.6772C37.4729 25.6772 35.8879 25.2964 34.5088 24.5348C33.1297 23.7526 32.0593 22.6823 31.2977 21.3237C30.5361 19.9652 30.1553 18.4008 30.1553 16.6306C30.1553 14.9015 30.5258 13.3577 31.2668 11.9992C32.0284 10.6407 33.0988 9.58058 34.4779 8.81897C35.8776 8.03678 37.4832 7.64569 39.2946 7.64569C40.5913 7.64569 41.7543 7.8927 42.7835 8.38671C43.8127 8.86014 44.6155 9.51883 45.1919 10.3628V7.95445H47.0444V13.2034L45.3771 13.2651C44.739 11.9477 43.9362 10.9906 42.9688 10.3936C42.0013 9.79671 40.8178 9.49825 39.4181 9.49825C38.0801 9.49825 36.8965 9.8173 35.8673 10.4554C34.8587 11.0729 34.0765 11.9169 33.5208 12.9872C32.965 14.0576 32.6871 15.2618 32.6871 16.5997C32.6871 18.0406 32.9753 19.3065 33.5516 20.3974C34.128 21.4884 34.9308 22.3323 35.96 22.9293C36.9891 23.5262 38.1418 23.8247 39.4181 23.8247C40.8178 23.8247 42.0631 23.4953 43.154 22.8366C44.2656 22.178 45.0684 21.1385 45.5624 19.7182L47.4149 20.6445Z" fill="white"/>
    <path d="M64.8919 23.7012V25.3376H58.3771V23.7012H60.384V17.3716C60.384 16.5277 60.1782 15.869 59.7665 15.3955C59.3754 14.9221 58.8196 14.6854 58.0992 14.6854C56.8642 14.6854 55.5262 15.1588 54.0853 16.1057V23.7012H56.0614V25.3376H49.5466V23.7012H51.8005V9.25124H49.5774V7.64569H54.0853V14.5619C55.7526 13.4504 57.2758 12.8946 58.655 12.8946C59.8077 12.8946 60.7648 13.2548 61.5264 13.9753C62.288 14.6751 62.6688 15.6631 62.6688 16.9393V23.7012H64.8919Z" fill="white"/>
    <path d="M78.8937 23.7012V25.3376H74.9724L74.8489 24.2569C74.1902 24.751 73.5315 25.1112 72.8729 25.3376C72.2142 25.564 71.4731 25.6772 70.6498 25.6772C69.4147 25.6772 68.4061 25.3376 67.6239 24.6583C66.8623 23.9585 66.4815 23.0939 66.4815 22.0647C66.4815 20.7474 66.9241 19.7902 67.8092 19.1933C68.7149 18.5758 69.8985 18.267 71.3599 18.267C72.4097 18.267 73.5315 18.4008 74.7254 18.6684V17.4025C74.7254 16.4762 74.4681 15.7764 73.9535 15.3029C73.4595 14.8295 72.7596 14.5928 71.854 14.5928C71.257 14.5928 70.5675 14.6957 69.7853 14.9015C69.0237 15.0868 68.3238 15.3544 67.6857 15.7043L67.0064 14.2223C67.6857 13.79 68.4679 13.4607 69.353 13.2342C70.2587 13.0078 71.1026 12.8946 71.8848 12.8946C73.4698 12.8946 74.7151 13.2857 75.6208 14.0679C76.5265 14.8295 76.9794 15.869 76.9794 17.1863V23.7012H78.8937ZM68.6428 21.9412C68.6428 22.5793 68.8487 23.1042 69.2604 23.5159C69.6926 23.907 70.269 24.1026 70.9894 24.1026C72.2039 24.1026 73.4492 23.66 74.7254 22.7749V19.9961C73.6345 19.7491 72.5641 19.6255 71.5143 19.6255C70.691 19.6255 70.0014 19.8108 69.4456 20.1813C68.9104 20.5312 68.6428 21.1179 68.6428 21.9412Z" fill="white"/>
    <path d="M83.218 10.548C82.7446 10.548 82.3432 10.4039 82.0138 10.1158C81.7051 9.807 81.5507 9.4262 81.5507 8.97335C81.5507 8.52051 81.7051 8.15 82.0138 7.86182C82.3432 7.55306 82.7446 7.39868 83.218 7.39868C83.6914 7.39868 84.0825 7.55306 84.3913 7.86182C84.7206 8.15 84.8853 8.52051 84.8853 8.97335C84.8853 9.4262 84.7206 9.807 84.3913 10.1158C84.0825 10.4039 83.6914 10.548 83.218 10.548ZM80.0378 23.7012H82.3843V14.8398H80.0686V13.2034H84.6383V23.7012H86.8305V25.3376H80.0378V23.7012Z" fill="white"/>
    <path d="M103.491 23.7012V25.3376H96.9763V23.7012H98.9833V17.3716C98.9833 16.5277 98.7774 15.869 98.3658 15.3955C97.9541 14.9221 97.388 14.6854 96.6676 14.6854C96.0707 14.6854 95.4634 14.7986 94.8459 15.025C94.249 15.2309 93.5903 15.5499 92.8699 15.9822V23.7012H95.062V25.3376H88.2693V23.7012H90.6159V14.8398H88.2693V13.2034H92.8699V14.4075C94.4754 13.3989 95.9369 12.8946 97.2542 12.8946C98.4069 12.8946 99.3538 13.2548 100.095 13.9753C100.856 14.6751 101.237 15.6631 101.237 16.9393V23.7012H103.491Z" fill="white"/>
    <path d="M112.34 15.3338C114.481 15.7043 116.014 16.2704 116.941 17.032C117.888 17.773 118.361 18.9463 118.361 20.5518C118.361 21.4781 118.145 22.3323 117.713 23.1145C117.28 23.8761 116.642 24.4937 115.798 24.9671C114.954 25.4199 113.956 25.6464 112.803 25.6464C111.733 25.6464 110.755 25.4302 109.87 24.998C109.006 24.5657 108.296 23.9688 107.74 23.2072V25.3376H105.733V19.4712H107.585C107.709 20.768 108.223 21.828 109.129 22.6514C110.055 23.4542 111.249 23.8555 112.711 23.8555C113.781 23.8555 114.615 23.5982 115.212 23.0837C115.809 22.5691 116.107 21.8486 116.107 20.9223C116.107 20.1813 115.973 19.605 115.706 19.1933C115.438 18.761 115.006 18.4317 114.409 18.2053C113.833 17.9582 112.999 17.7421 111.908 17.5569L111.167 17.4334C109.417 17.1452 108.059 16.5894 107.091 15.7661C106.124 14.9221 105.64 13.79 105.64 12.3697C105.64 10.8671 106.134 9.70408 107.122 8.88073C108.11 8.03678 109.438 7.61481 111.105 7.61481C112.052 7.61481 112.906 7.77949 113.668 8.10883C114.45 8.41759 115.078 8.87043 115.551 9.46737V7.95445H117.527V12.8637H115.706C115.315 10.5583 113.822 9.40562 111.229 9.40562C110.179 9.40562 109.356 9.65262 108.759 10.1466C108.182 10.6407 107.894 11.2993 107.894 12.1227C107.894 12.9872 108.203 13.6665 108.82 14.1605C109.438 14.6339 110.374 14.9839 111.63 15.2103L112.34 15.3338Z" fill="white"/>
    <path d="M121.556 14.8398H119.95V13.2034H125.446V14.8398H123.779L126.65 23.0837L129.522 14.8398H127.792V13.2034H133.752V14.8398H131.992L134.987 23.1145L137.642 14.8398H135.944V13.2034H141.409V14.8398H139.711L136.067 25.3376H133.844L130.726 16.7232L127.607 25.3376H125.384L121.556 14.8398Z" fill="white"/>
    <path d="M155.36 23.7012V25.3376H151.439L151.315 24.2569C150.656 24.751 149.998 25.1112 149.339 25.3376C148.68 25.564 147.939 25.6772 147.116 25.6772C145.881 25.6772 144.872 25.3376 144.09 24.6583C143.329 23.9585 142.948 23.0939 142.948 22.0647C142.948 20.7474 143.39 19.7902 144.275 19.1933C145.181 18.5758 146.365 18.267 147.826 18.267C148.876 18.267 149.998 18.4008 151.192 18.6684V17.4025C151.192 16.4762 150.934 15.7764 150.42 15.3029C149.926 14.8295 149.226 14.5928 148.32 14.5928C147.723 14.5928 147.034 14.6957 146.251 14.9015C145.49 15.0868 144.79 15.3544 144.152 15.7043L143.473 14.2223C144.152 13.79 144.934 13.4607 145.819 13.2342C146.725 13.0078 147.569 12.8946 148.351 12.8946C149.936 12.8946 151.181 13.2857 152.087 14.0679C152.993 14.8295 153.446 15.869 153.446 17.1863V23.7012H155.36ZM145.109 21.9412C145.109 22.5793 145.315 23.1042 145.727 23.5159C146.159 23.907 146.735 24.1026 147.456 24.1026C148.67 24.1026 149.915 23.66 151.192 22.7749V19.9961C150.101 19.7491 149.03 19.6255 147.98 19.6255C147.157 19.6255 146.468 19.8108 145.912 20.1813C145.377 20.5312 145.109 21.1179 145.109 21.9412Z" fill="white"/>
    <path d="M164.902 12.8946C166.014 12.8946 167.012 13.1416 167.897 13.6356C168.803 14.109 169.513 14.8192 170.028 15.7661C170.542 16.6923 170.799 17.8039 170.799 19.1007C170.799 20.4386 170.511 21.6016 169.935 22.5896C169.379 23.5777 168.618 24.3393 167.65 24.8745C166.703 25.3891 165.664 25.6464 164.532 25.6464C163.811 25.6464 163.122 25.5331 162.463 25.3067C161.825 25.0803 161.3 24.7818 160.888 24.4113L160.857 28.5178H163.235V30.1542H156.411V28.5178H158.604V14.8398H156.473V13.2034H160.734L160.765 14.3458C161.362 13.8723 162.01 13.5121 162.71 13.2651C163.43 13.0181 164.161 12.8946 164.902 12.8946ZM164.13 23.9482C165.407 23.9482 166.436 23.5468 167.218 22.744C168.021 21.9207 168.422 20.768 168.422 19.2859C168.422 17.845 168.031 16.7129 167.249 15.8896C166.487 15.0662 165.499 14.6545 164.285 14.6545C163.791 14.6545 163.214 14.7574 162.556 14.9633C161.918 15.1691 161.351 15.4779 160.857 15.8896L160.888 22.7749C161.362 23.1454 161.876 23.4336 162.432 23.6394C163.008 23.8453 163.575 23.9482 164.13 23.9482Z" fill="white"/>
</svg>
