<svg width="401" height="401" viewBox="0 0 401 401" fill="none" xmlns="http://www.w3.org/2000/svg">
<mask id="mask0" mask-type="alpha" maskUnits="userSpaceOnUse" x="0" y="0" width="401" height="401">
<circle cx="200.5" cy="200.5" r="200.5" fill="url(#paint0_linear)"/>
</mask>
<g mask="url(#mask0)">
<path d="M1091.95 513.145C1121.18 429.491 897.771 275.204 592.952 168.535C288.134 61.8654 17.334 43.2073 -11.8962 126.861C-41.1265 210.514 182.282 364.801 487.1 471.471C791.919 578.14 1062.72 596.798 1091.95 513.145Z" stroke="white" stroke-opacity="0.23" stroke-miterlimit="10"/>
<path d="M1079.83 504.326C1108.11 423.391 890.714 273.682 594.266 169.942C297.817 66.2014 34.5727 47.7144 6.29223 128.65C-21.9882 209.585 195.405 359.294 491.853 463.034C788.301 566.774 1051.55 585.261 1079.83 504.326Z" stroke="white" stroke-opacity="0.23" stroke-miterlimit="10"/>
<path d="M1067.64 495.373C1094.99 417.1 883.627 271.924 595.548 171.113C307.47 70.302 51.7652 52.0308 24.4152 130.303C-2.93485 208.576 208.427 353.752 496.505 454.563C784.583 555.374 1040.29 573.645 1067.64 495.373Z" stroke="white" stroke-opacity="0.23" stroke-miterlimit="10"/>
<path d="M1055.52 486.554C1081.92 411 876.569 270.402 596.862 172.52C317.154 74.6381 69.0039 56.5379 42.6037 132.092C16.2034 207.647 221.55 348.245 501.258 446.127C780.966 544.009 1029.12 562.109 1055.52 486.554Z" stroke="white" stroke-opacity="0.23" stroke-miterlimit="10"/>
<path d="M1043.39 477.737C1068.84 404.9 869.513 268.88 598.175 173.927C326.837 78.9745 86.2426 61.0452 60.7921 133.881C35.3416 206.718 234.673 342.738 506.01 437.691C777.348 532.644 1017.94 550.573 1043.39 477.737Z" stroke="white" stroke-opacity="0.23" stroke-miterlimit="10"/>
<path d="M1031.17 468.883C1055.67 398.765 862.355 267.323 599.387 175.3C336.42 83.2756 103.381 65.5174 78.88 135.635C54.3793 205.753 247.695 337.195 510.662 429.219C773.63 521.243 1006.67 539.001 1031.17 468.883Z" stroke="white" stroke-opacity="0.23" stroke-miterlimit="10"/>
<path d="M1019.08 459.965C1042.63 392.565 855.333 265.701 600.736 176.606C346.138 87.5114 120.654 69.9241 97.1036 137.324C73.5527 204.724 260.853 331.588 515.45 420.682C770.048 509.777 995.531 527.364 1019.08 459.965Z" stroke="white" stroke-opacity="0.23" stroke-miterlimit="10"/>
<path d="M1006.86 451.112C1029.46 386.43 848.176 264.144 601.949 177.978C355.722 91.8126 137.794 74.3963 115.192 139.078C92.5913 203.76 273.876 326.045 520.103 412.211C766.331 498.377 984.259 515.793 1006.86 451.112Z" stroke="white" stroke-opacity="0.23" stroke-miterlimit="10"/>
<path d="M994.738 442.293C1016.39 380.33 841.119 262.622 603.262 179.386C365.405 96.1489 155.032 78.9036 133.381 140.867C111.73 202.83 286.999 320.538 524.856 403.775C762.713 487.012 973.086 504.257 994.738 442.293Z" stroke="white" stroke-opacity="0.23" stroke-miterlimit="10"/>
<path d="M982.615 433.475C1003.32 374.23 834.062 261.1 604.576 180.793C375.089 100.485 172.271 83.4109 151.569 142.656C130.868 201.901 300.122 315.031 529.609 395.339C759.096 475.646 961.913 492.721 982.615 433.475Z" stroke="white" stroke-opacity="0.23" stroke-miterlimit="10"/>
<path d="M970.427 424.522C990.179 367.995 826.94 259.443 605.823 182.064C384.707 104.686 189.444 87.7825 169.692 144.31C149.941 200.837 313.179 309.389 534.296 386.767C755.413 464.145 950.675 481.049 970.427 424.522Z" stroke="white" stroke-opacity="0.23" stroke-miterlimit="10"/>
<path d="M958.304 415.704C977.106 361.895 819.883 257.921 607.136 183.472C394.39 109.022 206.683 92.2898 187.881 146.099C169.079 199.908 326.302 303.881 539.049 378.331C751.795 452.78 939.502 469.513 958.304 415.704Z" stroke="white" stroke-opacity="0.23" stroke-miterlimit="10"/>
<path d="M946.081 406.85C963.933 355.759 812.725 256.364 608.349 184.843C403.973 113.323 223.821 96.7617 205.969 147.852C188.117 198.943 339.324 298.339 543.701 369.859C748.077 441.379 928.229 457.941 946.081 406.85Z" stroke="white" stroke-opacity="0.23" stroke-miterlimit="10"/>
<path d="M933.958 398.032C950.88 349.604 805.704 254.741 609.697 186.15C413.691 117.559 241.079 101.214 224.157 149.642C207.235 198.07 352.412 292.932 548.418 361.524C744.424 430.115 917.037 446.46 933.958 398.032Z" stroke="white" stroke-opacity="0.23" stroke-miterlimit="10"/>
<path d="M921.871 389.114C937.843 343.404 798.682 253.119 611.046 187.457C423.41 121.795 258.353 105.62 242.381 151.33C226.409 197.04 365.57 287.325 553.206 352.987C740.842 418.649 905.899 434.824 921.871 389.114Z" stroke="white" stroke-opacity="0.23" stroke-miterlimit="10"/>
<path d="M909.649 380.26C924.671 337.269 791.525 251.562 612.259 188.829C432.993 126.096 275.492 110.093 260.47 153.084C245.447 196.076 378.593 281.783 557.859 344.516C737.125 407.249 894.626 423.252 909.649 380.26Z" stroke="white" stroke-opacity="0.23" stroke-miterlimit="10"/>
<path d="M897.526 371.442C911.598 331.169 784.468 250.04 613.572 190.236C442.677 130.432 292.73 114.6 278.658 154.873C264.586 195.147 391.716 276.276 562.612 336.079C733.507 395.883 883.454 411.716 897.526 371.442Z" stroke="white" stroke-opacity="0.23" stroke-miterlimit="10"/>
<path d="M885.403 362.624C898.526 325.069 777.411 248.518 614.886 191.644C452.36 134.769 309.969 119.107 296.847 156.662C283.724 194.218 404.839 270.768 567.364 327.643C729.89 384.518 872.281 400.18 885.403 362.624Z" stroke="white" stroke-opacity="0.23" stroke-miterlimit="10"/>
</g>
<defs>
<linearGradient id="paint0_linear" x1="177.703" y1="174.195" x2="177.703" y2="545.968" gradientUnits="userSpaceOnUse">
<stop/>
<stop offset="1"/>
</linearGradient>
</defs>
</svg>
