<svg width="170" height="40" viewBox="0 0 170 40" fill="none" xmlns="http://www.w3.org/2000/svg">
    <path fill-rule="evenodd" clip-rule="evenodd" d="M47.6923 5.38464C46.8426 5.38464 46.1538 6.07344 46.1538 6.92311V30C46.1538 30.8497 46.8426 31.5385 47.6923 31.5385H96.923C97.773 31.5385 98.4615 30.8497 98.4615 30V6.92311C98.4615 6.07344 97.773 5.38464 96.923 5.38464H47.6923ZM55.7222 22.1409L53.3741 27.695H50.8616L59.4572 8.25572L68.0527 27.695H65.5402L63.1797 22.1409H55.7222ZM62.2933 20.0251H56.6282L59.4572 13.3602L62.2933 20.0251ZM77.9746 27.695V20.2896C77.9746 19.6196 77.8777 19.0641 77.6838 18.6233C77.49 18.1649 77.1992 17.8211 76.8111 17.5919C76.4233 17.3626 75.9472 17.248 75.383 17.248C74.7658 17.248 74.2193 17.3803 73.7432 17.6447C73.2847 17.8916 72.9233 18.2443 72.6588 18.7026C72.412 19.1611 72.2886 19.69 72.2886 20.2896V27.695H70.1727V15.529H72.2886V17.4332C72.6941 16.6926 73.1966 16.146 73.7961 15.7934C74.4132 15.4408 75.1185 15.2644 75.912 15.2644C76.7759 15.2644 77.5161 15.4584 78.1338 15.8463C78.7507 16.2342 79.2269 16.7808 79.5615 17.4861C79.9146 18.1913 80.0907 19.0376 80.0907 20.0251V27.695H77.9746ZM82.2169 15.529V17.5125H84.2007V27.695H86.3161V17.5125H88.3V15.529H86.3161V11.2973H84.2007V15.529H82.2169ZM90.8454 11.5353C90.563 11.2356 90.4223 10.8917 90.4223 10.5038C90.4223 10.0983 90.563 9.75449 90.8454 9.47234C91.1446 9.19026 91.4884 9.04918 91.8769 9.04918C92.2823 9.04918 92.6261 9.19026 92.9077 9.47234C93.19 9.75449 93.3315 10.0983 93.3315 10.5038C93.3315 10.8917 93.19 11.2356 92.9077 11.5353C92.6261 11.8174 92.2823 11.9584 91.8769 11.9584C91.4884 11.9584 91.1446 11.8174 90.8454 11.5353ZM90.8184 27.695V15.529H92.9346V27.695H90.8184Z" fill="white"/>
    <path d="M119.739 19.497C119.739 18.4919 119.581 17.6368 119.263 16.9316C118.963 16.2086 118.523 15.662 117.941 15.2918C117.359 14.9215 116.654 14.7363 115.825 14.7363C115.014 14.7363 114.291 14.9303 113.656 15.3183C113.022 15.6885 112.493 16.2527 112.069 17.0109C111.893 16.5172 111.629 16.1029 111.276 15.7679C110.941 15.4328 110.544 15.1772 110.086 15.0009C109.627 14.8246 109.116 14.7363 108.552 14.7363C108.058 14.7363 107.599 14.8157 107.176 14.9744C106.753 15.1155 106.374 15.3359 106.039 15.6356C105.722 15.9353 105.439 16.3144 105.193 16.7729V15.0009H103.077V27.1669H105.193V19.7615C105.193 19.1267 105.308 18.5801 105.537 18.1217C105.766 17.6633 106.093 17.3195 106.516 17.0903C106.939 16.8434 107.441 16.7199 108.023 16.7199C108.552 16.7199 108.984 16.8346 109.319 17.0638C109.672 17.2754 109.927 17.6016 110.086 18.0423C110.263 18.4832 110.35 19.0562 110.35 19.7615V27.1669H112.466V19.7615C112.466 19.1267 112.581 18.5801 112.81 18.1217C113.039 17.6633 113.366 17.3195 113.789 17.0903C114.212 16.8434 114.714 16.7199 115.296 16.7199C115.825 16.7199 116.257 16.8346 116.592 17.0638C116.945 17.2754 117.2 17.6016 117.359 18.0423C117.536 18.4832 117.623 19.0562 117.623 19.7615V27.1669H119.739V19.497Z" fill="white"/>
    <path d="M124.665 23.4113C124.665 22.9705 124.771 22.5914 124.983 22.274C125.194 21.9566 125.512 21.7098 125.935 21.5335C126.376 21.3572 126.94 21.269 127.628 21.269C128.368 21.269 129.064 21.366 129.717 21.5599C130.369 21.7362 131.004 22.036 131.621 22.4592V21.2161C131.498 21.0574 131.26 20.8546 130.908 20.6078C130.554 20.3433 130.078 20.1141 129.479 19.9202C128.898 19.7086 128.165 19.6028 127.284 19.6028C126.297 19.6028 125.441 19.7703 124.718 20.1053C124.013 20.4226 123.467 20.8722 123.078 21.4542C122.708 22.036 122.523 22.7236 122.523 23.5171C122.523 24.3458 122.718 25.0511 123.105 25.6329C123.493 26.2148 124.004 26.6644 124.639 26.9818C125.291 27.2815 125.988 27.4314 126.728 27.4314C127.398 27.4314 128.068 27.3079 128.738 27.0611C129.426 26.8142 129.999 26.4352 130.458 25.9239C130.934 25.4125 131.171 24.7689 131.171 23.9932L130.748 22.4062C130.748 23.041 130.59 23.6052 130.272 24.0989C129.973 24.575 129.558 24.9452 129.029 25.2098C128.518 25.4742 127.936 25.6065 127.284 25.6065C126.773 25.6065 126.314 25.5271 125.908 25.3684C125.521 25.1921 125.212 24.9365 124.983 24.6015C124.771 24.2664 124.665 23.8697 124.665 23.4113ZM124.348 17.8043C124.542 17.6633 124.807 17.4958 125.141 17.3018C125.477 17.1079 125.882 16.9403 126.358 16.7993C126.852 16.6582 127.398 16.5877 127.998 16.5877C128.368 16.5877 128.721 16.623 129.056 16.6935C129.391 16.764 129.682 16.8786 129.928 17.0373C130.193 17.196 130.396 17.4164 130.537 17.6986C130.678 17.963 130.748 18.3069 130.748 18.73V27.1669H132.864V18.4391C132.864 17.6456 132.661 16.9756 132.256 16.429C131.868 15.8824 131.313 15.4681 130.59 15.1859C129.884 14.8863 129.056 14.7363 128.104 14.7363C126.975 14.7363 126.005 14.9039 125.194 15.2389C124.401 15.5739 123.775 15.9089 123.317 16.2439L124.348 17.8043Z" fill="white"/>
    <path d="M134.595 15.001V16.9845H140.678V15.001H134.595ZM136.579 10.7693V27.167H138.694V10.7693H136.579Z" fill="white"/>
    <path d="M140.949 15.001V16.9845H147.032V15.001H140.949ZM142.933 10.7693V27.167H145.048V10.7693H142.933Z" fill="white"/>
    <path d="M153.862 27.4314C155.167 27.4314 156.295 27.1757 157.247 26.6644C158.217 26.1354 159.019 25.3596 159.654 24.3369L157.935 23.2526C157.494 23.9932 156.956 24.5486 156.322 24.9188C155.687 25.2715 154.955 25.4478 154.126 25.4478C153.298 25.4478 152.592 25.2715 152.011 24.9188C151.429 24.5662 150.988 24.0549 150.689 23.3849C150.389 22.7148 150.239 21.9038 150.239 20.9516C150.239 20.264 150.327 19.6469 150.503 19.1003C150.679 18.5537 150.935 18.0953 151.27 17.725C151.605 17.3547 152.011 17.0726 152.487 16.8786C152.98 16.6847 153.527 16.5877 154.126 16.5877C154.814 16.5877 155.414 16.7376 155.925 17.0373C156.436 17.3371 156.833 17.7514 157.115 18.2804C157.415 18.8093 157.565 19.4352 157.565 20.1582C157.565 20.2816 157.538 20.4403 157.485 20.6342C157.432 20.8106 157.379 20.9428 157.327 21.0309L158.173 19.8144H149.445V21.6129H159.839C159.839 21.5776 159.839 21.4982 159.839 21.3748C159.857 21.2337 159.865 21.1015 159.865 20.9781C159.865 19.6909 159.636 18.5801 159.178 17.6456C158.719 16.7112 158.058 15.997 157.195 15.5033C156.348 14.992 155.325 14.7363 154.126 14.7363C153.227 14.7363 152.407 14.895 151.667 15.2124C150.926 15.5122 150.292 15.9442 149.762 16.5084C149.234 17.0549 148.819 17.7162 148.519 18.4919C148.238 19.2678 148.096 20.1317 148.096 21.0839C148.096 22.3357 148.335 23.4377 148.81 24.3899C149.304 25.342 149.983 26.0913 150.847 26.6379C151.729 27.1669 152.734 27.4314 153.862 27.4314Z" fill="white"/>
    <path d="M164.882 15.0009H162.766V27.1669H164.882V15.0009ZM168.558 17.3283L169.722 15.5827C169.404 15.2477 169.052 15.0273 168.664 14.9215C168.293 14.7981 167.888 14.7363 167.447 14.7363C166.883 14.7363 166.327 14.9568 165.781 15.3976C165.234 15.8383 164.785 16.4379 164.432 17.196C164.097 17.9366 163.929 18.7917 163.929 19.7615H164.882C164.882 19.1796 164.935 18.6595 165.04 18.201C165.164 17.7426 165.376 17.3812 165.675 17.1167C165.975 16.8522 166.389 16.7199 166.918 16.7199C167.271 16.7199 167.562 16.7729 167.791 16.8786C168.02 16.9668 168.276 17.1167 168.558 17.3283Z" fill="white"/>
    <path fill-rule="evenodd" clip-rule="evenodd" d="M25.5648 29.6823C28.1233 29.6823 30.1975 27.6082 30.1975 25.0496C30.1975 22.491 28.1233 20.4169 25.5648 20.4169C23.0062 20.4169 20.932 22.491 20.932 25.0496C20.932 27.6082 23.0062 29.6823 25.5648 29.6823ZM31.7359 25.0496C31.7359 28.4579 28.973 31.2208 25.5648 31.2208C22.1565 31.2208 19.3936 28.4579 19.3936 25.0496C19.3936 21.6413 22.1565 18.8784 25.5648 18.8784C28.973 18.8784 31.7359 21.6413 31.7359 25.0496Z" fill="white"/>
    <path fill-rule="evenodd" clip-rule="evenodd" d="M21.7654 28.2411C22.073 28.6186 22.0162 29.1739 21.6386 29.4814C18.4341 32.0917 15.0969 33.9132 12.1466 34.709C9.23803 35.4936 6.46026 35.3337 4.70239 33.5759C2.7508 31.6242 2.76302 28.4224 3.87434 25.1281C4.02998 24.6668 4.53014 24.4189 4.99149 24.5746C5.45284 24.7302 5.70067 25.2304 5.54503 25.6917C4.49024 28.8184 4.74101 31.1209 5.94916 32.3291C7.03414 33.4141 8.99726 33.7324 11.6874 33.0067C14.3359 32.2922 17.4552 30.615 20.5251 28.1143C20.9026 27.8069 21.458 27.8636 21.7654 28.2411Z" fill="white"/>
    <path fill-rule="evenodd" clip-rule="evenodd" d="M15.6136 10.9798C15.3177 10.593 15.3914 10.0397 15.7781 9.74388C18.8528 7.39187 22.0115 5.77256 24.7993 5.10032C27.554 4.43612 30.1667 4.65565 31.8461 6.33507C33.7977 8.28664 33.7855 11.4886 32.6742 14.7828C32.5186 15.2442 32.0183 15.492 31.557 15.3363C31.0956 15.1807 30.8479 14.6806 31.0035 14.2193C32.0583 11.0925 31.8075 8.78995 30.5993 7.58184C29.5636 6.54606 27.7298 6.20745 25.2126 6.81439C22.7289 7.4133 19.7906 8.89441 16.8494 11.1443C16.4627 11.4402 15.9094 11.3665 15.6136 10.9798Z" fill="white"/>
    <path fill-rule="evenodd" clip-rule="evenodd" d="M18.5132 14.4708C18.5132 17.8791 15.7503 20.642 12.3421 20.642C8.93385 20.642 6.1709 17.8791 6.1709 14.4708C6.1709 11.0626 8.93385 8.29968 12.3421 8.29968C15.7503 8.29968 18.5132 11.0626 18.5132 14.4708ZM11.7248 11.3848H12.959V13.8531H15.4265V15.0873H12.959V17.556H11.7248V15.0873H9.25531V13.8531H11.7248V11.3848Z" fill="white"/>
    <path d="M27.7695 25.5792V24.345H23.3615V25.5792H27.7695Z" fill="white"/>
</svg>
