<svg width="653" height="23" viewBox="0 0 653 23" fill="none" xmlns="http://www.w3.org/2000/svg">
    <path opacity="0.6" d="M3.0542 11.5986V18H0.897949V1.64844H6.92871C8.7181 1.64844 10.1182 2.10514 11.1289 3.01855C12.1471 3.93197 12.6562 5.14111 12.6562 6.646C12.6562 8.23324 12.1584 9.45736 11.1626 10.3184C10.1743 11.1719 8.75553 11.5986 6.90625 11.5986H3.0542ZM3.0542 9.83545H6.92871C8.08171 9.83545 8.96517 9.56592 9.5791 9.02686C10.193 8.48031 10.5 7.69417 10.5 6.66846C10.5 5.69515 10.193 4.9165 9.5791 4.33252C8.96517 3.74854 8.12288 3.44531 7.05225 3.42285H3.0542V9.83545ZM14.3745 11.812C14.3745 10.6216 14.6066 9.55094 15.0708 8.6001C15.5425 7.64925 16.1938 6.91553 17.0249 6.39893C17.8634 5.88232 18.818 5.62402 19.8887 5.62402C21.5433 5.62402 22.8797 6.19678 23.8979 7.34229C24.9237 8.48779 25.4365 10.0114 25.4365 11.9131V12.0591C25.4365 13.242 25.2082 14.3052 24.7515 15.2485C24.3022 16.1844 23.6546 16.9144 22.8086 17.4385C21.9701 17.9626 21.0042 18.2246 19.9111 18.2246C18.264 18.2246 16.9276 17.6519 15.9019 16.5063C14.8836 15.3608 14.3745 13.8447 14.3745 11.958V11.812ZM16.4634 12.0591C16.4634 13.4067 16.7741 14.4886 17.3955 15.3047C18.0244 16.1208 18.863 16.5288 19.9111 16.5288C20.9668 16.5288 21.8053 16.117 22.4268 15.2935C23.0482 14.4624 23.3589 13.3019 23.3589 11.812C23.3589 10.4793 23.0407 9.4012 22.4043 8.57764C21.7754 7.74658 20.9368 7.33105 19.8887 7.33105C18.863 7.33105 18.0356 7.7391 17.4067 8.55518C16.7778 9.37126 16.4634 10.5392 16.4634 12.0591ZM30.2993 18H28.2217V0.75H30.2993V18ZM41.1367 18C41.0169 17.7604 40.9196 17.3337 40.8447 16.7197C39.8789 17.723 38.7259 18.2246 37.3857 18.2246C36.1878 18.2246 35.2033 17.8877 34.4321 17.2139C33.6685 16.5326 33.2866 15.6715 33.2866 14.6309C33.2866 13.3656 33.7658 12.3848 34.7241 11.6885C35.6899 10.9847 37.0451 10.6328 38.7896 10.6328H40.811V9.67822C40.811 8.95199 40.5939 8.37549 40.1597 7.94873C39.7254 7.51449 39.0853 7.29736 38.2393 7.29736C37.498 7.29736 36.8766 7.48454 36.375 7.85889C35.8734 8.23324 35.6226 8.6862 35.6226 9.21777H33.5337C33.5337 8.61133 33.7471 8.02734 34.1738 7.46582C34.6081 6.89681 35.1921 6.44759 35.9258 6.11816C36.667 5.78874 37.4793 5.62402 38.3628 5.62402C39.7629 5.62402 40.8597 5.97591 41.6533 6.67969C42.4469 7.37598 42.8587 8.33805 42.8887 9.56592V15.1587C42.8887 16.2743 43.0309 17.1615 43.3154 17.8203V18H41.1367ZM37.689 16.4165C38.3403 16.4165 38.958 16.248 39.542 15.9111C40.126 15.5742 40.549 15.1362 40.811 14.5972V12.104H39.1826C36.637 12.104 35.3643 12.849 35.3643 14.3389C35.3643 14.9902 35.5814 15.4993 36.0156 15.8662C36.4499 16.2331 37.0076 16.4165 37.689 16.4165ZM52.019 7.71289C51.7046 7.66048 51.3639 7.63428 50.9971 7.63428C49.6344 7.63428 48.7098 8.21452 48.2231 9.375V18H46.1455V5.84863H48.167L48.2007 7.25244C48.882 6.16683 49.8478 5.62402 51.0981 5.62402C51.5024 5.62402 51.8094 5.67643 52.019 5.78125V7.71289ZM56.1968 18H54.1191V5.84863H56.1968V18ZM53.9507 2.62549C53.9507 2.28857 54.0518 2.00407 54.2539 1.77197C54.4635 1.53988 54.7705 1.42383 55.1748 1.42383C55.5791 1.42383 55.8861 1.53988 56.0957 1.77197C56.3053 2.00407 56.4102 2.28857 56.4102 2.62549C56.4102 2.9624 56.3053 3.24316 56.0957 3.46777C55.8861 3.69238 55.5791 3.80469 55.1748 3.80469C54.7705 3.80469 54.4635 3.69238 54.2539 3.46777C54.0518 3.24316 53.9507 2.9624 53.9507 2.62549ZM61.4863 16.3042H68.5952V18H58.9482V16.4727L65.6528 7.56689H59.0493V5.84863H68.2583V7.31982L61.4863 16.3042ZM75.8052 18.2246C74.158 18.2246 72.8179 17.6855 71.7847 16.6074C70.7515 15.5218 70.2349 14.0731 70.2349 12.2612V11.8794C70.2349 10.674 70.4632 9.59961 70.9199 8.65625C71.3841 7.7054 72.028 6.96419 72.8516 6.43262C73.6826 5.89355 74.5811 5.62402 75.5469 5.62402C77.1266 5.62402 78.3545 6.14437 79.2305 7.18506C80.1064 8.22575 80.5444 9.71566 80.5444 11.6548V12.5195H72.3125C72.3424 13.7174 72.6906 14.687 73.3569 15.4282C74.0308 16.1619 74.8843 16.5288 75.9175 16.5288C76.6512 16.5288 77.2726 16.3791 77.7817 16.0796C78.2909 15.7801 78.7363 15.3833 79.1182 14.8892L80.3872 15.8774C79.369 17.4422 77.8416 18.2246 75.8052 18.2246ZM75.5469 7.33105C74.7083 7.33105 74.0046 7.63802 73.4355 8.25195C72.8665 8.8584 72.5146 9.71191 72.3799 10.8125H78.4668V10.6553C78.4069 9.59961 78.1224 8.78353 77.6133 8.20703C77.1042 7.62305 76.4154 7.33105 75.5469 7.33105ZM82.4536 11.8232C82.4536 9.95898 82.8953 8.46159 83.7788 7.33105C84.6623 6.19303 85.819 5.62402 87.249 5.62402C88.6715 5.62402 89.7983 6.11068 90.6294 7.08398V0.75H92.707V18H90.7979L90.6968 16.6973C89.8657 17.7155 88.709 18.2246 87.2266 18.2246C85.819 18.2246 84.6698 17.6481 83.7788 16.4951C82.8953 15.3421 82.4536 13.8372 82.4536 11.9805V11.8232ZM84.5312 12.0591C84.5312 13.4367 84.8158 14.5148 85.3848 15.2935C85.9538 16.0721 86.7399 16.4614 87.7432 16.4614C89.0609 16.4614 90.0229 15.87 90.6294 14.687V9.10547C90.008 7.95996 89.0534 7.38721 87.7656 7.38721C86.7474 7.38721 85.9538 7.78027 85.3848 8.56641C84.8158 9.35254 84.5312 10.5168 84.5312 12.0591ZM104.465 2.90625V5.84863H106.734V7.45459H104.465V14.9902C104.465 15.4769 104.566 15.8438 104.769 16.0908C104.971 16.3304 105.315 16.4502 105.802 16.4502C106.041 16.4502 106.371 16.4053 106.79 16.3154V18C106.243 18.1497 105.712 18.2246 105.195 18.2246C104.267 18.2246 103.567 17.9438 103.095 17.3823C102.624 16.8208 102.388 16.0234 102.388 14.9902V7.45459H100.175V5.84863H102.388V2.90625H104.465ZM108.396 11.812C108.396 10.6216 108.628 9.55094 109.092 8.6001C109.564 7.64925 110.215 6.91553 111.046 6.39893C111.885 5.88232 112.84 5.62402 113.91 5.62402C115.565 5.62402 116.901 6.19678 117.919 7.34229C118.945 8.48779 119.458 10.0114 119.458 11.9131V12.0591C119.458 13.242 119.23 14.3052 118.773 15.2485C118.324 16.1844 117.676 16.9144 116.83 17.4385C115.992 17.9626 115.026 18.2246 113.933 18.2246C112.285 18.2246 110.949 17.6519 109.923 16.5063C108.905 15.3608 108.396 13.8447 108.396 11.958V11.812ZM110.485 12.0591C110.485 13.4067 110.796 14.4886 111.417 15.3047C112.046 16.1208 112.884 16.5288 113.933 16.5288C114.988 16.5288 115.827 16.117 116.448 15.2935C117.07 14.4624 117.38 13.3019 117.38 11.812C117.38 10.4793 117.062 9.4012 116.426 8.57764C115.797 7.74658 114.958 7.33105 113.91 7.33105C112.884 7.33105 112.057 7.7391 111.428 8.55518C110.799 9.37126 110.485 10.5392 110.485 12.0591ZM125.455 12.3735L124.152 13.7324V18H122.075V0.75H124.152V11.1831L125.264 9.84668L129.049 5.84863H131.576L126.848 10.9248L132.126 18H129.689L125.455 12.3735ZM138.539 18.2246C136.891 18.2246 135.551 17.6855 134.518 16.6074C133.485 15.5218 132.968 14.0731 132.968 12.2612V11.8794C132.968 10.674 133.197 9.59961 133.653 8.65625C134.118 7.7054 134.761 6.96419 135.585 6.43262C136.416 5.89355 137.314 5.62402 138.28 5.62402C139.86 5.62402 141.088 6.14437 141.964 7.18506C142.84 8.22575 143.278 9.71566 143.278 11.6548V12.5195H135.046C135.076 13.7174 135.424 14.687 136.09 15.4282C136.764 16.1619 137.618 16.5288 138.651 16.5288C139.385 16.5288 140.006 16.3791 140.515 16.0796C141.024 15.7801 141.47 15.3833 141.852 14.8892L143.121 15.8774C142.102 17.4422 140.575 18.2246 138.539 18.2246ZM138.28 7.33105C137.442 7.33105 136.738 7.63802 136.169 8.25195C135.6 8.8584 135.248 9.71191 135.113 10.8125H141.2V10.6553C141.14 9.59961 140.856 8.78353 140.347 8.20703C139.838 7.62305 139.149 7.33105 138.28 7.33105ZM147.658 5.84863L147.725 7.37598C148.653 6.20801 149.866 5.62402 151.364 5.62402C153.932 5.62402 155.227 7.07275 155.25 9.97021V18H153.172V9.95898C153.164 9.08301 152.962 8.43538 152.565 8.01611C152.176 7.59684 151.566 7.38721 150.735 7.38721C150.061 7.38721 149.47 7.56689 148.96 7.92627C148.451 8.28564 148.055 8.75732 147.77 9.34131V18H145.692V5.84863H147.658ZM166.042 5.84863L166.098 7.19629C166.989 6.14811 168.191 5.62402 169.703 5.62402C171.403 5.62402 172.559 6.27539 173.173 7.57812C173.578 6.99414 174.102 6.52246 174.746 6.16309C175.397 5.80371 176.164 5.62402 177.048 5.62402C179.713 5.62402 181.068 7.03532 181.113 9.85791V18H179.036V9.98145C179.036 9.11296 178.837 8.46533 178.44 8.03857C178.044 7.60433 177.377 7.38721 176.441 7.38721C175.67 7.38721 175.03 7.6193 174.521 8.0835C174.012 8.5402 173.716 9.15788 173.634 9.93652V18H171.545V10.0376C171.545 8.27067 170.68 7.38721 168.951 7.38721C167.588 7.38721 166.656 7.96745 166.154 9.12793V18H164.077V5.84863H166.042ZM189.3 18.2246C187.653 18.2246 186.313 17.6855 185.28 16.6074C184.247 15.5218 183.73 14.0731 183.73 12.2612V11.8794C183.73 10.674 183.958 9.59961 184.415 8.65625C184.879 7.7054 185.523 6.96419 186.347 6.43262C187.178 5.89355 188.076 5.62402 189.042 5.62402C190.622 5.62402 191.85 6.14437 192.726 7.18506C193.602 8.22575 194.04 9.71566 194.04 11.6548V12.5195H185.808C185.838 13.7174 186.186 14.687 186.852 15.4282C187.526 16.1619 188.379 16.5288 189.413 16.5288C190.146 16.5288 190.768 16.3791 191.277 16.0796C191.786 15.7801 192.231 15.3833 192.613 14.8892L193.882 15.8774C192.864 17.4422 191.337 18.2246 189.3 18.2246ZM189.042 7.33105C188.203 7.33105 187.5 7.63802 186.931 8.25195C186.362 8.8584 186.01 9.71191 185.875 10.8125H191.962V10.6553C191.902 9.59961 191.618 8.78353 191.108 8.20703C190.599 7.62305 189.91 7.33105 189.042 7.33105ZM201.328 16.5288C202.069 16.5288 202.717 16.3042 203.271 15.855C203.825 15.4058 204.132 14.8442 204.192 14.1704H206.157C206.12 14.8667 205.88 15.5293 205.438 16.1582C204.997 16.7871 204.405 17.2887 203.664 17.6631C202.93 18.0374 202.152 18.2246 201.328 18.2246C199.674 18.2246 198.356 17.6743 197.375 16.5737C196.402 15.4657 195.915 13.9533 195.915 12.0366V11.6885C195.915 10.5055 196.132 9.45361 196.566 8.53271C197.001 7.61182 197.622 6.89681 198.431 6.3877C199.247 5.87858 200.209 5.62402 201.317 5.62402C202.68 5.62402 203.81 6.03206 204.708 6.84814C205.614 7.66423 206.097 8.72363 206.157 10.0264H204.192C204.132 9.24023 203.833 8.59635 203.293 8.09473C202.762 7.58561 202.103 7.33105 201.317 7.33105C200.261 7.33105 199.441 7.71289 198.857 8.47656C198.281 9.23275 197.993 10.3296 197.993 11.7671V12.1602C197.993 13.5602 198.281 14.6383 198.857 15.3945C199.434 16.1507 200.257 16.5288 201.328 16.5288ZM210.571 7.31982C211.492 6.18929 212.69 5.62402 214.165 5.62402C216.733 5.62402 218.028 7.07275 218.05 9.97021V18H215.973V9.95898C215.965 9.08301 215.763 8.43538 215.366 8.01611C214.977 7.59684 214.367 7.38721 213.536 7.38721C212.862 7.38721 212.27 7.56689 211.761 7.92627C211.252 8.28564 210.855 8.75732 210.571 9.34131V18H208.493V0.75H210.571V7.31982ZM228.663 18C228.543 17.7604 228.446 17.3337 228.371 16.7197C227.405 17.723 226.252 18.2246 224.912 18.2246C223.714 18.2246 222.73 17.8877 221.958 17.2139C221.195 16.5326 220.813 15.6715 220.813 14.6309C220.813 13.3656 221.292 12.3848 222.25 11.6885C223.216 10.9847 224.571 10.6328 226.316 10.6328H228.337V9.67822C228.337 8.95199 228.12 8.37549 227.686 7.94873C227.252 7.51449 226.612 7.29736 225.766 7.29736C225.024 7.29736 224.403 7.48454 223.901 7.85889C223.4 8.23324 223.149 8.6862 223.149 9.21777H221.06C221.06 8.61133 221.273 8.02734 221.7 7.46582C222.134 6.89681 222.718 6.44759 223.452 6.11816C224.193 5.78874 225.006 5.62402 225.889 5.62402C227.289 5.62402 228.386 5.97591 229.18 6.67969C229.973 7.37598 230.385 8.33805 230.415 9.56592V15.1587C230.415 16.2743 230.557 17.1615 230.842 17.8203V18H228.663ZM225.215 16.4165C225.867 16.4165 226.484 16.248 227.068 15.9111C227.652 15.5742 228.075 15.1362 228.337 14.5972V12.104H226.709C224.163 12.104 222.891 12.849 222.891 14.3389C222.891 14.9902 223.108 15.4993 223.542 15.8662C223.976 16.2331 224.534 16.4165 225.215 16.4165ZM235.637 5.84863L235.705 7.37598C236.633 6.20801 237.846 5.62402 239.343 5.62402C241.911 5.62402 243.207 7.07275 243.229 9.97021V18H241.151V9.95898C241.144 9.08301 240.942 8.43538 240.545 8.01611C240.156 7.59684 239.545 7.38721 238.714 7.38721C238.041 7.38721 237.449 7.56689 236.94 7.92627C236.431 8.28564 236.034 8.75732 235.75 9.34131V18H233.672V5.84863H235.637ZM248.62 18H246.542V5.84863H248.62V18ZM246.374 2.62549C246.374 2.28857 246.475 2.00407 246.677 1.77197C246.886 1.53988 247.193 1.42383 247.598 1.42383C248.002 1.42383 248.309 1.53988 248.519 1.77197C248.728 2.00407 248.833 2.28857 248.833 2.62549C248.833 2.9624 248.728 3.24316 248.519 3.46777C248.309 3.69238 248.002 3.80469 247.598 3.80469C247.193 3.80469 246.886 3.69238 246.677 3.46777C246.475 3.24316 246.374 2.9624 246.374 2.62549ZM259.03 14.7769C259.03 14.2153 258.817 13.7811 258.39 13.4741C257.971 13.1597 257.233 12.8901 256.178 12.6655C255.13 12.4409 254.295 12.1714 253.673 11.8569C253.059 11.5425 252.603 11.1681 252.303 10.7339C252.011 10.2996 251.865 9.78304 251.865 9.18408C251.865 8.18831 252.285 7.34603 253.123 6.65723C253.969 5.96842 255.047 5.62402 256.357 5.62402C257.735 5.62402 258.851 5.97965 259.704 6.69092C260.565 7.40218 260.996 8.31185 260.996 9.41992H258.907C258.907 8.85091 258.663 8.36051 258.177 7.94873C257.698 7.53695 257.091 7.33105 256.357 7.33105C255.601 7.33105 255.01 7.49577 254.583 7.8252C254.156 8.15462 253.943 8.58512 253.943 9.1167C253.943 9.61833 254.141 9.99642 254.538 10.251C254.935 10.5055 255.65 10.7489 256.683 10.981C257.724 11.2131 258.566 11.4901 259.21 11.812C259.854 12.134 260.329 12.5233 260.636 12.98C260.951 13.4292 261.108 13.9795 261.108 14.6309C261.108 15.7165 260.674 16.5887 259.805 17.2476C258.937 17.8989 257.81 18.2246 256.425 18.2246C255.451 18.2246 254.59 18.0524 253.842 17.708C253.093 17.3636 252.505 16.8844 252.079 16.2705C251.659 15.6491 251.45 14.979 251.45 14.2603H253.527C253.565 14.9565 253.842 15.5106 254.358 15.9224C254.882 16.3267 255.571 16.5288 256.425 16.5288C257.211 16.5288 257.84 16.3716 258.312 16.0571C258.791 15.7352 259.03 15.3084 259.03 14.7769ZM265.769 5.84863L265.825 7.19629C266.716 6.14811 267.917 5.62402 269.43 5.62402C271.129 5.62402 272.286 6.27539 272.9 7.57812C273.304 6.99414 273.828 6.52246 274.472 6.16309C275.124 5.80371 275.891 5.62402 276.774 5.62402C279.44 5.62402 280.795 7.03532 280.84 9.85791V18H278.762V9.98145C278.762 9.11296 278.564 8.46533 278.167 8.03857C277.77 7.60433 277.104 7.38721 276.168 7.38721C275.397 7.38721 274.757 7.6193 274.248 8.0835C273.738 8.5402 273.443 9.15788 273.36 9.93652V18H271.271V10.0376C271.271 8.27067 270.407 7.38721 268.677 7.38721C267.315 7.38721 266.382 7.96745 265.881 9.12793V18H263.803V5.84863H265.769ZM300.448 15.1362L302.784 5.84863H304.862L301.324 18H299.64L296.686 8.79102L293.811 18H292.126L288.6 5.84863H290.667L293.059 14.9453L295.889 5.84863H297.562L300.448 15.1362ZM309.242 18H307.164V5.84863H309.242V18ZM306.996 2.62549C306.996 2.28857 307.097 2.00407 307.299 1.77197C307.508 1.53988 307.815 1.42383 308.22 1.42383C308.624 1.42383 308.931 1.53988 309.141 1.77197C309.35 2.00407 309.455 2.28857 309.455 2.62549C309.455 2.9624 309.35 3.24316 309.141 3.46777C308.931 3.69238 308.624 3.80469 308.22 3.80469C307.815 3.80469 307.508 3.69238 307.299 3.46777C307.097 3.24316 306.996 2.9624 306.996 2.62549ZM315.396 2.90625V5.84863H317.665V7.45459H315.396V14.9902C315.396 15.4769 315.497 15.8438 315.699 16.0908C315.901 16.3304 316.246 16.4502 316.732 16.4502C316.972 16.4502 317.301 16.4053 317.721 16.3154V18C317.174 18.1497 316.643 18.2246 316.126 18.2246C315.198 18.2246 314.498 17.9438 314.026 17.3823C313.554 16.8208 313.318 16.0234 313.318 14.9902V7.45459H311.106V5.84863H313.318V2.90625H315.396ZM322.179 7.31982C323.1 6.18929 324.298 5.62402 325.773 5.62402C328.341 5.62402 329.636 7.07275 329.659 9.97021V18H327.581V9.95898C327.574 9.08301 327.371 8.43538 326.975 8.01611C326.585 7.59684 325.975 7.38721 325.144 7.38721C324.47 7.38721 323.879 7.56689 323.37 7.92627C322.861 8.28564 322.464 8.75732 322.179 9.34131V18H320.102V0.75H322.179V7.31982ZM341.293 2.90625V5.84863H343.562V7.45459H341.293V14.9902C341.293 15.4769 341.395 15.8438 341.597 16.0908C341.799 16.3304 342.143 16.4502 342.63 16.4502C342.869 16.4502 343.199 16.4053 343.618 16.3154V18C343.072 18.1497 342.54 18.2246 342.023 18.2246C341.095 18.2246 340.395 17.9438 339.923 17.3823C339.452 16.8208 339.216 16.0234 339.216 14.9902V7.45459H337.003V5.84863H339.216V2.90625H341.293ZM345.224 11.812C345.224 10.6216 345.456 9.55094 345.92 8.6001C346.392 7.64925 347.043 6.91553 347.875 6.39893C348.713 5.88232 349.668 5.62402 350.738 5.62402C352.393 5.62402 353.729 6.19678 354.748 7.34229C355.773 8.48779 356.286 10.0114 356.286 11.9131V12.0591C356.286 13.242 356.058 14.3052 355.601 15.2485C355.152 16.1844 354.504 16.9144 353.658 17.4385C352.82 17.9626 351.854 18.2246 350.761 18.2246C349.114 18.2246 347.777 17.6519 346.751 16.5063C345.733 15.3608 345.224 13.8447 345.224 11.958V11.812ZM347.313 12.0591C347.313 13.4067 347.624 14.4886 348.245 15.3047C348.874 16.1208 349.713 16.5288 350.761 16.5288C351.816 16.5288 352.655 16.117 353.276 15.2935C353.898 14.4624 354.208 13.3019 354.208 11.812C354.208 10.4793 353.89 9.4012 353.254 8.57764C352.625 7.74658 351.786 7.33105 350.738 7.33105C349.713 7.33105 348.885 7.7391 348.256 8.55518C347.627 9.37126 347.313 10.5392 347.313 12.0591ZM362.283 12.3735L360.98 13.7324V18H358.903V0.75H360.98V11.1831L362.092 9.84668L365.877 5.84863H368.404L363.676 10.9248L368.954 18H366.517L362.283 12.3735ZM375.367 18.2246C373.72 18.2246 372.379 17.6855 371.346 16.6074C370.313 15.5218 369.796 14.0731 369.796 12.2612V11.8794C369.796 10.674 370.025 9.59961 370.481 8.65625C370.946 7.7054 371.59 6.96419 372.413 6.43262C373.244 5.89355 374.143 5.62402 375.108 5.62402C376.688 5.62402 377.916 6.14437 378.792 7.18506C379.668 8.22575 380.106 9.71566 380.106 11.6548V12.5195H371.874C371.904 13.7174 372.252 14.687 372.918 15.4282C373.592 16.1619 374.446 16.5288 375.479 16.5288C376.213 16.5288 376.834 16.3791 377.343 16.0796C377.852 15.7801 378.298 15.3833 378.68 14.8892L379.949 15.8774C378.931 17.4422 377.403 18.2246 375.367 18.2246ZM375.108 7.33105C374.27 7.33105 373.566 7.63802 372.997 8.25195C372.428 8.8584 372.076 9.71191 371.941 10.8125H378.028V10.6553C377.968 9.59961 377.684 8.78353 377.175 8.20703C376.666 7.62305 375.977 7.33105 375.108 7.33105ZM384.486 5.84863L384.553 7.37598C385.482 6.20801 386.694 5.62402 388.192 5.62402C390.76 5.62402 392.055 7.07275 392.078 9.97021V18H390V9.95898C389.993 9.08301 389.79 8.43538 389.394 8.01611C389.004 7.59684 388.394 7.38721 387.563 7.38721C386.889 7.38721 386.298 7.56689 385.789 7.92627C385.279 8.28564 384.883 8.75732 384.598 9.34131V18H382.521V5.84863H384.486ZM397.468 18H395.391V5.84863H397.468V18ZM395.222 2.62549C395.222 2.28857 395.323 2.00407 395.525 1.77197C395.735 1.53988 396.042 1.42383 396.446 1.42383C396.851 1.42383 397.158 1.53988 397.367 1.77197C397.577 2.00407 397.682 2.28857 397.682 2.62549C397.682 2.9624 397.577 3.24316 397.367 3.46777C397.158 3.69238 396.851 3.80469 396.446 3.80469C396.042 3.80469 395.735 3.69238 395.525 3.46777C395.323 3.24316 395.222 2.9624 395.222 2.62549ZM402.758 16.3042H409.867V18H400.22V16.4727L406.924 7.56689H400.321V5.84863H409.53V7.31982L402.758 16.3042ZM417.077 18.2246C415.43 18.2246 414.089 17.6855 413.056 16.6074C412.023 15.5218 411.506 14.0731 411.506 12.2612V11.8794C411.506 10.674 411.735 9.59961 412.191 8.65625C412.656 7.7054 413.299 6.96419 414.123 6.43262C414.954 5.89355 415.853 5.62402 416.818 5.62402C418.398 5.62402 419.626 6.14437 420.502 7.18506C421.378 8.22575 421.816 9.71566 421.816 11.6548V12.5195H413.584C413.614 13.7174 413.962 14.687 414.628 15.4282C415.302 16.1619 416.156 16.5288 417.189 16.5288C417.923 16.5288 418.544 16.3791 419.053 16.0796C419.562 15.7801 420.008 15.3833 420.39 14.8892L421.659 15.8774C420.64 17.4422 419.113 18.2246 417.077 18.2246ZM416.818 7.33105C415.98 7.33105 415.276 7.63802 414.707 8.25195C414.138 8.8584 413.786 9.71191 413.651 10.8125H419.738V10.6553C419.678 9.59961 419.394 8.78353 418.885 8.20703C418.376 7.62305 417.687 7.33105 416.818 7.33105ZM423.725 11.8232C423.725 9.95898 424.167 8.46159 425.05 7.33105C425.934 6.19303 427.09 5.62402 428.521 5.62402C429.943 5.62402 431.07 6.11068 431.901 7.08398V0.75H433.979V18H432.069L431.968 16.6973C431.137 17.7155 429.98 18.2246 428.498 18.2246C427.09 18.2246 425.941 17.6481 425.05 16.4951C424.167 15.3421 423.725 13.8372 423.725 11.9805V11.8232ZM425.803 12.0591C425.803 13.4367 426.087 14.5148 426.656 15.2935C427.225 16.0721 428.011 16.4614 429.015 16.4614C430.332 16.4614 431.294 15.87 431.901 14.687V9.10547C431.279 7.95996 430.325 7.38721 429.037 7.38721C428.019 7.38721 427.225 7.78027 426.656 8.56641C426.087 9.35254 425.803 10.5168 425.803 12.0591ZM453.183 12.0591C453.183 13.9084 452.76 15.3983 451.914 16.5288C451.068 17.6593 449.922 18.2246 448.477 18.2246C447.002 18.2246 445.842 17.7567 444.996 16.8208V22.6719H442.918V5.84863H444.816L444.917 7.19629C445.763 6.14811 446.938 5.62402 448.443 5.62402C449.903 5.62402 451.056 6.17432 451.902 7.2749C452.756 8.37549 453.183 9.90658 453.183 11.8682V12.0591ZM451.105 11.8232C451.105 10.4531 450.813 9.37126 450.229 8.57764C449.645 7.78402 448.844 7.38721 447.826 7.38721C446.568 7.38721 445.625 7.94499 444.996 9.06055V14.8667C445.617 15.9748 446.568 16.5288 447.848 16.5288C448.844 16.5288 449.634 16.1357 450.218 15.3496C450.809 14.556 451.105 13.3805 451.105 11.8232ZM460.875 18.2246C459.228 18.2246 457.888 17.6855 456.855 16.6074C455.822 15.5218 455.305 14.0731 455.305 12.2612V11.8794C455.305 10.674 455.534 9.59961 455.99 8.65625C456.454 7.7054 457.098 6.96419 457.922 6.43262C458.753 5.89355 459.651 5.62402 460.617 5.62402C462.197 5.62402 463.425 6.14437 464.301 7.18506C465.177 8.22575 465.615 9.71566 465.615 11.6548V12.5195H457.383C457.413 13.7174 457.761 14.687 458.427 15.4282C459.101 16.1619 459.955 16.5288 460.988 16.5288C461.722 16.5288 462.343 16.3791 462.852 16.0796C463.361 15.7801 463.807 15.3833 464.188 14.8892L465.458 15.8774C464.439 17.4422 462.912 18.2246 460.875 18.2246ZM460.617 7.33105C459.779 7.33105 459.075 7.63802 458.506 8.25195C457.937 8.8584 457.585 9.71191 457.45 10.8125H463.537V10.6553C463.477 9.59961 463.193 8.78353 462.684 8.20703C462.174 7.62305 461.486 7.33105 460.617 7.33105ZM473.903 7.71289C473.588 7.66048 473.248 7.63428 472.881 7.63428C471.518 7.63428 470.594 8.21452 470.107 9.375V18H468.029V5.84863H470.051L470.084 7.25244C470.766 6.16683 471.732 5.62402 472.982 5.62402C473.386 5.62402 473.693 5.67643 473.903 5.78125V7.71289ZM486.088 12.0591C486.088 13.9084 485.665 15.3983 484.819 16.5288C483.973 17.6593 482.827 18.2246 481.382 18.2246C479.907 18.2246 478.747 17.7567 477.901 16.8208V22.6719H475.823V5.84863H477.721L477.822 7.19629C478.668 6.14811 479.844 5.62402 481.349 5.62402C482.809 5.62402 483.962 6.17432 484.808 7.2749C485.661 8.37549 486.088 9.90658 486.088 11.8682V12.0591ZM484.01 11.8232C484.01 10.4531 483.718 9.37126 483.134 8.57764C482.55 7.78402 481.749 7.38721 480.731 7.38721C479.473 7.38721 478.53 7.94499 477.901 9.06055V14.8667C478.522 15.9748 479.473 16.5288 480.753 16.5288C481.749 16.5288 482.539 16.1357 483.123 15.3496C483.715 14.556 484.01 13.3805 484.01 11.8232ZM493.781 18.2246C492.134 18.2246 490.793 17.6855 489.76 16.6074C488.727 15.5218 488.21 14.0731 488.21 12.2612V11.8794C488.21 10.674 488.439 9.59961 488.896 8.65625C489.36 7.7054 490.004 6.96419 490.827 6.43262C491.658 5.89355 492.557 5.62402 493.522 5.62402C495.102 5.62402 496.33 6.14437 497.206 7.18506C498.082 8.22575 498.52 9.71566 498.52 11.6548V12.5195H490.288C490.318 13.7174 490.666 14.687 491.333 15.4282C492.006 16.1619 492.86 16.5288 493.893 16.5288C494.627 16.5288 495.248 16.3791 495.757 16.0796C496.266 15.7801 496.712 15.3833 497.094 14.8892L498.363 15.8774C497.345 17.4422 495.817 18.2246 493.781 18.2246ZM493.522 7.33105C492.684 7.33105 491.98 7.63802 491.411 8.25195C490.842 8.8584 490.49 9.71191 490.355 10.8125H496.442V10.6553C496.382 9.59961 496.098 8.78353 495.589 8.20703C495.08 7.62305 494.391 7.33105 493.522 7.33105ZM503.753 2.90625V5.84863H506.022V7.45459H503.753V14.9902C503.753 15.4769 503.854 15.8438 504.057 16.0908C504.259 16.3304 504.603 16.4502 505.09 16.4502C505.329 16.4502 505.659 16.4053 506.078 16.3154V18C505.532 18.1497 505 18.2246 504.483 18.2246C503.555 18.2246 502.855 17.9438 502.383 17.3823C501.912 16.8208 501.676 16.0234 501.676 14.9902V7.45459H499.463V5.84863H501.676V2.90625H503.753ZM515.961 16.7983C515.152 17.7492 513.966 18.2246 512.401 18.2246C511.106 18.2246 510.117 17.8503 509.436 17.1016C508.762 16.3454 508.422 15.2298 508.414 13.7549V5.84863H510.492V13.6987C510.492 15.5405 511.24 16.4614 512.738 16.4614C514.325 16.4614 515.381 15.87 515.905 14.687V5.84863H517.982V18H516.006L515.961 16.7983ZM528.651 18C528.532 17.7604 528.434 17.3337 528.359 16.7197C527.394 17.723 526.241 18.2246 524.9 18.2246C523.702 18.2246 522.718 17.8877 521.947 17.2139C521.183 16.5326 520.801 15.6715 520.801 14.6309C520.801 13.3656 521.28 12.3848 522.239 11.6885C523.205 10.9847 524.56 10.6328 526.304 10.6328H528.326V9.67822C528.326 8.95199 528.109 8.37549 527.674 7.94873C527.24 7.51449 526.6 7.29736 525.754 7.29736C525.013 7.29736 524.391 7.48454 523.89 7.85889C523.388 8.23324 523.137 8.6862 523.137 9.21777H521.048C521.048 8.61133 521.262 8.02734 521.688 7.46582C522.123 6.89681 522.707 6.44759 523.44 6.11816C524.182 5.78874 524.994 5.62402 525.877 5.62402C527.278 5.62402 528.374 5.97591 529.168 6.67969C529.962 7.37598 530.373 8.33805 530.403 9.56592V15.1587C530.403 16.2743 530.546 17.1615 530.83 17.8203V18H528.651ZM525.204 16.4165C525.855 16.4165 526.473 16.248 527.057 15.9111C527.641 15.5742 528.064 15.1362 528.326 14.5972V12.104H526.697C524.152 12.104 522.879 12.849 522.879 14.3389C522.879 14.9902 523.096 15.4993 523.53 15.8662C523.965 16.2331 524.522 16.4165 525.204 16.4165ZM535.917 18H533.84V0.75H535.917V18ZM544.453 11.8232C544.453 9.95898 544.894 8.46159 545.778 7.33105C546.661 6.19303 547.818 5.62402 549.248 5.62402C550.671 5.62402 551.797 6.11068 552.628 7.08398V0.75H554.706V18H552.797L552.696 16.6973C551.865 17.7155 550.708 18.2246 549.226 18.2246C547.818 18.2246 546.669 17.6481 545.778 16.4951C544.894 15.3421 544.453 13.8372 544.453 11.9805V11.8232ZM546.53 12.0591C546.53 13.4367 546.815 14.5148 547.384 15.2935C547.953 16.0721 548.739 16.4614 549.742 16.4614C551.06 16.4614 552.022 15.87 552.628 14.687V9.10547C552.007 7.95996 551.052 7.38721 549.765 7.38721C548.746 7.38721 547.953 7.78027 547.384 8.56641C546.815 9.35254 546.53 10.5168 546.53 12.0591ZM562.983 18.2246C561.336 18.2246 559.996 17.6855 558.962 16.6074C557.929 15.5218 557.413 14.0731 557.413 12.2612V11.8794C557.413 10.674 557.641 9.59961 558.098 8.65625C558.562 7.7054 559.206 6.96419 560.029 6.43262C560.86 5.89355 561.759 5.62402 562.725 5.62402C564.304 5.62402 565.532 6.14437 566.408 7.18506C567.284 8.22575 567.722 9.71566 567.722 11.6548V12.5195H559.49C559.52 13.7174 559.868 14.687 560.535 15.4282C561.208 16.1619 562.062 16.5288 563.095 16.5288C563.829 16.5288 564.45 16.3791 564.959 16.0796C565.469 15.7801 565.914 15.3833 566.296 14.8892L567.565 15.8774C566.547 17.4422 565.019 18.2246 562.983 18.2246ZM562.725 7.33105C561.886 7.33105 561.182 7.63802 560.613 8.25195C560.044 8.8584 559.692 9.71191 559.558 10.8125H565.645V10.6553C565.585 9.59961 565.3 8.78353 564.791 8.20703C564.282 7.62305 563.593 7.33105 562.725 7.33105ZM576.01 7.71289C575.696 7.66048 575.355 7.63428 574.988 7.63428C573.626 7.63428 572.701 8.21452 572.214 9.375V18H570.137V5.84863H572.158L572.192 7.25244C572.873 6.16683 573.839 5.62402 575.089 5.62402C575.494 5.62402 575.801 5.67643 576.01 5.78125V7.71289ZM580.188 18H578.11V5.84863H580.188V18ZM577.942 2.62549C577.942 2.28857 578.043 2.00407 578.245 1.77197C578.455 1.53988 578.762 1.42383 579.166 1.42383C579.57 1.42383 579.877 1.53988 580.087 1.77197C580.297 2.00407 580.401 2.28857 580.401 2.62549C580.401 2.9624 580.297 3.24316 580.087 3.46777C579.877 3.69238 579.57 3.80469 579.166 3.80469C578.762 3.80469 578.455 3.69238 578.245 3.46777C578.043 3.24316 577.942 2.9624 577.942 2.62549ZM587.533 15.1812L590.542 5.84863H592.665L588.308 18H586.724L582.322 5.84863H584.444L587.533 15.1812ZM601.986 18C601.867 17.7604 601.769 17.3337 601.694 16.7197C600.729 17.723 599.576 18.2246 598.235 18.2246C597.037 18.2246 596.053 17.8877 595.282 17.2139C594.518 16.5326 594.136 15.6715 594.136 14.6309C594.136 13.3656 594.615 12.3848 595.574 11.6885C596.54 10.9847 597.895 10.6328 599.639 10.6328H601.661V9.67822C601.661 8.95199 601.444 8.37549 601.009 7.94873C600.575 7.51449 599.935 7.29736 599.089 7.29736C598.348 7.29736 597.726 7.48454 597.225 7.85889C596.723 8.23324 596.472 8.6862 596.472 9.21777H594.383C594.383 8.61133 594.597 8.02734 595.023 7.46582C595.458 6.89681 596.042 6.44759 596.775 6.11816C597.517 5.78874 598.329 5.62402 599.212 5.62402C600.612 5.62402 601.709 5.97591 602.503 6.67969C603.297 7.37598 603.708 8.33805 603.738 9.56592V15.1587C603.738 16.2743 603.881 17.1615 604.165 17.8203V18H601.986ZM598.539 16.4165C599.19 16.4165 599.808 16.248 600.392 15.9111C600.976 15.5742 601.399 15.1362 601.661 14.5972V12.104H600.032C597.487 12.104 596.214 12.849 596.214 14.3389C596.214 14.9902 596.431 15.4993 596.865 15.8662C597.299 16.2331 597.857 16.4165 598.539 16.4165ZM609.814 2.90625V5.84863H612.083V7.45459H609.814V14.9902C609.814 15.4769 609.915 15.8438 610.117 16.0908C610.319 16.3304 610.664 16.4502 611.15 16.4502C611.39 16.4502 611.719 16.4053 612.139 16.3154V18C611.592 18.1497 611.061 18.2246 610.544 18.2246C609.616 18.2246 608.916 17.9438 608.444 17.3823C607.972 16.8208 607.736 16.0234 607.736 14.9902V7.45459H605.524V5.84863H607.736V2.90625H609.814ZM616.777 18H614.699V5.84863H616.777V18ZM614.531 2.62549C614.531 2.28857 614.632 2.00407 614.834 1.77197C615.044 1.53988 615.351 1.42383 615.755 1.42383C616.159 1.42383 616.466 1.53988 616.676 1.77197C616.885 2.00407 616.99 2.28857 616.99 2.62549C616.99 2.9624 616.885 3.24316 616.676 3.46777C616.466 3.69238 616.159 3.80469 615.755 3.80469C615.351 3.80469 615.044 3.69238 614.834 3.46777C614.632 3.24316 614.531 2.9624 614.531 2.62549ZM624.122 15.1812L627.131 5.84863H629.254L624.896 18H623.313L618.911 5.84863H621.033L624.122 15.1812ZM636.138 18.2246C634.491 18.2246 633.151 17.6855 632.118 16.6074C631.084 15.5218 630.568 14.0731 630.568 12.2612V11.8794C630.568 10.674 630.796 9.59961 631.253 8.65625C631.717 7.7054 632.361 6.96419 633.185 6.43262C634.016 5.89355 634.914 5.62402 635.88 5.62402C637.46 5.62402 638.688 6.14437 639.563 7.18506C640.439 8.22575 640.877 9.71566 640.877 11.6548V12.5195H632.646C632.675 13.7174 633.024 14.687 633.69 15.4282C634.364 16.1619 635.217 16.5288 636.25 16.5288C636.984 16.5288 637.606 16.3791 638.115 16.0796C638.624 15.7801 639.069 15.3833 639.451 14.8892L640.72 15.8774C639.702 17.4422 638.175 18.2246 636.138 18.2246ZM635.88 7.33105C635.041 7.33105 634.338 7.63802 633.769 8.25195C633.2 8.8584 632.848 9.71191 632.713 10.8125H638.8V10.6553C638.74 9.59961 638.455 8.78353 637.946 8.20703C637.437 7.62305 636.748 7.33105 635.88 7.33105ZM650.367 14.7769C650.367 14.2153 650.154 13.7811 649.727 13.4741C649.308 13.1597 648.57 12.8901 647.515 12.6655C646.466 12.4409 645.632 12.1714 645.01 11.8569C644.396 11.5425 643.94 11.1681 643.64 10.7339C643.348 10.2996 643.202 9.78304 643.202 9.18408C643.202 8.18831 643.621 7.34603 644.46 6.65723C645.306 5.96842 646.384 5.62402 647.694 5.62402C649.072 5.62402 650.188 5.97965 651.041 6.69092C651.902 7.40218 652.333 8.31185 652.333 9.41992H650.244C650.244 8.85091 650 8.36051 649.514 7.94873C649.035 7.53695 648.428 7.33105 647.694 7.33105C646.938 7.33105 646.347 7.49577 645.92 7.8252C645.493 8.15462 645.28 8.58512 645.28 9.1167C645.28 9.61833 645.478 9.99642 645.875 10.251C646.272 10.5055 646.987 10.7489 648.02 10.981C649.061 11.2131 649.903 11.4901 650.547 11.812C651.191 12.134 651.666 12.5233 651.973 12.98C652.288 13.4292 652.445 13.9795 652.445 14.6309C652.445 15.7165 652.011 16.5887 651.142 17.2476C650.274 17.8989 649.147 18.2246 647.762 18.2246C646.788 18.2246 645.927 18.0524 645.179 17.708C644.43 17.3636 643.842 16.8844 643.416 16.2705C642.996 15.6491 642.787 14.979 642.787 14.2603H644.864C644.902 14.9565 645.179 15.5106 645.695 15.9224C646.219 16.3267 646.908 16.5288 647.762 16.5288C648.548 16.5288 649.177 16.3716 649.648 16.0571C650.128 15.7352 650.367 15.3084 650.367 14.7769Z" fill="white"/>
</svg>
