<svg width="1440" height="842" viewBox="0 0 1440 842" fill="none" xmlns="http://www.w3.org/2000/svg">
<rect width="1440" height="842" fill="white"/>
<path d="M490.7 166L486.7 157H473.8L469.8 166H463.15L480.25 129.05L497.35 166H490.7ZM480.25 140.9L475.5 152H485L480.25 140.9ZM515.771 152C515.771 148.567 514.355 146.85 511.521 146.85C509.988 146.85 508.738 147.317 507.771 148.25C506.838 149.183 506.371 150.433 506.371 152V166H500.971V143H506.371V146.55C507.838 143.85 510.155 142.5 513.321 142.5C515.921 142.5 517.905 143.3 519.271 144.9C520.638 146.467 521.321 148.633 521.321 151.4V166H515.771V152ZM525.018 143H528.868V135H534.218V143H538.068V147.75H534.218V166H528.868V147.75H525.018V143ZM541.592 133.85C541.592 132.917 541.925 132.133 542.592 131.5C543.258 130.867 544.058 130.55 544.992 130.55C545.958 130.55 546.758 130.867 547.392 131.5C548.058 132.133 548.392 132.917 548.392 133.85C548.392 134.783 548.058 135.567 547.392 136.2C546.758 136.833 545.958 137.15 544.992 137.15C544.058 137.15 543.258 136.833 542.592 136.2C541.925 135.567 541.592 134.783 541.592 133.85ZM542.342 143H547.642V166H542.342V143ZM587.973 151.4V166H582.573V152C582.573 148.567 581.306 146.85 578.773 146.85C577.373 146.85 576.256 147.3 575.423 148.2C574.59 149.067 574.173 150.333 574.173 152V166H568.723V152C568.723 148.567 567.456 146.85 564.923 146.85C563.523 146.85 562.406 147.3 561.573 148.2C560.773 149.067 560.373 150.333 560.373 152V166H555.073V143H560.373V146.35C561.74 143.783 563.89 142.5 566.823 142.5C570.223 142.5 572.44 143.867 573.473 146.6C575.14 143.867 577.54 142.5 580.673 142.5C583.14 142.5 584.973 143.283 586.173 144.85C587.373 146.383 587.973 148.567 587.973 151.4ZM596.568 149L594.368 145.2C595.435 144.567 596.785 143.95 598.418 143.35C600.051 142.75 601.935 142.45 604.068 142.45C606.901 142.45 609.218 143.083 611.018 144.35C612.851 145.583 613.768 147.333 613.768 149.6V166H608.468V162.85C607.735 164.083 606.651 165 605.218 165.6C603.785 166.2 602.335 166.5 600.868 166.5C599.435 166.5 598.101 166.217 596.868 165.65C595.635 165.083 594.651 164.25 593.918 163.15C593.185 162.05 592.818 160.717 592.818 159.15C592.818 156.917 593.601 155.15 595.168 153.85C596.768 152.517 598.985 151.85 601.818 151.85C603.318 151.85 604.618 152.017 605.718 152.35C606.818 152.683 607.735 153.05 608.468 153.45V150.65C608.468 149.25 608.001 148.267 607.068 147.7C606.168 147.133 605.001 146.85 603.568 146.85C601.935 146.85 600.485 147.117 599.218 147.65C597.951 148.183 597.068 148.633 596.568 149ZM598.268 158.85C598.268 159.983 598.668 160.867 599.468 161.5C600.301 162.133 601.335 162.45 602.568 162.45C604.168 162.45 605.551 161.967 606.718 161C607.885 160 608.468 158.633 608.468 156.9V156.55C606.868 155.783 605.085 155.4 603.118 155.4C601.418 155.4 600.185 155.717 599.418 156.35C598.651 156.95 598.268 157.783 598.268 158.85ZM616.863 143H620.713V135H626.063V143H629.913V147.75H626.063V166H620.713V147.75H616.863V143ZM630.438 143H634.288V135H639.638V143H643.488V147.75H639.638V166H634.288V147.75H630.438V143ZM657.212 166.5C654.845 166.5 652.778 166 651.012 165C649.245 164 647.878 162.6 646.912 160.8C645.945 159 645.462 156.9 645.462 154.5C645.462 152.067 645.945 149.967 646.912 148.2C647.912 146.4 649.312 145 651.112 144C652.912 143 655.028 142.5 657.462 142.5C661.095 142.5 663.912 143.55 665.912 145.65C667.945 147.717 668.962 150.583 668.962 154.25C668.962 154.55 668.945 154.85 668.912 155.15C668.912 155.417 668.912 155.617 668.912 155.75H651.012C651.212 157.75 651.862 159.3 652.962 160.4C654.095 161.5 655.595 162.05 657.462 162.05C660.395 162.05 662.595 160.833 664.062 158.4L668.762 160.25C666.362 164.417 662.512 166.5 657.212 166.5ZM657.412 146.6C653.912 146.6 651.828 148.4 651.162 152H663.062C662.962 150.367 662.395 149.067 661.362 148.1C660.328 147.1 659.012 146.6 657.412 146.6ZM686.316 148.8C685.816 148.4 685.349 148.1 684.916 147.9C684.483 147.667 683.933 147.55 683.266 147.55C681.933 147.55 680.966 148.05 680.366 149.05C679.766 150.05 679.466 151.383 679.466 153.05V166H674.116V143H679.466V145.8C680.133 144.767 680.933 143.967 681.866 143.4C682.799 142.8 683.749 142.5 684.716 142.5C685.549 142.5 686.333 142.633 687.066 142.9C687.799 143.167 688.433 143.6 688.966 144.2L686.316 148.8ZM712.462 148.5C712.462 150.967 713.012 153.133 714.112 155C715.212 156.867 716.662 158.317 718.462 159.35C720.295 160.35 722.279 160.85 724.412 160.85C726.879 160.85 729.012 160.383 730.812 159.45C732.645 158.483 734.162 157.283 735.362 155.85V162.9C733.929 164.1 732.345 165.017 730.612 165.65C728.912 166.283 726.779 166.6 724.212 166.6C721.645 166.6 719.262 166.167 717.062 165.3C714.862 164.4 712.929 163.15 711.262 161.55C709.629 159.95 708.345 158.05 707.412 155.85C706.512 153.617 706.062 151.167 706.062 148.5C706.062 145.833 706.512 143.4 707.412 141.2C708.345 138.967 709.629 137.05 711.262 135.45C712.929 133.85 714.862 132.617 717.062 131.75C719.262 130.85 721.645 130.4 724.212 130.4C726.779 130.4 728.912 130.717 730.612 131.35C732.345 131.983 733.929 132.9 735.362 134.1V141.15C734.162 139.717 732.645 138.533 730.812 137.6C729.012 136.633 726.879 136.15 724.412 136.15C722.279 136.15 720.295 136.667 718.462 137.7C716.662 138.7 715.212 140.133 714.112 142C713.012 143.833 712.462 146 712.462 148.5ZM740.432 154.5C740.432 152.133 740.966 150.05 742.032 148.25C743.132 146.45 744.616 145.05 746.482 144.05C748.382 143.017 750.499 142.5 752.832 142.5C755.199 142.5 757.316 143.017 759.182 144.05C761.049 145.05 762.516 146.45 763.582 148.25C764.682 150.05 765.232 152.133 765.232 154.5C765.232 156.833 764.682 158.917 763.582 160.75C762.516 162.55 761.049 163.967 759.182 165C757.316 166 755.199 166.5 752.832 166.5C750.499 166.5 748.382 166 746.482 165C744.616 163.967 743.132 162.55 742.032 160.75C740.966 158.917 740.432 156.833 740.432 154.5ZM745.982 154.5C745.982 156.633 746.632 158.383 747.932 159.75C749.266 161.083 750.899 161.75 752.832 161.75C754.799 161.75 756.432 161.083 757.732 159.75C759.032 158.383 759.682 156.633 759.682 154.5C759.682 152.333 759.032 150.583 757.732 149.25C756.432 147.917 754.799 147.25 752.832 147.25C750.899 147.25 749.266 147.917 747.932 149.25C746.632 150.583 745.982 152.333 745.982 154.5ZM785.156 152C785.156 148.567 783.74 146.85 780.906 146.85C779.373 146.85 778.123 147.317 777.156 148.25C776.223 149.183 775.756 150.433 775.756 152V166H770.356V143H775.756V146.55C777.223 143.85 779.54 142.5 782.706 142.5C785.306 142.5 787.29 143.3 788.656 144.9C790.023 146.467 790.706 148.633 790.706 151.4V166H785.156V152ZM794.402 143H798.252V135H803.602V143H807.452V147.75H803.602V166H798.252V147.75H794.402V143ZM823.377 148.8C822.877 148.4 822.41 148.1 821.977 147.9C821.543 147.667 820.993 147.55 820.327 147.55C818.993 147.55 818.027 148.05 817.427 149.05C816.827 150.05 816.527 151.383 816.527 153.05V166H811.177V143H816.527V145.8C817.193 144.767 817.993 143.967 818.927 143.4C819.86 142.8 820.81 142.5 821.777 142.5C822.61 142.5 823.393 142.633 824.127 142.9C824.86 143.167 825.493 143.6 826.027 144.2L823.377 148.8ZM829.482 133.85C829.482 132.917 829.816 132.133 830.482 131.5C831.149 130.867 831.949 130.55 832.882 130.55C833.849 130.55 834.649 130.867 835.282 131.5C835.949 132.133 836.282 132.917 836.282 133.85C836.282 134.783 835.949 135.567 835.282 136.2C834.649 136.833 833.849 137.15 832.882 137.15C831.949 137.15 831.149 136.833 830.482 136.2C829.816 135.567 829.482 134.783 829.482 133.85ZM830.232 143H835.532V166H830.232V143ZM867.264 154.5C867.264 157 866.747 159.15 865.714 160.95C864.68 162.75 863.314 164.133 861.614 165.1C859.914 166.033 858.064 166.5 856.064 166.5C852.63 166.5 850.014 165.067 848.214 162.2V166H842.764V127H848.214V146.8C850.014 143.933 852.63 142.5 856.064 142.5C858.064 142.5 859.914 142.983 861.614 143.95C863.314 144.883 864.68 146.25 865.714 148.05C866.747 149.817 867.264 151.967 867.264 154.5ZM861.664 154.5C861.664 152.2 860.98 150.417 859.614 149.15C858.247 147.85 856.63 147.2 854.764 147.2C853.73 147.2 852.714 147.483 851.714 148.05C850.714 148.617 849.88 149.45 849.214 150.55C848.547 151.617 848.214 152.933 848.214 154.5C848.214 156.067 848.547 157.4 849.214 158.5C849.88 159.567 850.714 160.383 851.714 160.95C852.714 161.517 853.73 161.8 854.764 161.8C856.63 161.8 858.247 161.167 859.614 159.9C860.98 158.6 861.664 156.8 861.664 154.5ZM877.908 157C877.908 158.633 878.258 159.9 878.958 160.8C879.658 161.7 880.725 162.15 882.158 162.15C883.692 162.15 884.925 161.683 885.858 160.75C886.825 159.783 887.308 158.533 887.308 157V143H892.708V166H887.308V162.45C885.842 165.15 883.525 166.5 880.358 166.5C877.792 166.5 875.808 165.7 874.408 164.1C873.042 162.5 872.358 160.333 872.358 157.6V143H877.908V157ZM896.404 143H900.254V135H905.604V143H909.454V147.75H905.604V166H900.254V147.75H896.404V143ZM911.429 154.5C911.429 152.133 911.962 150.05 913.029 148.25C914.129 146.45 915.612 145.05 917.479 144.05C919.379 143.017 921.495 142.5 923.829 142.5C926.195 142.5 928.312 143.017 930.179 144.05C932.045 145.05 933.512 146.45 934.579 148.25C935.679 150.05 936.229 152.133 936.229 154.5C936.229 156.833 935.679 158.917 934.579 160.75C933.512 162.55 932.045 163.967 930.179 165C928.312 166 926.195 166.5 923.829 166.5C921.495 166.5 919.379 166 917.479 165C915.612 163.967 914.129 162.55 913.029 160.75C911.962 158.917 911.429 156.833 911.429 154.5ZM916.979 154.5C916.979 156.633 917.629 158.383 918.929 159.75C920.262 161.083 921.895 161.75 923.829 161.75C925.795 161.75 927.429 161.083 928.729 159.75C930.029 158.383 930.679 156.633 930.679 154.5C930.679 152.333 930.029 150.583 928.729 149.25C927.429 147.917 925.795 147.25 923.829 147.25C921.895 147.25 920.262 147.917 918.929 149.25C917.629 150.583 916.979 152.333 916.979 154.5ZM953.552 148.8C953.052 148.4 952.586 148.1 952.152 147.9C951.719 147.667 951.169 147.55 950.502 147.55C949.169 147.55 948.202 148.05 947.602 149.05C947.002 150.05 946.702 151.383 946.702 153.05V166H941.352V143H946.702V145.8C947.369 144.767 948.169 143.967 949.102 143.4C950.036 142.8 950.986 142.5 951.952 142.5C952.786 142.5 953.569 142.633 954.302 142.9C955.036 143.167 955.669 143.6 956.202 144.2L953.552 148.8ZM960.908 158.45C962.042 159.683 963.158 160.633 964.258 161.3C965.392 161.933 966.542 162.25 967.708 162.25C968.675 162.25 969.425 162.033 969.958 161.6C970.525 161.133 970.808 160.533 970.808 159.8C970.808 158.8 970.325 158.017 969.358 157.45C968.425 156.85 967.192 156.283 965.658 155.75C964.625 155.35 963.592 154.883 962.558 154.35C961.558 153.783 960.725 153.067 960.058 152.2C959.425 151.3 959.108 150.15 959.108 148.75C959.108 147.35 959.475 146.2 960.208 145.3C960.942 144.367 961.908 143.667 963.108 143.2C964.308 142.733 965.608 142.5 967.008 142.5C968.875 142.5 970.592 142.883 972.158 143.65C973.725 144.417 974.975 145.383 975.908 146.55L972.908 149.75C972.175 148.883 971.258 148.167 970.158 147.6C969.092 147 967.992 146.7 966.858 146.7C966.092 146.7 965.458 146.867 964.958 147.2C964.458 147.533 964.208 148.017 964.208 148.65C964.208 149.517 964.675 150.2 965.608 150.7C966.575 151.2 967.775 151.733 969.208 152.3C970.475 152.8 971.642 153.35 972.708 153.95C973.775 154.517 974.625 155.233 975.258 156.1C975.925 156.967 976.258 158.1 976.258 159.5C976.258 161.667 975.508 163.417 974.008 164.75C972.542 166.05 970.558 166.7 968.058 166.7C965.692 166.7 963.625 166.183 961.858 165.15C960.125 164.117 958.758 162.933 957.758 161.6L960.908 158.45Z" fill="black"/>
<rect width="1440" height="842" fill="#EAEAEA"/>
<path d="M1063.22 555.671C1075.39 520.834 960.289 448.861 806.133 394.915C651.978 340.969 517.142 325.479 504.97 360.316C492.797 395.153 607.896 467.126 762.052 521.071C916.207 575.017 1051.04 590.508 1063.22 555.671Z" stroke="white" stroke-opacity="0.23" stroke-miterlimit="10"/>
<path d="M1051.09 546.853C1062.32 514.734 953.232 447.339 807.446 396.322C661.661 345.306 534.381 329.986 523.158 362.105C511.935 394.224 621.019 461.619 766.804 512.635C912.589 563.652 1039.87 578.971 1051.09 546.853Z" stroke="white" stroke-opacity="0.23" stroke-miterlimit="10"/>
<mask id="mask0" mask-type="alpha" maskUnits="userSpaceOnUse" x="204" y="228" width="401" height="401">
<circle cx="404.5" cy="428.5" r="200.5" fill="url(#paint0_linear)"/>
</mask>
<g mask="url(#mask0)">
<circle cx="404.5" cy="428.5" r="200.5" fill="url(#paint1_linear)"/>
<path d="M1295.95 741.145C1325.18 657.491 1101.77 503.204 796.952 396.535C492.134 289.865 221.334 271.207 192.104 354.861C162.874 438.514 386.282 592.801 691.1 699.471C995.919 806.14 1266.72 824.798 1295.95 741.145Z" stroke="white" stroke-opacity="0.23" stroke-miterlimit="10"/>
<path d="M1283.83 732.326C1312.11 651.391 1094.71 501.682 798.266 397.942C501.817 294.201 238.573 275.714 210.292 356.65C182.012 437.585 399.405 587.294 695.853 691.034C992.301 794.774 1255.55 813.261 1283.83 732.326Z" stroke="white" stroke-opacity="0.23" stroke-miterlimit="10"/>
<path d="M1271.64 723.373C1298.99 645.1 1087.63 499.924 799.548 399.113C511.47 298.302 255.765 280.031 228.415 358.303C201.065 436.576 412.427 581.752 700.505 682.563C988.583 783.374 1244.29 801.645 1271.64 723.373Z" stroke="white" stroke-opacity="0.23" stroke-miterlimit="10"/>
<path d="M1259.52 714.554C1285.92 639 1080.57 498.402 800.862 400.52C521.154 302.638 273.004 284.538 246.604 360.092C220.203 435.647 425.55 576.245 705.258 674.127C984.966 772.009 1233.12 790.109 1259.52 714.554Z" stroke="white" stroke-opacity="0.23" stroke-miterlimit="10"/>
<path d="M1247.39 705.737C1272.84 632.9 1073.51 496.88 802.175 401.927C530.837 306.974 290.243 289.045 264.792 361.881C239.342 434.718 438.673 570.738 710.01 665.691C981.348 760.644 1221.94 778.573 1247.39 705.737Z" stroke="white" stroke-opacity="0.23" stroke-miterlimit="10"/>
<path d="M1235.17 696.883C1259.67 626.765 1066.35 495.323 803.387 403.3C540.42 311.276 307.381 293.517 282.88 363.635C258.379 433.753 451.695 565.195 714.662 657.219C977.63 749.243 1210.67 767.001 1235.17 696.883Z" stroke="white" stroke-opacity="0.23" stroke-miterlimit="10"/>
<path d="M1223.08 687.965C1246.63 620.565 1059.33 493.701 804.736 404.606C550.138 315.511 324.654 297.924 301.104 365.324C277.553 432.724 464.853 559.588 719.45 648.682C974.048 737.777 1199.53 755.364 1223.08 687.965Z" stroke="white" stroke-opacity="0.23" stroke-miterlimit="10"/>
<path d="M1210.86 679.112C1233.46 614.43 1052.18 492.144 805.949 405.978C559.722 319.813 341.794 302.396 319.192 367.078C296.591 431.76 477.876 554.045 724.103 640.211C970.331 726.377 1188.26 743.793 1210.86 679.112Z" stroke="white" stroke-opacity="0.23" stroke-miterlimit="10"/>
<path d="M1198.74 670.293C1220.39 608.33 1045.12 490.622 807.262 407.386C569.405 324.149 359.032 306.904 337.381 368.867C315.73 430.83 490.999 548.538 728.856 631.775C966.713 715.012 1177.09 732.257 1198.74 670.293Z" stroke="white" stroke-opacity="0.23" stroke-miterlimit="10"/>
<path d="M1186.61 661.475C1207.32 602.23 1038.06 489.1 808.576 408.793C579.089 328.485 376.271 311.411 355.569 370.656C334.868 429.901 504.122 543.031 733.609 623.339C963.096 703.646 1165.91 720.721 1186.61 661.475Z" stroke="white" stroke-opacity="0.23" stroke-miterlimit="10"/>
<path d="M1174.43 652.522C1194.18 595.995 1030.94 487.443 809.823 410.064C588.707 332.686 393.444 315.782 373.692 372.31C353.941 428.837 517.179 537.389 738.296 614.767C959.413 692.145 1154.68 709.049 1174.43 652.522Z" stroke="white" stroke-opacity="0.23" stroke-miterlimit="10"/>
<path d="M1162.3 643.704C1181.11 589.895 1023.88 485.921 811.136 411.472C598.39 337.022 410.683 320.29 391.881 374.099C373.079 427.908 530.302 531.881 743.049 606.331C955.795 680.78 1143.5 697.513 1162.3 643.704Z" stroke="white" stroke-opacity="0.23" stroke-miterlimit="10"/>
<path d="M1150.08 634.85C1167.93 583.759 1016.73 484.364 812.349 412.843C607.973 341.323 427.821 324.762 409.969 375.852C392.117 426.943 543.324 526.339 747.701 597.859C952.077 669.379 1132.23 685.941 1150.08 634.85Z" stroke="white" stroke-opacity="0.23" stroke-miterlimit="10"/>
<path d="M1137.96 626.032C1154.88 577.604 1009.7 482.741 813.697 414.15C617.691 345.559 445.079 329.214 428.157 377.642C411.235 426.07 556.412 520.932 752.418 589.524C948.424 658.115 1121.04 674.46 1137.96 626.032Z" stroke="white" stroke-opacity="0.23" stroke-miterlimit="10"/>
<path d="M1125.87 617.114C1141.84 571.404 1002.68 481.119 815.046 415.457C627.41 349.795 462.353 333.62 446.381 379.33C430.409 425.04 569.57 515.325 757.206 580.987C944.842 646.649 1109.9 662.824 1125.87 617.114Z" stroke="white" stroke-opacity="0.23" stroke-miterlimit="10"/>
<path d="M1113.65 608.26C1128.67 565.269 995.525 479.562 816.259 416.829C636.993 354.096 479.492 338.093 464.47 381.084C449.447 424.076 582.593 509.783 761.859 572.516C941.125 635.249 1098.63 651.252 1113.65 608.26Z" stroke="white" stroke-opacity="0.23" stroke-miterlimit="10"/>
<path d="M1101.53 599.442C1115.6 559.169 988.468 478.04 817.572 418.236C646.677 358.432 496.73 342.6 482.658 382.873C468.586 423.147 595.716 504.276 766.612 564.079C937.507 623.883 1087.45 639.716 1101.53 599.442Z" stroke="white" stroke-opacity="0.23" stroke-miterlimit="10"/>
<path d="M1089.4 590.624C1102.53 553.069 981.411 476.518 818.886 419.644C656.36 362.769 513.969 347.107 500.847 384.662C487.724 422.218 608.839 498.768 771.364 555.643C933.89 612.518 1076.28 628.18 1089.4 590.624Z" stroke="white" stroke-opacity="0.23" stroke-miterlimit="10"/>
</g>
<mask id="mask1" mask-type="alpha" maskUnits="userSpaceOnUse" x="810" y="310" width="429" height="429">
<circle cx="1024.5" cy="524.5" r="214.5" fill="url(#paint2_linear)"/>
</mask>
<g mask="url(#mask1)">
<circle cx="1024.5" cy="524.5" r="214.5" fill="url(#paint3_linear)"/>
<path d="M1185.77 690.752C1215 607.098 991.593 452.811 686.775 346.142C381.956 239.473 111.156 220.814 81.926 304.468C52.6958 388.121 276.104 542.408 580.923 649.078C885.741 755.747 1156.54 774.405 1185.77 690.752Z" stroke="white" stroke-opacity="0.23" stroke-miterlimit="10"/>
<path d="M1173.65 681.934C1201.93 600.998 984.536 451.289 688.088 347.549C391.64 243.809 128.395 225.322 100.114 306.257C71.834 387.192 289.227 536.901 585.675 640.642C882.124 744.382 1145.37 762.869 1173.65 681.934Z" stroke="white" stroke-opacity="0.23" stroke-miterlimit="10"/>
<path d="M1161.46 672.98C1188.81 594.708 977.449 449.532 689.371 348.72C401.293 247.909 145.587 229.638 118.237 307.911C90.8874 386.183 302.249 531.359 590.327 632.17C878.406 732.981 1134.11 751.253 1161.46 672.98Z" stroke="white" stroke-opacity="0.23" stroke-miterlimit="10"/>
<path d="M1149.34 664.162C1175.74 588.607 970.392 448.009 690.684 350.127C410.976 252.245 162.826 234.145 136.426 309.7C110.026 385.254 315.372 525.852 595.08 623.734C874.788 721.616 1122.94 739.716 1149.34 664.162Z" stroke="white" stroke-opacity="0.23" stroke-miterlimit="10"/>
<path d="M1137.22 655.344C1162.67 582.508 963.335 446.488 691.997 351.535C420.659 256.582 180.065 238.653 154.614 311.489C129.164 384.325 328.495 520.345 599.833 615.298C871.17 710.251 1111.76 728.18 1137.22 655.344Z" stroke="white" stroke-opacity="0.23" stroke-miterlimit="10"/>
<path d="M1124.99 646.491C1149.49 576.373 956.178 444.931 693.211 352.907C430.243 260.883 197.204 243.125 172.703 313.243C148.203 383.361 341.518 514.803 604.486 606.826C867.453 698.85 1100.49 716.609 1124.99 646.491Z" stroke="white" stroke-opacity="0.23" stroke-miterlimit="10"/>
<path d="M1112.91 637.572C1136.46 570.172 949.156 443.308 694.559 354.213C439.961 265.119 214.478 247.531 190.927 314.931C167.376 382.331 354.676 509.195 609.274 598.29C863.871 687.384 1089.35 704.972 1112.91 637.572Z" stroke="white" stroke-opacity="0.23" stroke-miterlimit="10"/>
<path d="M1100.68 628.719C1123.28 564.037 941.999 441.751 695.771 355.586C449.544 269.42 231.616 252.004 209.015 316.685C186.414 381.367 367.698 503.653 613.926 589.818C860.153 675.984 1078.08 693.4 1100.68 628.719Z" stroke="white" stroke-opacity="0.23" stroke-miterlimit="10"/>
<path d="M1088.56 619.901C1110.21 557.937 934.942 440.229 697.085 356.993C459.228 273.756 248.854 256.511 227.203 318.474C205.552 380.438 380.821 498.146 618.678 581.382C856.535 664.619 1066.91 681.864 1088.56 619.901Z" stroke="white" stroke-opacity="0.23" stroke-miterlimit="10"/>
<path d="M1076.44 611.083C1097.14 551.837 927.885 438.707 698.398 358.4C468.911 278.092 266.093 261.018 245.392 320.263C224.69 379.509 393.944 492.638 623.431 572.946C852.918 653.254 1055.74 670.328 1076.44 611.083Z" stroke="white" stroke-opacity="0.23" stroke-miterlimit="10"/>
<path d="M1064.25 602.129C1084 545.602 920.762 437.05 699.646 359.672C478.529 282.293 283.266 265.39 263.515 321.917C243.763 378.444 407.002 486.996 628.118 564.374C849.235 641.753 1044.5 658.656 1064.25 602.129Z" stroke="white" stroke-opacity="0.23" stroke-miterlimit="10"/>
<path d="M1052.13 593.311C1070.93 539.502 913.705 435.528 700.959 361.079C488.212 286.629 300.505 269.897 281.703 323.706C262.901 377.515 420.124 481.489 632.871 555.938C845.617 630.387 1033.32 647.12 1052.13 593.311Z" stroke="white" stroke-opacity="0.23" stroke-miterlimit="10"/>
<path d="M1039.9 584.458C1057.76 533.367 906.549 433.971 702.172 362.451C497.796 290.931 317.644 274.369 299.792 325.46C281.94 376.551 433.148 475.946 637.524 547.467C841.9 618.987 1022.05 635.548 1039.9 584.458Z" stroke="white" stroke-opacity="0.23" stroke-miterlimit="10"/>
<path d="M1027.78 575.639C1044.7 527.211 899.527 432.349 703.521 363.758C507.514 295.166 334.902 278.821 317.98 327.249C301.059 375.677 446.235 470.54 642.241 539.131C838.248 607.722 1010.86 624.067 1027.78 575.639Z" stroke="white" stroke-opacity="0.23" stroke-miterlimit="10"/>
<path d="M1015.69 566.721C1031.67 521.011 892.505 430.726 704.869 365.064C517.233 299.402 352.176 283.228 336.204 328.938C320.232 374.647 459.393 464.932 647.029 530.594C834.665 596.256 999.722 612.431 1015.69 566.721Z" stroke="white" stroke-opacity="0.23" stroke-miterlimit="10"/>
<path d="M1003.47 557.868C1018.49 514.876 885.347 429.169 706.081 366.436C526.816 303.703 369.314 287.7 354.292 330.692C339.27 373.683 472.416 459.39 651.681 522.123C830.947 584.856 988.449 600.859 1003.47 557.868Z" stroke="white" stroke-opacity="0.23" stroke-miterlimit="10"/>
<path d="M991.348 549.05C1005.42 508.776 878.29 427.647 707.395 367.844C536.499 308.04 386.553 292.207 372.48 332.481C358.408 372.754 485.538 453.883 656.434 513.687C827.33 573.491 977.276 589.323 991.348 549.05Z" stroke="white" stroke-opacity="0.23" stroke-miterlimit="10"/>
<path d="M979.226 540.232C992.348 502.676 871.233 426.126 708.708 369.251C546.182 312.376 403.791 296.714 390.669 334.27C377.546 371.825 498.661 448.376 661.187 505.251C823.712 562.125 966.103 577.787 979.226 540.232Z" stroke="white" stroke-opacity="0.23" stroke-miterlimit="10"/>
<path d="M967.038 531.278C979.211 496.441 864.111 424.468 709.956 370.522C555.8 316.577 420.965 301.086 408.792 335.923C396.619 370.76 511.719 442.733 665.874 496.679C820.029 550.624 954.865 566.115 967.038 531.278Z" stroke="white" stroke-opacity="0.23" stroke-miterlimit="10"/>
<path d="M954.915 522.46C966.138 490.341 857.054 422.946 711.269 371.93C565.484 320.913 438.203 305.593 426.98 337.712C415.757 369.831 524.841 437.226 670.627 488.242C816.412 539.259 943.692 554.579 954.915 522.46Z" stroke="white" stroke-opacity="0.23" stroke-miterlimit="10"/>
</g>
<defs>
<linearGradient id="paint0_linear" x1="381.703" y1="402.195" x2="381.703" y2="773.968" gradientUnits="userSpaceOnUse">
<stop/>
<stop offset="1"/>
</linearGradient>
<linearGradient id="paint1_linear" x1="381.703" y1="402.195" x2="381.703" y2="773.968" gradientUnits="userSpaceOnUse">
<stop/>
<stop offset="1"/>
</linearGradient>
<linearGradient id="paint2_linear" x1="1000.11" y1="496.359" x2="1000.11" y2="894.09" gradientUnits="userSpaceOnUse">
<stop stop-color="#232121"/>
<stop offset="1" stop-color="#232121" stop-opacity="0"/>
</linearGradient>
<linearGradient id="paint3_linear" x1="1000.11" y1="496.359" x2="1000.11" y2="894.09" gradientUnits="userSpaceOnUse">
<stop/>
<stop offset="1"/>
</linearGradient>
</defs>
</svg>
