<svg width="429" height="429" viewBox="0 0 429 429" fill="none" xmlns="http://www.w3.org/2000/svg">
    <path d="M375.771 380.752C405.002 297.098 181.593 142.811 -123.225 36.1419C-428.044 -70.5274 -698.844 -89.1855 -728.074 -5.53211C-757.304 78.1213 -533.896 232.408 -229.077 339.078C75.7411 445.747 346.541 464.405 375.771 380.752Z" stroke="white" stroke-opacity="0.23" stroke-miterlimit="10"/>
    <path d="M363.649 371.934C391.929 290.998 174.536 141.289 -121.912 37.5491C-418.36 -66.1911 -681.605 -84.6782 -709.886 -3.74299C-738.166 77.1923 -520.773 226.901 -224.325 330.642C72.1237 434.382 335.368 452.869 363.649 371.934Z" stroke="white" stroke-opacity="0.23" stroke-miterlimit="10"/>
    <path d="M351.461 362.98C378.811 284.708 167.449 139.532 -120.629 38.7204C-408.707 -62.0908 -664.412 -80.362 -691.762 -2.08945C-719.112 76.1831 -507.75 221.359 -219.672 322.17C68.406 422.981 324.111 441.253 351.461 362.98Z" stroke="white" stroke-opacity="0.23" stroke-miterlimit="10"/>
    <path d="M339.338 354.162C365.739 278.607 160.392 138.009 -119.316 40.1274C-399.024 -57.7546 -647.173 -75.8548 -673.574 -0.30044C-699.974 75.2539 -494.627 215.852 -214.92 313.734C64.7884 411.616 312.938 429.716 339.338 354.162Z" stroke="white" stroke-opacity="0.23" stroke-miterlimit="10"/>
    <path d="M327.216 345.344C352.666 272.508 153.335 136.488 -118.002 41.5347C-389.34 -53.4182 -629.935 -71.3475 -655.385 1.48871C-680.836 74.3249 -481.505 210.345 -210.167 305.298C61.171 400.251 301.765 418.18 327.216 345.344Z" stroke="white" stroke-opacity="0.23" stroke-miterlimit="10"/>
    <path d="M314.993 336.491C339.494 266.373 146.178 134.931 -116.789 42.9068C-379.757 -49.1171 -612.796 -66.8753 -637.297 3.24271C-661.797 73.3607 -468.482 204.803 -205.514 296.826C57.4533 388.85 290.492 406.609 314.993 336.491Z" stroke="white" stroke-opacity="0.23" stroke-miterlimit="10"/>
    <path d="M302.905 327.572C326.456 260.172 139.156 133.308 -115.442 44.2134C-370.039 -44.8813 -595.523 -62.4686 -619.074 4.93123C-642.625 72.331 -455.324 199.195 -200.727 288.29C53.8704 377.384 279.354 394.972 302.905 327.572Z" stroke="white" stroke-opacity="0.23" stroke-miterlimit="10"/>
    <path d="M290.682 318.719C313.283 254.037 131.999 131.751 -114.229 45.5855C-360.456 -40.5802 -578.384 -57.9964 -600.985 6.68523C-623.586 71.3668 -442.302 193.653 -196.074 279.818C50.1528 365.984 268.081 383.4 290.682 318.719Z" stroke="white" stroke-opacity="0.23" stroke-miterlimit="10"/>
    <path d="M278.56 309.901C300.211 247.937 124.942 130.229 -112.915 46.9927C-350.772 -36.2439 -561.146 -53.4892 -582.797 8.47424C-604.448 70.4377 -429.179 188.146 -191.322 271.382C46.5354 354.619 256.908 371.864 278.56 309.901Z" stroke="white" stroke-opacity="0.23" stroke-miterlimit="10"/>
    <path d="M266.437 301.083C287.139 241.837 117.885 128.707 -111.602 48.4C-341.089 -31.9076 -543.907 -48.9819 -564.608 10.2633C-585.31 69.5086 -416.056 182.638 -186.569 262.946C42.9178 343.254 245.736 360.328 266.437 301.083Z" stroke="white" stroke-opacity="0.23" stroke-miterlimit="10"/>
    <path d="M254.25 292.129C274.001 235.602 110.763 127.05 -110.354 49.6715C-331.471 -27.7069 -526.733 -44.6102 -546.485 11.9169C-566.237 68.4439 -402.998 176.996 -181.881 254.374C39.2354 331.753 234.498 348.656 254.25 292.129Z" stroke="white" stroke-opacity="0.23" stroke-miterlimit="10"/>
    <path d="M242.127 283.311C260.929 229.502 103.706 125.528 -109.041 51.0788C-321.787 -23.3706 -509.494 -40.1029 -528.296 13.706C-547.098 67.5149 -389.875 171.489 -177.129 245.938C35.6179 320.387 223.325 337.12 242.127 283.311Z" stroke="white" stroke-opacity="0.23" stroke-miterlimit="10"/>
    <path d="M229.904 274.458C247.756 223.367 96.5482 123.971 -107.828 52.4508C-312.205 -19.0694 -492.356 -35.6309 -510.209 15.4598C-528.061 66.5505 -376.853 165.946 -172.477 237.467C31.8998 308.987 212.052 325.548 229.904 274.458Z" stroke="white" stroke-opacity="0.23" stroke-miterlimit="10"/>
    <path d="M217.781 265.639C234.703 217.211 89.5263 122.349 -106.48 53.7576C-302.486 -14.8336 -475.098 -31.179 -492.02 17.249C-508.942 65.677 -363.765 160.54 -167.759 229.131C28.2472 297.722 200.859 314.067 217.781 265.639Z" stroke="white" stroke-opacity="0.23" stroke-miterlimit="10"/>
    <path d="M205.694 256.721C221.666 211.011 82.5048 120.726 -105.131 55.0643C-292.767 -10.5978 -457.824 -26.7722 -473.796 18.9376C-489.768 64.6474 -350.607 154.932 -162.971 220.594C24.6653 286.256 189.722 302.431 205.694 256.721Z" stroke="white" stroke-opacity="0.23" stroke-miterlimit="10"/>
    <path d="M193.471 247.868C208.493 204.876 75.3473 119.169 -103.919 56.4363C-283.184 -6.29662 -440.686 -22.3001 -455.708 20.6915C-470.73 63.6831 -337.584 149.39 -158.319 212.123C20.9472 274.856 178.449 290.859 193.471 247.868Z" stroke="white" stroke-opacity="0.23" stroke-miterlimit="10"/>
    <path d="M181.348 239.05C195.421 198.776 68.2903 117.647 -102.605 57.8436C-273.501 -1.96029 -423.447 -17.7929 -437.52 22.4806C-451.592 62.7541 -324.462 143.883 -153.566 203.687C17.3297 263.491 167.276 279.323 181.348 239.05Z" stroke="white" stroke-opacity="0.23" stroke-miterlimit="10"/>
    <path d="M169.226 230.232C182.348 192.676 61.2332 116.126 -101.292 59.2508C-263.818 2.376 -406.209 -13.2855 -419.331 24.2697C-432.454 61.825 -311.339 138.376 -148.813 195.251C13.7121 252.125 156.103 267.787 169.226 230.232Z" stroke="white" stroke-opacity="0.23" stroke-miterlimit="10"/>
    <path d="M157.038 221.278C169.211 186.441 54.1114 114.468 -100.044 60.5223C-254.199 6.57666 -389.035 -8.91392 -401.208 25.9232C-413.381 60.7603 -298.281 132.733 -144.126 186.679C10.0297 240.624 144.865 256.115 157.038 221.278Z" stroke="white" stroke-opacity="0.23" stroke-miterlimit="10"/>
    <path d="M144.915 212.46C156.138 180.341 47.0543 112.946 -98.7308 61.9296C-244.516 10.913 -371.796 -4.40661 -383.019 27.7123C-394.242 59.8312 -285.158 127.226 -139.373 178.242C6.41215 229.259 133.692 244.579 144.915 212.46Z" stroke="white" stroke-opacity="0.23" stroke-miterlimit="10"/>
</svg>
