<svg width="615" height="108" viewBox="0 0 615 108" fill="none" xmlns="http://www.w3.org/2000/svg">
    <path d="M26.024 36L22.988 29.79H12.776L9.786 36H0.954L17.928 1.776L34.856 36H26.024ZM17.928 15.668L14.34 23.856H21.47L17.928 15.668ZM52.4812 28.318C54.1065 29.6673 55.4865 30.5873 56.6212 31.078C57.7865 31.538 58.7372 31.768 59.4732 31.768C60.8532 31.768 61.5432 31.216 61.5432 30.112C61.5432 29.4373 61.2212 28.9007 60.5772 28.502C59.9332 28.0727 58.7525 27.582 57.0352 27.03C56.0539 26.6927 55.1032 26.2633 54.1832 25.742C53.2632 25.2207 52.5119 24.5307 51.9292 23.672C51.3465 22.8133 51.0552 21.7093 51.0552 20.36C51.0552 18.428 51.8065 16.956 53.3092 15.944C54.8119 14.9013 56.6979 14.38 58.9672 14.38C60.7765 14.38 62.4325 14.6867 63.9352 15.3C65.4379 15.8827 66.8025 16.6187 68.0292 17.508L65.5452 22.062C64.6865 21.234 63.6745 20.544 62.5092 19.992C61.3745 19.44 60.3319 19.164 59.3812 19.164C58.7679 19.164 58.2925 19.2867 57.9552 19.532C57.6485 19.7773 57.4952 20.0993 57.4952 20.498C57.4952 21.2033 57.9092 21.7247 58.7372 22.062C59.5959 22.3993 60.8072 22.8747 62.3712 23.488C63.4752 23.8867 64.4872 24.3467 65.4072 24.868C66.3272 25.3893 67.0632 26.0487 67.6152 26.846C68.1979 27.6433 68.4892 28.7013 68.4892 30.02C68.4892 32.2587 67.7992 33.9607 66.4192 35.126C65.0392 36.2913 63.0765 36.874 60.5312 36.874C58.2312 36.874 56.1919 36.506 54.4132 35.77C52.6345 35.0033 51.0245 34.0527 49.5832 32.918L52.4812 28.318ZM71.8957 6.928C71.8957 5.824 72.279 4.91933 73.0457 4.214C73.843 3.50866 74.809 3.156 75.9437 3.156C77.0784 3.156 78.029 3.50866 78.7957 4.214C79.593 4.91933 79.9917 5.824 79.9917 6.928C79.9917 8.032 79.593 8.93667 78.7957 9.642C78.029 10.3167 77.0784 10.654 75.9437 10.654C74.809 10.654 73.843 10.3167 73.0457 9.642C72.279 8.93667 71.8957 8.032 71.8957 6.928ZM72.5397 14.84H79.3017V36H72.5397V14.84ZM117.315 22.384V36H110.323V23.12C110.323 21.8627 110.108 20.912 109.679 20.268C109.28 19.5933 108.605 19.256 107.655 19.256C106.735 19.256 105.983 19.578 105.401 20.222C104.818 20.866 104.527 21.832 104.527 23.12V36H97.5346V23.12C97.5346 21.8627 97.3199 20.912 96.8906 20.268C96.4919 19.5933 95.8173 19.256 94.8666 19.256C93.9466 19.256 93.1953 19.578 92.6126 20.222C92.0299 20.866 91.7386 21.832 91.7386 23.12V36H85.0226V14.84H91.7386V17.968C92.3519 16.8027 93.1646 15.9133 94.1766 15.3C95.1886 14.656 96.4153 14.334 97.8566 14.334C99.5126 14.334 100.831 14.6253 101.813 15.208C102.825 15.7907 103.53 16.6647 103.929 17.83C104.695 16.726 105.646 15.8673 106.781 15.254C107.915 14.6407 109.203 14.334 110.645 14.334C113.098 14.334 114.815 15.0393 115.797 16.45C116.809 17.8607 117.315 19.8387 117.315 22.384ZM129.657 46.12H122.711V14.84H129.657V18.244C130.424 16.9253 131.405 15.9133 132.601 15.208C133.828 14.472 135.254 14.104 136.879 14.104C138.596 14.104 140.222 14.5333 141.755 15.392C143.288 16.22 144.53 17.4773 145.481 19.164C146.462 20.8507 146.953 22.936 146.953 25.42C146.953 27.904 146.462 29.9893 145.481 31.676C144.53 33.332 143.288 34.5893 141.755 35.448C140.222 36.3067 138.596 36.736 136.879 36.736C135.254 36.736 133.828 36.3833 132.601 35.678C131.405 34.942 130.424 33.9147 129.657 32.596V46.12ZM139.639 25.42C139.639 23.764 139.133 22.4913 138.121 21.602C137.14 20.7127 135.959 20.268 134.579 20.268C133.812 20.268 133.046 20.4673 132.279 20.866C131.512 21.234 130.884 21.8013 130.393 22.568C129.902 23.304 129.657 24.2547 129.657 25.42C129.657 26.5547 129.902 27.5053 130.393 28.272C130.884 29.0387 131.512 29.6213 132.279 30.02C133.046 30.388 133.812 30.572 134.579 30.572C135.959 30.572 137.14 30.1273 138.121 29.238C139.133 28.3487 139.639 27.076 139.639 25.42ZM151.103 0.119999H158.095V36H151.103V0.119999ZM174.311 36.46C171.827 36.46 169.68 36.0153 167.871 35.126C166.092 34.206 164.712 32.918 163.731 31.262C162.75 29.606 162.259 27.6587 162.259 25.42C162.259 21.9853 163.317 19.2867 165.433 17.324C167.549 15.3613 170.462 14.38 174.173 14.38C177.822 14.38 180.628 15.3153 182.591 17.186C184.584 19.0567 185.581 21.694 185.581 25.098C185.581 25.4353 185.581 25.7573 185.581 26.064C185.581 26.3707 185.566 26.6467 185.535 26.892H169.389C169.573 28.3333 170.079 29.4527 170.907 30.25C171.735 31.0473 172.824 31.446 174.173 31.446C176.626 31.446 178.374 30.526 179.417 28.686L185.673 30.204C183.434 34.3747 179.647 36.46 174.311 36.46ZM174.035 19.026C171.52 19.026 170.002 20.36 169.481 23.028H178.129C178.006 21.8013 177.577 20.8353 176.841 20.13C176.136 19.394 175.2 19.026 174.035 19.026ZM203.661 0.119999H210.653V36H203.661V0.119999ZM215.646 6.928C215.646 5.824 216.029 4.91933 216.796 4.214C217.593 3.50866 218.559 3.156 219.694 3.156C220.828 3.156 221.779 3.50866 222.546 4.214C223.343 4.91933 223.742 5.824 223.742 6.928C223.742 8.032 223.343 8.93667 222.546 9.642C221.779 10.3167 220.828 10.654 219.694 10.654C218.559 10.654 217.593 10.3167 216.796 9.642C216.029 8.93667 215.646 8.032 215.646 6.928ZM216.29 14.84H223.052V36H216.29V14.84ZM227.991 37.518H234.753C234.875 38.8367 235.366 39.818 236.225 40.462C237.083 41.106 238.187 41.428 239.537 41.428C241.009 41.428 242.251 40.9373 243.263 39.956C244.305 38.9747 244.827 37.5027 244.827 35.54V32.228C243.14 34.6813 240.717 35.908 237.559 35.908C235.841 35.908 234.216 35.5093 232.683 34.712C231.149 33.9147 229.907 32.7187 228.957 31.124C228.006 29.4987 227.531 27.5053 227.531 25.144C227.531 22.752 228.006 20.7587 228.957 19.164C229.907 17.5693 231.149 16.3733 232.683 15.576C234.216 14.7787 235.841 14.38 237.559 14.38C240.717 14.38 243.14 15.6067 244.827 18.06V14.84H251.497V35.54C251.497 38.2693 250.975 40.4773 249.933 42.164C248.89 43.8507 247.479 45.0773 245.701 45.844C243.953 46.6107 242.005 46.994 239.859 46.994C237.221 46.994 235.059 46.5953 233.373 45.798C231.686 45.0007 230.413 43.8813 229.555 42.44C228.696 41.0293 228.175 39.3887 227.991 37.518ZM234.845 25.144C234.845 26.8 235.335 28.0727 236.317 28.962C237.329 29.8513 238.525 30.296 239.905 30.296C240.702 30.296 241.469 30.112 242.205 29.744C242.971 29.3453 243.6 28.7627 244.091 27.996C244.581 27.2293 244.827 26.2787 244.827 25.144C244.827 23.9787 244.581 23.028 244.091 22.292C243.6 21.5253 242.971 20.958 242.205 20.59C241.469 20.1913 240.702 19.992 239.905 19.992C238.525 19.992 237.329 20.4367 236.317 21.326C235.335 22.2153 234.845 23.488 234.845 25.144ZM270.603 23.12C270.603 21.8627 270.373 20.912 269.913 20.268C269.453 19.5933 268.655 19.256 267.521 19.256C266.417 19.256 265.527 19.5933 264.853 20.268C264.178 20.912 263.841 21.8627 263.841 23.12V36H256.849V0.119999H263.841V17.738C264.423 16.6033 265.251 15.714 266.325 15.07C267.398 14.3953 268.717 14.058 270.281 14.058C272.918 14.058 274.789 14.748 275.893 16.128C276.997 17.508 277.549 19.5013 277.549 22.108V36H270.603V23.12ZM280.509 14.84H284.235V7.48H290.951V14.84H294.677V20.59H290.951V36H284.235V20.59H280.509V14.84ZM294.556 14.84H301.87L306.286 25.65L312.358 13.23L318.568 25.696L322.984 14.84H330.298L319.35 37.334L312.358 24.776L305.504 37.334L294.556 14.84ZM342.768 36.46C340.284 36.46 338.137 36.0153 336.328 35.126C334.549 34.206 333.169 32.918 332.188 31.262C331.207 29.606 330.716 27.6587 330.716 25.42C330.716 21.9853 331.774 19.2867 333.89 17.324C336.006 15.3613 338.919 14.38 342.63 14.38C346.279 14.38 349.085 15.3153 351.048 17.186C353.041 19.0567 354.038 21.694 354.038 25.098C354.038 25.4353 354.038 25.7573 354.038 26.064C354.038 26.3707 354.023 26.6467 353.992 26.892H337.846C338.03 28.3333 338.536 29.4527 339.364 30.25C340.192 31.0473 341.281 31.446 342.63 31.446C345.083 31.446 346.831 30.526 347.874 28.686L354.13 30.204C351.891 34.3747 348.104 36.46 342.768 36.46ZM342.492 19.026C339.977 19.026 338.459 20.36 337.938 23.028H346.586C346.463 21.8013 346.034 20.8353 345.298 20.13C344.593 19.394 343.657 19.026 342.492 19.026ZM357.913 6.928C357.913 5.824 358.297 4.91933 359.063 4.214C359.861 3.50866 360.827 3.156 361.961 3.156C363.096 3.156 364.047 3.50866 364.813 4.214C365.611 4.91933 366.009 5.824 366.009 6.928C366.009 8.032 365.611 8.93667 364.813 9.642C364.047 10.3167 363.096 10.654 361.961 10.654C360.827 10.654 359.861 10.3167 359.063 9.642C358.297 8.93667 357.913 8.032 357.913 6.928ZM358.557 14.84H365.319V36H358.557V14.84ZM370.258 37.518H377.02C377.143 38.8367 377.634 39.818 378.492 40.462C379.351 41.106 380.455 41.428 381.804 41.428C383.276 41.428 384.518 40.9373 385.53 39.956C386.573 38.9747 387.094 37.5027 387.094 35.54V32.228C385.408 34.6813 382.985 35.908 379.826 35.908C378.109 35.908 376.484 35.5093 374.95 34.712C373.417 33.9147 372.175 32.7187 371.224 31.124C370.274 29.4987 369.798 27.5053 369.798 25.144C369.798 22.752 370.274 20.7587 371.224 19.164C372.175 17.5693 373.417 16.3733 374.95 15.576C376.484 14.7787 378.109 14.38 379.826 14.38C382.985 14.38 385.408 15.6067 387.094 18.06V14.84H393.764V35.54C393.764 38.2693 393.243 40.4773 392.2 42.164C391.158 43.8507 389.747 45.0773 387.968 45.844C386.22 46.6107 384.273 46.994 382.126 46.994C379.489 46.994 377.327 46.5953 375.64 45.798C373.954 45.0007 372.681 43.8813 371.822 42.44C370.964 41.0293 370.442 39.3887 370.258 37.518ZM377.112 25.144C377.112 26.8 377.603 28.0727 378.584 28.962C379.596 29.8513 380.792 30.296 382.172 30.296C382.97 30.296 383.736 30.112 384.472 29.744C385.239 29.3453 385.868 28.7627 386.358 27.996C386.849 27.2293 387.094 26.2787 387.094 25.144C387.094 23.9787 386.849 23.028 386.358 22.292C385.868 21.5253 385.239 20.958 384.472 20.59C383.736 20.1913 382.97 19.992 382.172 19.992C380.792 19.992 379.596 20.4367 378.584 21.326C377.603 22.2153 377.112 23.488 377.112 25.144ZM412.87 23.12C412.87 21.8627 412.64 20.912 412.18 20.268C411.72 19.5933 410.923 19.256 409.788 19.256C408.684 19.256 407.795 19.5933 407.12 20.268C406.446 20.912 406.108 21.8627 406.108 23.12V36H399.116V0.119999H406.108V17.738C406.691 16.6033 407.519 15.714 408.592 15.07C409.666 14.3953 410.984 14.058 412.548 14.058C415.186 14.058 417.056 14.748 418.16 16.128C419.264 17.508 419.816 19.5013 419.816 22.108V36H412.87V23.12ZM422.777 14.84H426.503V7.48H433.219V14.84H436.945V20.59H433.219V36H426.503V20.59H422.777V14.84ZM452.454 25.42C452.454 23.1813 452.976 21.234 454.018 19.578C455.092 17.922 456.533 16.634 458.342 15.714C460.182 14.794 462.252 14.334 464.552 14.334C466.883 14.334 468.953 14.794 470.762 15.714C472.572 16.634 473.998 17.922 475.04 19.578C476.114 21.234 476.65 23.1813 476.65 25.42C476.65 27.628 476.114 29.56 475.04 31.216C473.998 32.872 472.572 34.16 470.762 35.08C468.953 36 466.883 36.46 464.552 36.46C462.252 36.46 460.182 36 458.342 35.08C456.533 34.16 455.092 32.872 454.018 31.216C452.976 29.56 452.454 27.628 452.454 25.42ZM459.63 25.42C459.63 27.0453 460.106 28.3333 461.056 29.284C462.038 30.2347 463.203 30.71 464.552 30.71C465.902 30.71 467.052 30.2347 468.002 29.284C468.984 28.3333 469.474 27.0453 469.474 25.42C469.474 23.7947 468.984 22.5067 468.002 21.556C467.052 20.5747 465.902 20.084 464.552 20.084C463.203 20.084 462.038 20.5747 461.056 21.556C460.106 22.5067 459.63 23.7947 459.63 25.42ZM494.538 23.12C494.538 21.8627 494.308 20.912 493.848 20.268C493.388 19.5933 492.591 19.256 491.456 19.256C490.352 19.256 489.463 19.5933 488.788 20.268C488.114 20.912 487.776 21.8627 487.776 23.12V36H480.784V14.84H487.776V18.014C488.39 16.8487 489.218 15.944 490.26 15.3C491.334 14.656 492.652 14.334 494.216 14.334C496.854 14.334 498.77 15.0393 499.966 16.45C501.193 17.8607 501.806 19.8387 501.806 22.384V36H494.538V23.12ZM513.085 25.42C513.085 27.1067 513.637 28.4407 514.741 29.422C515.845 30.4033 517.179 30.894 518.743 30.894C520.001 30.894 521.197 30.6333 522.331 30.112C523.466 29.56 524.34 28.778 524.953 27.766V34.528C524.217 35.1107 523.297 35.586 522.193 35.954C521.089 36.2913 519.74 36.46 518.145 36.46C515.784 36.46 513.683 36 511.843 35.08C510.003 34.16 508.547 32.872 507.473 31.216C506.431 29.56 505.909 27.628 505.909 25.42C505.909 23.1813 506.431 21.2493 507.473 19.624C508.547 17.968 510.003 16.68 511.843 15.76C513.683 14.84 515.784 14.38 518.145 14.38C519.74 14.38 521.089 14.564 522.193 14.932C523.297 15.2693 524.217 15.6987 524.953 16.22V23.028C524.34 22.016 523.435 21.2493 522.239 20.728C521.043 20.2067 519.878 19.946 518.743 19.946C517.701 19.946 516.75 20.1913 515.891 20.682C515.033 21.142 514.343 21.786 513.821 22.614C513.331 23.442 513.085 24.3773 513.085 25.42ZM543.683 23.12C543.683 21.8627 543.453 20.912 542.993 20.268C542.533 19.5933 541.736 19.256 540.601 19.256C539.497 19.256 538.608 19.5933 537.933 20.268C537.258 20.912 536.921 21.8627 536.921 23.12V36H529.929V0.119999H536.921V17.738C537.504 16.6033 538.332 15.714 539.405 15.07C540.478 14.3953 541.797 14.058 543.361 14.058C545.998 14.058 547.869 14.748 548.973 16.128C550.077 17.508 550.629 19.5013 550.629 22.108V36H543.683V23.12ZM558.373 21.326L556.027 16.68C557.254 16.0973 558.695 15.5453 560.351 15.024C562.038 14.5027 563.878 14.242 565.871 14.242C567.742 14.242 569.413 14.518 570.885 15.07C572.357 15.5913 573.523 16.358 574.381 17.37C575.24 18.382 575.669 19.624 575.669 21.096V36H568.999V33.102C568.355 34.206 567.389 35.0493 566.101 35.632C564.844 36.184 563.479 36.46 562.007 36.46C560.658 36.46 559.401 36.2147 558.235 35.724C557.101 35.2027 556.181 34.436 555.475 33.424C554.801 32.412 554.463 31.1853 554.463 29.744C554.463 27.72 555.169 26.1253 556.579 24.96C558.021 23.764 560.075 23.166 562.743 23.166C564.031 23.166 565.212 23.304 566.285 23.58C567.359 23.8253 568.263 24.132 568.999 24.5V22.66C568.999 20.5747 567.665 19.532 564.997 19.532C564.077 19.532 563.157 19.6393 562.237 19.854C561.317 20.0687 560.505 20.3293 559.799 20.636C559.125 20.912 558.649 21.142 558.373 21.326ZM561.501 29.376C561.501 30.204 561.777 30.848 562.329 31.308C562.912 31.7373 563.633 31.952 564.491 31.952C565.626 31.952 566.638 31.6147 567.527 30.94C568.417 30.2347 568.907 29.192 568.999 27.812C567.742 27.26 566.377 26.984 564.905 26.984C563.679 26.984 562.805 27.1987 562.283 27.628C561.762 28.0267 561.501 28.6093 561.501 29.376ZM580.456 6.928C580.456 5.824 580.84 4.91933 581.606 4.214C582.404 3.50866 583.37 3.156 584.504 3.156C585.639 3.156 586.59 3.50866 587.356 4.214C588.154 4.91933 588.552 5.824 588.552 6.928C588.552 8.032 588.154 8.93667 587.356 9.642C586.59 10.3167 585.639 10.654 584.504 10.654C583.37 10.654 582.404 10.3167 581.606 9.642C580.84 8.93667 580.456 8.032 580.456 6.928ZM581.1 14.84H587.862V36H581.1V14.84ZM607.337 23.12C607.337 21.8627 607.107 20.912 606.647 20.268C606.187 19.5933 605.39 19.256 604.255 19.256C603.151 19.256 602.262 19.5933 601.587 20.268C600.912 20.912 600.575 21.8627 600.575 23.12V36H593.583V14.84H600.575V18.014C601.188 16.8487 602.016 15.944 603.059 15.3C604.132 14.656 605.451 14.334 607.015 14.334C609.652 14.334 611.569 15.0393 612.765 16.45C613.992 17.8607 614.605 19.8387 614.605 22.384V36H607.337V23.12ZM15.904 97H4.404V64.8H15.904C19.4307 64.8 22.482 65.4593 25.058 66.778C27.634 68.066 29.6273 69.9213 31.038 72.344C32.4487 74.736 33.154 77.588 33.154 80.9C33.154 84.212 32.4487 87.0793 31.038 89.502C29.6273 91.894 27.634 93.7493 25.058 95.068C22.482 96.356 19.4307 97 15.904 97ZM15.628 71.746H12.454V90.054H15.628C17.284 90.054 18.8327 89.778 20.274 89.226C21.7153 88.6433 22.8807 87.6927 23.77 86.374C24.6593 85.0247 25.104 83.2 25.104 80.9C25.104 78.6 24.6593 76.7907 23.77 75.472C22.8807 74.1227 21.7153 73.172 20.274 72.62C18.8327 72.0373 17.284 71.746 15.628 71.746ZM48.2603 97.46C45.7763 97.46 43.6297 97.0153 41.8203 96.126C40.0417 95.206 38.6617 93.918 37.6803 92.262C36.699 90.606 36.2083 88.6587 36.2083 86.42C36.2083 82.9853 37.2663 80.2867 39.3823 78.324C41.4983 76.3613 44.4117 75.38 48.1223 75.38C51.7717 75.38 54.5777 76.3153 56.5403 78.186C58.5337 80.0567 59.5303 82.694 59.5303 86.098C59.5303 86.4353 59.5303 86.7573 59.5303 87.064C59.5303 87.3707 59.515 87.6467 59.4843 87.892H43.3383C43.5223 89.3333 44.0283 90.4527 44.8563 91.25C45.6843 92.0473 46.773 92.446 48.1223 92.446C50.5757 92.446 52.3237 91.526 53.3663 89.686L59.6223 91.204C57.3837 95.3747 53.5963 97.46 48.2603 97.46ZM47.9843 80.026C45.4697 80.026 43.9517 81.36 43.4303 84.028H52.0783C51.9557 82.8013 51.5263 81.8353 50.7903 81.13C50.085 80.394 49.1497 80.026 47.9843 80.026ZM64.5095 64.8H84.0595V71.516H72.0075V77.818H83.5995V84.074H72.0075V97H64.5095V64.8ZM88.8313 67.928C88.8313 66.824 89.2146 65.9193 89.9813 65.214C90.7786 64.5087 91.7446 64.156 92.8793 64.156C94.0139 64.156 94.9646 64.5087 95.7313 65.214C96.5286 65.9193 96.9273 66.824 96.9273 67.928C96.9273 69.032 96.5286 69.9367 95.7313 70.642C94.9646 71.3167 94.0139 71.654 92.8793 71.654C91.7446 71.654 90.7786 71.3167 89.9813 70.642C89.2146 69.9367 88.8313 69.032 88.8313 67.928ZM89.4753 75.84H96.2373V97H89.4753V75.84ZM114.507 86.42C114.507 84.028 114.982 82.0193 115.933 80.394C116.884 78.738 118.126 77.496 119.659 76.668C121.192 75.8093 122.818 75.38 124.535 75.38C127.663 75.38 130.086 76.668 131.803 79.244V61.12H138.749V97H131.803V93.596C130.086 96.172 127.663 97.46 124.535 97.46C122.818 97.46 121.192 97.046 119.659 96.218C118.126 95.3593 116.884 94.102 115.933 92.446C114.982 90.79 114.507 88.7813 114.507 86.42ZM121.821 86.42C121.821 88.076 122.312 89.3947 123.293 90.376C124.305 91.3573 125.501 91.848 126.881 91.848C127.678 91.848 128.445 91.6333 129.181 91.204C129.948 90.7747 130.576 90.1613 131.067 89.364C131.558 88.536 131.803 87.5547 131.803 86.42C131.803 85.2547 131.558 84.2733 131.067 83.476C130.576 82.6787 129.948 82.0653 129.181 81.636C128.445 81.2067 127.678 80.992 126.881 80.992C125.501 80.992 124.305 81.4827 123.293 82.464C122.312 83.4453 121.821 84.764 121.821 86.42ZM154.905 97.46C152.421 97.46 150.274 97.0153 148.465 96.126C146.686 95.206 145.306 93.918 144.325 92.262C143.344 90.606 142.853 88.6587 142.853 86.42C142.853 82.9853 143.911 80.2867 146.027 78.324C148.143 76.3613 151.056 75.38 154.767 75.38C158.416 75.38 161.222 76.3153 163.185 78.186C165.178 80.0567 166.175 82.694 166.175 86.098C166.175 86.4353 166.175 86.7573 166.175 87.064C166.175 87.3707 166.16 87.6467 166.129 87.892H149.983C150.167 89.3333 150.673 90.4527 151.501 91.25C152.329 92.0473 153.418 92.446 154.767 92.446C157.22 92.446 158.968 91.526 160.011 89.686L166.267 91.204C164.028 95.3747 160.241 97.46 154.905 97.46ZM154.629 80.026C152.114 80.026 150.596 81.36 150.075 84.028H158.723C158.6 82.8013 158.171 81.8353 157.435 81.13C156.73 80.394 155.794 80.026 154.629 80.026ZM183.436 83.062C183.068 82.694 182.669 82.4027 182.24 82.188C181.841 81.9733 181.335 81.866 180.722 81.866C179.71 81.866 178.882 82.2647 178.238 83.062C177.625 83.8593 177.318 85.0247 177.318 86.558V97H170.464V75.84H177.318V78.508C177.993 77.5267 178.79 76.76 179.71 76.208C180.661 75.6253 181.642 75.334 182.654 75.334C183.421 75.334 184.157 75.5027 184.862 75.84C185.567 76.1467 186.104 76.5607 186.472 77.082L183.436 83.062ZM188.962 67.928C188.962 66.824 189.345 65.9193 190.112 65.214C190.909 64.5087 191.875 64.156 193.01 64.156C194.145 64.156 195.095 64.5087 195.862 65.214C196.659 65.9193 197.058 66.824 197.058 67.928C197.058 69.032 196.659 69.9367 195.862 70.642C195.095 71.3167 194.145 71.654 193.01 71.654C191.875 71.654 190.909 71.3167 190.112 70.642C189.345 69.9367 188.962 69.032 188.962 67.928ZM189.606 75.84H196.368V97H189.606V75.84ZM199.237 75.84H206.689L211.519 87.57L216.349 75.84H223.801L211.519 99.484L199.237 75.84ZM228.647 82.326L226.301 77.68C227.527 77.0973 228.969 76.5453 230.625 76.024C232.311 75.5027 234.151 75.242 236.145 75.242C238.015 75.242 239.687 75.518 241.159 76.07C242.631 76.5913 243.796 77.358 244.655 78.37C245.513 79.382 245.943 80.624 245.943 82.096V97H239.273V94.102C238.629 95.206 237.663 96.0493 236.375 96.632C235.117 97.184 233.753 97.46 232.281 97.46C230.931 97.46 229.674 97.2147 228.509 96.724C227.374 96.2027 226.454 95.436 225.749 94.424C225.074 93.412 224.737 92.1853 224.737 90.744C224.737 88.72 225.442 87.1253 226.853 85.96C228.294 84.764 230.349 84.166 233.017 84.166C234.305 84.166 235.485 84.304 236.559 84.58C237.632 84.8253 238.537 85.132 239.273 85.5V83.66C239.273 81.5747 237.939 80.532 235.271 80.532C234.351 80.532 233.431 80.6393 232.511 80.854C231.591 81.0687 230.778 81.3293 230.073 81.636C229.398 81.912 228.923 82.142 228.647 82.326ZM231.775 90.376C231.775 91.204 232.051 91.848 232.603 92.308C233.185 92.7373 233.906 92.952 234.765 92.952C235.899 92.952 236.911 92.6147 237.801 91.94C238.69 91.2347 239.181 90.192 239.273 88.812C238.015 88.26 236.651 87.984 235.179 87.984C233.952 87.984 233.078 88.1987 232.557 88.628C232.035 89.0267 231.775 89.6093 231.775 90.376ZM248.66 75.84H252.386V68.48H259.102V75.84H262.828V81.59H259.102V97H252.386V81.59H248.66V75.84ZM265.374 67.928C265.374 66.824 265.758 65.9193 266.524 65.214C267.322 64.5087 268.288 64.156 269.422 64.156C270.557 64.156 271.508 64.5087 272.274 65.214C273.072 65.9193 273.47 66.824 273.47 67.928C273.47 69.032 273.072 69.9367 272.274 70.642C271.508 71.3167 270.557 71.654 269.422 71.654C268.288 71.654 267.322 71.3167 266.524 70.642C265.758 69.9367 265.374 69.032 265.374 67.928ZM266.018 75.84H272.78V97H266.018V75.84ZM275.649 75.84H283.101L287.931 87.57L292.761 75.84H300.213L287.931 99.484L275.649 75.84ZM312.895 97.46C310.411 97.46 308.264 97.0153 306.455 96.126C304.676 95.206 303.296 93.918 302.315 92.262C301.334 90.606 300.843 88.6587 300.843 86.42C300.843 82.9853 301.901 80.2867 304.017 78.324C306.133 76.3613 309.046 75.38 312.757 75.38C316.406 75.38 319.212 76.3153 321.175 78.186C323.168 80.0567 324.165 82.694 324.165 86.098C324.165 86.4353 324.165 86.7573 324.165 87.064C324.165 87.3707 324.15 87.6467 324.119 87.892H307.973C308.157 89.3333 308.663 90.4527 309.491 91.25C310.319 92.0473 311.408 92.446 312.757 92.446C315.21 92.446 316.958 91.526 318.001 89.686L324.257 91.204C322.018 95.3747 318.231 97.46 312.895 97.46ZM312.619 80.026C310.104 80.026 308.586 81.36 308.065 84.028H316.713C316.59 82.8013 316.161 81.8353 315.425 81.13C314.72 80.394 313.784 80.026 312.619 80.026ZM349.145 107.12H342.199V75.84H349.145V79.244C349.912 77.9253 350.893 76.9133 352.089 76.208C353.316 75.472 354.742 75.104 356.367 75.104C358.085 75.104 359.71 75.5333 361.243 76.392C362.777 77.22 364.019 78.4773 364.969 80.164C365.951 81.8507 366.441 83.936 366.441 86.42C366.441 88.904 365.951 90.9893 364.969 92.676C364.019 94.332 362.777 95.5893 361.243 96.448C359.71 97.3067 358.085 97.736 356.367 97.736C354.742 97.736 353.316 97.3833 352.089 96.678C350.893 95.942 349.912 94.9147 349.145 93.596V107.12ZM359.127 86.42C359.127 84.764 358.621 83.4913 357.609 82.602C356.628 81.7127 355.447 81.268 354.067 81.268C353.301 81.268 352.534 81.4673 351.767 81.866C351.001 82.234 350.372 82.8013 349.881 83.568C349.391 84.304 349.145 85.2547 349.145 86.42C349.145 87.5547 349.391 88.5053 349.881 89.272C350.372 90.0387 351.001 90.6213 351.767 91.02C352.534 91.388 353.301 91.572 354.067 91.572C355.447 91.572 356.628 91.1273 357.609 90.238C358.621 89.3487 359.127 88.076 359.127 86.42ZM383.563 83.062C383.195 82.694 382.796 82.4027 382.367 82.188C381.968 81.9733 381.462 81.866 380.849 81.866C379.837 81.866 379.009 82.2647 378.365 83.062C377.752 83.8593 377.445 85.0247 377.445 86.558V97H370.591V75.84H377.445V78.508C378.12 77.5267 378.917 76.76 379.837 76.208C380.788 75.6253 381.769 75.334 382.781 75.334C383.548 75.334 384.284 75.5027 384.989 75.84C385.694 76.1467 386.231 76.5607 386.599 77.082L383.563 83.062ZM387.587 86.42C387.587 84.1813 388.109 82.234 389.151 80.578C390.225 78.922 391.666 77.634 393.475 76.714C395.315 75.794 397.385 75.334 399.685 75.334C402.016 75.334 404.086 75.794 405.895 76.714C407.705 77.634 409.131 78.922 410.173 80.578C411.247 82.234 411.783 84.1813 411.783 86.42C411.783 88.628 411.247 90.56 410.173 92.216C409.131 93.872 407.705 95.16 405.895 96.08C404.086 97 402.016 97.46 399.685 97.46C397.385 97.46 395.315 97 393.475 96.08C391.666 95.16 390.225 93.872 389.151 92.216C388.109 90.56 387.587 88.628 387.587 86.42ZM394.763 86.42C394.763 88.0453 395.239 89.3333 396.189 90.284C397.171 91.2347 398.336 91.71 399.685 91.71C401.035 91.71 402.185 91.2347 403.135 90.284C404.117 89.3333 404.607 88.0453 404.607 86.42C404.607 84.7947 404.117 83.5067 403.135 82.556C402.185 81.5747 401.035 81.084 399.685 81.084C398.336 81.084 397.171 81.5747 396.189 82.556C395.239 83.5067 394.763 84.7947 394.763 86.42ZM413.433 75.84H417.159V68.48H423.875V75.84H427.601V81.59H423.875V97H417.159V81.59H413.433V75.84ZM429.32 86.42C429.32 84.1813 429.841 82.234 430.884 80.578C431.957 78.922 433.398 77.634 435.208 76.714C437.048 75.794 439.118 75.334 441.418 75.334C443.748 75.334 445.818 75.794 447.628 76.714C449.437 77.634 450.863 78.922 451.906 80.578C452.979 82.234 453.516 84.1813 453.516 86.42C453.516 88.628 452.979 90.56 451.906 92.216C450.863 93.872 449.437 95.16 447.628 96.08C445.818 97 443.748 97.46 441.418 97.46C439.118 97.46 437.048 97 435.208 96.08C433.398 95.16 431.957 93.872 430.884 92.216C429.841 90.56 429.32 88.628 429.32 86.42ZM436.496 86.42C436.496 88.0453 436.971 89.3333 437.922 90.284C438.903 91.2347 440.068 91.71 441.418 91.71C442.767 91.71 443.917 91.2347 444.868 90.284C445.849 89.3333 446.34 88.0453 446.34 86.42C446.34 84.7947 445.849 83.5067 444.868 82.556C443.917 81.5747 442.767 81.084 441.418 81.084C440.068 81.084 438.903 81.5747 437.922 82.556C436.971 83.5067 436.496 84.7947 436.496 86.42ZM463.492 86.42C463.492 88.1067 464.044 89.4407 465.148 90.422C466.252 91.4033 467.586 91.894 469.15 91.894C470.407 91.894 471.603 91.6333 472.738 91.112C473.872 90.56 474.746 89.778 475.36 88.766V95.528C474.624 96.1107 473.704 96.586 472.6 96.954C471.496 97.2913 470.146 97.46 468.552 97.46C466.19 97.46 464.09 97 462.25 96.08C460.41 95.16 458.953 93.872 457.88 92.216C456.837 90.56 456.316 88.628 456.316 86.42C456.316 84.1813 456.837 82.2493 457.88 80.624C458.953 78.968 460.41 77.68 462.25 76.76C464.09 75.84 466.19 75.38 468.552 75.38C470.146 75.38 471.496 75.564 472.6 75.932C473.704 76.2693 474.624 76.6987 475.36 77.22V84.028C474.746 83.016 473.842 82.2493 472.646 81.728C471.45 81.2067 470.284 80.946 469.15 80.946C468.107 80.946 467.156 81.1913 466.298 81.682C465.439 82.142 464.749 82.786 464.228 83.614C463.737 84.442 463.492 85.3773 463.492 86.42ZM479.093 86.42C479.093 84.1813 479.614 82.234 480.657 80.578C481.73 78.922 483.172 77.634 484.981 76.714C486.821 75.794 488.891 75.334 491.191 75.334C493.522 75.334 495.592 75.794 497.401 76.714C499.21 77.634 500.636 78.922 501.679 80.578C502.752 82.234 503.289 84.1813 503.289 86.42C503.289 88.628 502.752 90.56 501.679 92.216C500.636 93.872 499.21 95.16 497.401 96.08C495.592 97 493.522 97.46 491.191 97.46C488.891 97.46 486.821 97 484.981 96.08C483.172 95.16 481.73 93.872 480.657 92.216C479.614 90.56 479.093 88.628 479.093 86.42ZM486.269 86.42C486.269 88.0453 486.744 89.3333 487.695 90.284C488.676 91.2347 489.842 91.71 491.191 91.71C492.54 91.71 493.69 91.2347 494.641 90.284C495.622 89.3333 496.113 88.0453 496.113 86.42C496.113 84.7947 495.622 83.5067 494.641 82.556C493.69 81.5747 492.54 81.084 491.191 81.084C489.842 81.084 488.676 81.5747 487.695 82.556C486.744 83.5067 486.269 84.7947 486.269 86.42ZM507.423 61.12H514.415V97H507.423V61.12Z" fill="white"/>
</svg>
